FiraSansMM-3.ufo
<glyph name="exclam" format="1">
  <advance width="240"/>
  <unicode hex="0021"/>
  <outline>
    <contour>
      <point x="105" y="682" type="line"/>
      <point x="134" y="682" type="line"/>
      <point x="134" y="208" type="line"/>
      <point x="105" y="208" type="line"/>
    </contour>
    <contour>
      <point x="120" y="49" type="qcurve" smooth="yes"/>
      <point x="134" y="49"/>
      <point x="150" y="32"/>
      <point x="150" y="19" type="qcurve" smooth="yes"/>
      <point x="150" y="7"/>
      <point x="134" y="-10"/>
      <point x="120" y="-10" type="qcurve" smooth="yes"/>
      <point x="107" y="-10"/>
      <point x="90" y="7"/>
      <point x="90" y="19" type="qcurve" smooth="yes"/>
      <point x="90" y="32"/>
      <point x="107" y="49"/>
    </contour>
  </outline>
</glyph>
<glyph name="numbersign" format="1">
  <advance width="491"/>
  <unicode hex="0023"/>
  <outline>
    <contour>
      <point x="476" y="484" type="line"/>
      <point x="476" y="456" type="line"/>
      <point x="396" y="456" type="line"/>
      <point x="365" y="222" type="line"/>
      <point x="439" y="222" type="line"/>
      <point x="439" y="194" type="line"/>
      <point x="361" y="194" type="line"/>
      <point x="335" y="0" type="line"/>
      <point x="301" y="0" type="line"/>
      <point x="327" y="194" type="line"/>
      <point x="127" y="194" type="line"/>
      <point x="101" y="0" type="line"/>
      <point x="68" y="0" type="line"/>
      <point x="94" y="194" type="line"/>
      <point x="15" y="194" type="line"/>
      <point x="15" y="222" type="line"/>
      <point x="98" y="222" type="line"/>
      <point x="129" y="456" type="line"/>
      <point x="52" y="456" type="line"/>
      <point x="52" y="484" type="line"/>
      <point x="132" y="484" type="line"/>
      <point x="156" y="662" type="line"/>
      <point x="189" y="662" type="line"/>
      <point x="165" y="484" type="line"/>
      <point x="365" y="484" type="line"/>
      <point x="389" y="662" type="line"/>
      <point x="423" y="662" type="line"/>
      <point x="399" y="484" type="line"/>
    </contour>
    <contour>
      <point x="131" y="222" type="line"/>
      <point x="331" y="222" type="line"/>
      <point x="362" y="456" type="line"/>
      <point x="162" y="456" type="line"/>
    </contour>
  </outline>
</glyph>
<glyph name="dollar" format="1">
  <advance width="521"/>
  <unicode hex="0024"/>
  <outline>
    <contour>
      <point x="245" y="0" type="line"/>
      <point x="272" y="1" type="line"/>
      <point x="272" y="-147" type="line"/>
      <point x="245" y="-147" type="line"/>
    </contour>
    <contour>
      <point x="245" y="814" type="line"/>
      <point x="272" y="814" type="line"/>
      <point x="272" y="664" type="line"/>
      <point x="245" y="664" type="line"/>
    </contour>
    <contour>
      <point x="256" y="671" type="qcurve" smooth="yes"/>
      <point x="318" y="671"/>
      <point x="399" y="633"/>
      <point x="436" y="601" type="qcurve"/>
      <point x="416" y="580" type="line"/>
      <point x="380" y="614"/>
      <point x="306" y="643"/>
      <point x="256" y="643" type="qcurve" smooth="yes"/>
      <point x="188" y="643"/>
      <point x="106" y="572"/>
      <point x="106" y="516" type="qcurve" smooth="yes"/>
      <point x="106" y="477"/>
      <point x="138" y="426"/>
      <point x="209" y="388"/>
      <point x="268" y="370" type="qcurve" smooth="yes"/>
      <point x="334" y="350"/>
      <point x="417" y="302"/>
      <point x="456" y="232"/>
      <point x="456" y="178" type="qcurve" smooth="yes"/>
      <point x="456" y="122"/>
      <point x="403" y="37"/>
      <point x="311" y="-10"/>
      <point x="250" y="-10" type="qcurve" smooth="yes"/>
      <point x="186" y="-10"/>
      <point x="89" y="34"/>
      <point x="50" y="69" type="qcurve"/>
      <point x="69" y="89" type="line"/>
      <point x="104" y="58"/>
      <point x="188" y="18"/>
      <point x="249" y="18" type="qcurve" smooth="yes"/>
      <point x="302" y="18"/>
      <point x="382" y="57"/>
      <point x="426" y="129"/>
      <point x="426" y="177" type="qcurve" smooth="yes"/>
      <point x="426" y="224"/>
      <point x="393" y="283"/>
      <point x="319" y="324"/>
      <point x="258" y="343" type="qcurve" smooth="yes"/>
      <point x="191" y="365"/>
      <point x="111" y="411"/>
      <point x="76" y="473"/>
      <point x="76" y="516" type="qcurve" smooth="yes"/>
      <point x="76" y="560"/>
      <point x="121" y="630"/>
      <point x="202" y="671"/>
    </contour>
  </outline>
</glyph>
<glyph name="ampersand" format="1">
  <advance width="727"/>
  <unicode hex="0026"/>
  <outline>
    <contour>
      <point x="300" y="692" type="qcurve" smooth="yes"/>
      <point x="345" y="692"/>
      <point x="414" y="655"/>
      <point x="453" y="590"/>
      <point x="453" y="547" type="qcurve" smooth="yes"/>
      <point x="453" y="509"/>
      <point x="417" y="447"/>
      <point x="345" y="392"/>
      <point x="290" y="362" type="qcurve"/>
      <point x="518" y="149" type="line"/>
      <point x="542" y="198"/>
      <point x="576" y="296"/>
      <point x="589" y="357" type="qcurve"/>
      <point x="618" y="348" type="line"/>
      <point x="605" y="284"/>
      <point x="565" y="178"/>
      <point x="537" y="130" type="qcurve"/>
      <point x="671" y="7" type="line"/>
      <point x="646" y="-10" type="line"/>
      <point x="522" y="104" type="line"/>
      <point x="485" y="55"/>
      <point x="380" y="-10"/>
      <point x="296" y="-10" type="qcurve" smooth="yes"/>
      <point x="242" y="-10"/>
      <point x="152" y="34"/>
      <point x="98" y="115"/>
      <point x="98" y="168" type="qcurve" smooth="yes"/>
      <point x="98" y="238"/>
      <point x="177" y="329"/>
      <point x="245" y="367" type="qcurve"/>
      <point x="211" y="400"/>
      <point x="165" y="453"/>
      <point x="142" y="507"/>
      <point x="142" y="542" type="qcurve" smooth="yes"/>
      <point x="142" y="585"/>
      <point x="183" y="652"/>
      <point x="254" y="692"/>
    </contour>
    <contour>
      <point x="501" y="123" type="qcurve"/>
      <point x="265" y="349" type="line"/>
      <point x="200" y="312"/>
      <point x="129" y="227"/>
      <point x="129" y="168" type="qcurve" smooth="yes"/>
      <point x="129" y="125"/>
      <point x="173" y="57"/>
      <point x="248" y="18"/>
      <point x="296" y="18" type="qcurve" smooth="yes"/>
      <point x="370" y="18"/>
      <point x="465" y="75"/>
    </contour>
    <contour>
      <point x="300" y="665" type="qcurve" smooth="yes"/>
      <point x="242" y="665"/>
      <point x="173" y="593"/>
      <point x="173" y="543" type="qcurve" smooth="yes"/>
      <point x="173" y="519"/>
      <point x="184" y="477"/>
      <point x="226" y="424"/>
      <point x="270" y="381" type="qcurve"/>
      <point x="323" y="408"/>
      <point x="390" y="459"/>
      <point x="422" y="514"/>
      <point x="422" y="547" type="qcurve" smooth="yes"/>
      <point x="422" y="605"/>
      <point x="350" y="665"/>
    </contour>
  </outline>
</glyph>
<glyph name="parenleft" format="1">
  <advance width="324"/>
  <unicode hex="0028"/>
  <outline>
    <contour>
      <point x="239" y="831" type="qcurve"/>
      <point x="259" y="819" type="line"/>
      <point x="226" y="770"/>
      <point x="166" y="672"/>
      <point x="121" y="563"/>
      <point x="95" y="433"/>
      <point x="95" y="350" type="qcurve" smooth="yes"/>
      <point x="95" y="268"/>
      <point x="121" y="137"/>
      <point x="166" y="28"/>
      <point x="226" y="-70"/>
      <point x="259" y="-119" type="qcurve"/>
      <point x="239" y="-131" type="line"/>
      <point x="203" y="-80"/>
      <point x="140" y="19"/>
      <point x="92" y="130"/>
      <point x="65" y="264"/>
      <point x="65" y="350" type="qcurve" smooth="yes"/>
      <point x="65" y="436"/>
      <point x="92" y="570"/>
      <point x="140" y="681"/>
      <point x="203" y="780"/>
    </contour>
  </outline>
</glyph>
<glyph name="parenright" format="1">
  <advance width="324"/>
  <unicode hex="0029"/>
  <outline>
    <contour>
      <point x="65" y="819" type="qcurve"/>
      <point x="85" y="831" type="line"/>
      <point x="121" y="780"/>
      <point x="184" y="681"/>
      <point x="232" y="570"/>
      <point x="259" y="436"/>
      <point x="259" y="350" type="qcurve" smooth="yes"/>
      <point x="259" y="264"/>
      <point x="232" y="130"/>
      <point x="184" y="19"/>
      <point x="121" y="-80"/>
      <point x="85" y="-131" type="qcurve"/>
      <point x="65" y="-119" type="line"/>
      <point x="98" y="-70"/>
      <point x="158" y="28"/>
      <point x="203" y="137"/>
      <point x="229" y="268"/>
      <point x="229" y="350" type="qcurve" smooth="yes"/>
      <point x="229" y="433"/>
      <point x="203" y="563"/>
      <point x="158" y="672"/>
      <point x="98" y="770"/>
    </contour>
  </outline>
</glyph>
<glyph name="asterisk" format="1">
  <advance width="433"/>
  <unicode hex="002A"/>
  <outline>
    <contour>
      <point x="379" y="626" type="line"/>
      <point x="388" y="599" type="line"/>
      <point x="237" y="553" type="line"/>
      <point x="332" y="426" type="line"/>
      <point x="307" y="408" type="line"/>
      <point x="217" y="538" type="line"/>
      <point x="126" y="408" type="line"/>
      <point x="101" y="426" type="line"/>
      <point x="198" y="552" type="line"/>
      <point x="45" y="599" type="line"/>
      <point x="54" y="626" type="line"/>
      <point x="204" y="573" type="line"/>
      <point x="202" y="734" type="line"/>
      <point x="232" y="734" type="line"/>
      <point x="230" y="575" type="line"/>
    </contour>
  </outline>
</glyph>
<glyph name="comma" format="1">
  <advance width="180"/>
  <unicode hex="002C"/>
  <outline>
    <contour>
      <point x="90" y="49" type="qcurve" smooth="yes"/>
      <point x="104" y="49"/>
      <point x="120" y="32"/>
      <point x="120" y="19" type="qcurve" smooth="yes"/>
      <point x="120" y="9"/>
      <point x="112" y="-12"/>
      <point x="108" y="-22" type="qcurve" smooth="yes"/>
      <point x="61" y="-139" type="line"/>
      <point x="38" y="-139" type="line"/>
      <point x="78" y="-7" type="line"/>
      <point x="69" y="-4"/>
      <point x="60" y="10"/>
      <point x="60" y="19" type="qcurve" smooth="yes"/>
      <point x="60" y="32"/>
      <point x="77" y="49"/>
    </contour>
  </outline>
</glyph>
<glyph name="period" format="1">
  <advance width="180"/>
  <unicode hex="002E"/>
  <outline>
    <contour>
      <point x="90" y="49" type="qcurve" smooth="yes"/>
      <point x="104" y="49"/>
      <point x="120" y="32"/>
      <point x="120" y="19" type="qcurve" smooth="yes"/>
      <point x="120" y="7"/>
      <point x="104" y="-10"/>
      <point x="90" y="-10" type="qcurve" smooth="yes"/>
      <point x="77" y="-10"/>
      <point x="60" y="7"/>
      <point x="60" y="19" type="qcurve" smooth="yes"/>
      <point x="60" y="32"/>
      <point x="77" y="49"/>
    </contour>
  </outline>
</glyph>
<glyph name="zero" format="1">
  <advance width="543"/>
  <unicode hex="0030"/>
  <outline>
    <contour>
      <point x="272" y="674" type="qcurve" smooth="yes"/>
      <point x="367" y="674"/>
      <point x="468" y="503"/>
      <point x="468" y="330" type="qcurve" smooth="yes"/>
      <point x="468" y="160"/>
      <point x="366" y="-10"/>
      <point x="272" y="-10" type="qcurve" smooth="yes"/>
      <point x="178" y="-10"/>
      <point x="75" y="162"/>
      <point x="75" y="332" type="qcurve" smooth="yes"/>
      <point x="75" y="503"/>
      <point x="178" y="674"/>
    </contour>
    <contour>
      <point x="272" y="646" type="qcurve" smooth="yes"/>
      <point x="220" y="646"/>
      <point x="145" y="577"/>
      <point x="106" y="438"/>
      <point x="106" y="332" type="qcurve" smooth="yes"/>
      <point x="106" y="227"/>
      <point x="145" y="87"/>
      <point x="219" y="18"/>
      <point x="272" y="18" type="qcurve" smooth="yes"/>
      <point x="325" y="18"/>
      <point x="399" y="86"/>
      <point x="437" y="225"/>
      <point x="437" y="330" type="qcurve" smooth="yes"/>
      <point x="437" y="436"/>
      <point x="399" y="576"/>
      <point x="326" y="646"/>
    </contour>
  </outline>
</glyph>
<glyph name="two" format="1">
  <advance width="465"/>
  <unicode hex="0032"/>
  <outline>
    <contour>
      <point x="222" y="674" type="qcurve" smooth="yes"/>
      <point x="276" y="674"/>
      <point x="351" y="630"/>
      <point x="391" y="554"/>
      <point x="391" y="506" type="qcurve" smooth="yes"/>
      <point x="391" y="464"/>
      <point x="372" y="391"/>
      <point x="330" y="315"/>
      <point x="259" y="224"/>
      <point x="155" y="108"/>
      <point x="84" y="30" type="qcurve"/>
      <point x="410" y="30" type="line"/>
      <point x="404" y="0" type="line"/>
      <point x="46" y="0" type="line"/>
      <point x="46" y="29" type="line"/>
      <point x="123" y="112"/>
      <point x="232" y="235"/>
      <point x="303" y="326"/>
      <point x="343" y="399"/>
      <point x="360" y="466"/>
      <point x="360" y="503" type="qcurve" smooth="yes"/>
      <point x="360" y="547"/>
      <point x="326" y="611"/>
      <point x="264" y="646"/>
      <point x="221" y="646" type="qcurve" smooth="yes"/>
      <point x="169" y="646"/>
      <point x="92" y="603"/>
      <point x="63" y="568" type="qcurve"/>
      <point x="40" y="584" type="line"/>
      <point x="78" y="630"/>
      <point x="165" y="674"/>
    </contour>
  </outline>
</glyph>
<glyph name="three" format="1">
  <advance width="476"/>
  <unicode hex="0033"/>
  <outline>
    <contour>
      <point x="217" y="674" type="qcurve" smooth="yes"/>
      <point x="270" y="674"/>
      <point x="347" y="632"/>
      <point x="389" y="559"/>
      <point x="389" y="511" type="qcurve" smooth="yes"/>
      <point x="389" y="464"/>
      <point x="353" y="396"/>
      <point x="292" y="358"/>
      <point x="254" y="353" type="qcurve"/>
      <point x="296" y="353"/>
      <point x="365" y="313"/>
      <point x="406" y="238"/>
      <point x="406" y="183" type="qcurve" smooth="yes"/>
      <point x="406" y="126"/>
      <point x="357" y="39"/>
      <point x="268" y="-10"/>
      <point x="207" y="-10" type="qcurve" smooth="yes"/>
      <point x="149" y="-10"/>
      <point x="62" y="32"/>
      <point x="25" y="73" type="qcurve"/>
      <point x="46" y="90" type="line"/>
      <point x="83" y="50"/>
      <point x="160" y="18"/>
      <point x="206" y="18" type="qcurve" smooth="yes"/>
      <point x="261" y="18"/>
      <point x="336" y="60"/>
      <point x="375" y="134"/>
      <point x="375" y="182" type="qcurve" smooth="yes"/>
      <point x="375" y="263"/>
      <point x="285" y="338"/>
      <point x="212" y="338" type="qcurve" smooth="yes"/>
      <point x="173" y="338" type="line"/>
      <point x="177" y="365" type="line"/>
      <point x="209" y="365" type="line" smooth="yes"/>
      <point x="245" y="365"/>
      <point x="314" y="395"/>
      <point x="358" y="459"/>
      <point x="358" y="510" type="qcurve" smooth="yes"/>
      <point x="358" y="573"/>
      <point x="281" y="646"/>
      <point x="216" y="646" type="qcurve" smooth="yes"/>
      <point x="172" y="646"/>
      <point x="99" y="616"/>
      <point x="61" y="581" type="qcurve"/>
      <point x="43" y="601" type="line"/>
      <point x="79" y="637"/>
      <point x="162" y="674"/>
    </contour>
  </outline>
</glyph>
<glyph name="five" format="1">
  <advance width="475"/>
  <unicode hex="0035"/>
  <outline>
    <contour>
      <point x="86" y="662" type="line"/>
      <point x="399" y="662" type="line"/>
      <point x="393" y="634" type="line"/>
      <point x="116" y="634" type="line"/>
      <point x="116" y="381" type="line"/>
      <point x="137" y="395"/>
      <point x="195" y="417"/>
      <point x="235" y="417" type="qcurve" smooth="yes"/>
      <point x="292" y="417"/>
      <point x="375" y="368"/>
      <point x="420" y="277"/>
      <point x="420" y="214" type="qcurve" smooth="yes"/>
      <point x="420" y="149"/>
      <point x="372" y="48"/>
      <point x="282" y="-10"/>
      <point x="220" y="-10" type="qcurve" smooth="yes"/>
      <point x="162" y="-10"/>
      <point x="75" y="30"/>
      <point x="40" y="66" type="qcurve"/>
      <point x="62" y="85" type="line"/>
      <point x="94" y="52"/>
      <point x="168" y="18"/>
      <point x="221" y="18" type="qcurve" smooth="yes"/>
      <point x="272" y="18"/>
      <point x="347" y="67"/>
      <point x="388" y="155"/>
      <point x="388" y="214" type="qcurve" smooth="yes"/>
      <point x="388" y="302"/>
      <point x="302" y="389"/>
      <point x="234" y="389" type="qcurve" smooth="yes"/>
      <point x="195" y="389"/>
      <point x="141" y="371"/>
      <point x="110" y="351" type="qcurve"/>
      <point x="86" y="351" type="line"/>
    </contour>
  </outline>
</glyph>
<glyph name="six" format="1">
  <advance width="516"/>
  <unicode hex="0036"/>
  <outline>
    <contour>
      <point x="304" y="674" type="qcurve" smooth="yes"/>
      <point x="340" y="674"/>
      <point x="393" y="653"/>
      <point x="417" y="636" type="qcurve"/>
      <point x="400" y="613" type="line"/>
      <point x="378" y="630"/>
      <point x="332" y="646"/>
      <point x="303" y="646" type="qcurve" smooth="yes"/>
      <point x="240" y="646"/>
      <point x="153" y="557"/>
      <point x="107" y="404"/>
      <point x="106" y="308" type="qcurve"/>
      <point x="106" y="293" type="line" smooth="yes"/>
      <point x="106" y="214"/>
      <point x="138" y="89"/>
      <point x="213" y="18"/>
      <point x="275" y="18" type="qcurve" smooth="yes"/>
      <point x="325" y="18"/>
      <point x="391" y="71"/>
      <point x="425" y="163"/>
      <point x="425" y="221" type="qcurve" smooth="yes"/>
      <point x="425" y="313"/>
      <point x="345" y="400"/>
      <point x="285" y="400" type="qcurve" smooth="yes"/>
      <point x="245" y="400"/>
      <point x="177" y="366"/>
      <point x="122" y="306"/>
      <point x="101" y="266" type="qcurve"/>
      <point x="102" y="312" type="line"/>
      <point x="122" y="345"/>
      <point x="175" y="397"/>
      <point x="244" y="428"/>
      <point x="286" y="428" type="qcurve" smooth="yes"/>
      <point x="333" y="428"/>
      <point x="410" y="384"/>
      <point x="456" y="293"/>
      <point x="456" y="222" type="qcurve" smooth="yes"/>
      <point x="456" y="149"/>
      <point x="410" y="45"/>
      <point x="328" y="-10"/>
      <point x="275" y="-10" type="qcurve" smooth="yes"/>
      <point x="201" y="-10"/>
      <point x="113" y="72"/>
      <point x="75" y="208"/>
      <point x="75" y="289" type="qcurve" smooth="yes"/>
      <point x="75" y="410"/>
      <point x="131" y="582"/>
      <point x="234" y="674"/>
    </contour>
  </outline>
</glyph>
<glyph name="eight" format="1">
  <advance width="527"/>
  <unicode hex="0038"/>
  <outline>
    <contour>
      <point x="264" y="674" type="qcurve" smooth="yes"/>
      <point x="309" y="674"/>
      <point x="388" y="638"/>
      <point x="438" y="565"/>
      <point x="438" y="511" type="qcurve" smooth="yes"/>
      <point x="438" y="455"/>
      <point x="374" y="378"/>
      <point x="305" y="343" type="qcurve"/>
      <point x="278" y="354" type="line"/>
      <point x="346" y="387"/>
      <point x="407" y="459"/>
      <point x="407" y="510" type="qcurve" smooth="yes"/>
      <point x="407" y="555"/>
      <point x="369" y="616"/>
      <point x="304" y="646"/>
      <point x="264" y="646" type="qcurve" smooth="yes"/>
      <point x="225" y="646"/>
      <point x="160" y="615"/>
      <point x="121" y="555"/>
      <point x="121" y="511" type="qcurve" smooth="yes"/>
      <point x="121" y="480"/>
      <point x="141" y="433"/>
      <point x="194" y="395"/>
      <point x="243" y="375" type="qcurve" smooth="yes"/>
      <point x="294" y="355" type="line"/>
      <point x="306" y="350" type="line" smooth="yes"/>
      <point x="362" y="328"/>
      <point x="433" y="280"/>
      <point x="467" y="216"/>
      <point x="467" y="168" type="qcurve" smooth="yes"/>
      <point x="467" y="113"/>
      <point x="415" y="33"/>
      <point x="323" y="-10"/>
      <point x="262" y="-10" type="qcurve" smooth="yes"/>
      <point x="200" y="-10"/>
      <point x="109" y="35"/>
      <point x="60" y="115"/>
      <point x="60" y="167" type="qcurve" smooth="yes"/>
      <point x="60" y="238"/>
      <point x="145" y="340"/>
      <point x="225" y="365" type="qcurve"/>
      <point x="257" y="352" type="line"/>
      <point x="168" y="323"/>
      <point x="91" y="235"/>
      <point x="91" y="167" type="qcurve" smooth="yes"/>
      <point x="91" y="94"/>
      <point x="187" y="19"/>
      <point x="263" y="19" type="qcurve" smooth="yes"/>
      <point x="337" y="19"/>
      <point x="436" y="94"/>
      <point x="436" y="168" type="qcurve" smooth="yes"/>
      <point x="436" y="213"/>
      <point x="404" y="270"/>
      <point x="338" y="312"/>
      <point x="286" y="332" type="qcurve" smooth="yes"/>
      <point x="236" y="352" type="line"/>
      <point x="220" y="358" type="line" smooth="yes"/>
      <point x="153" y="385"/>
      <point x="90" y="452"/>
      <point x="90" y="512" type="qcurve" smooth="yes"/>
      <point x="90" y="563"/>
      <point x="139" y="636"/>
      <point x="218" y="674"/>
    </contour>
  </outline>
</glyph>
<glyph name="nine" format="1">
  <advance width="512"/>
  <unicode hex="0039"/>
  <outline>
    <contour>
      <point x="416" y="401" type="qcurve"/>
      <point x="420" y="369" type="line"/>
      <point x="386" y="313"/>
      <point x="294" y="253"/>
      <point x="237" y="253" type="qcurve" smooth="yes"/>
      <point x="186" y="253"/>
      <point x="106" y="303"/>
      <point x="60" y="395"/>
      <point x="60" y="458" type="qcurve" smooth="yes"/>
      <point x="60" y="525"/>
      <point x="109" y="621"/>
      <point x="196" y="674"/>
      <point x="252" y="674" type="qcurve" smooth="yes"/>
      <point x="319" y="674"/>
      <point x="402" y="608"/>
      <point x="442" y="485"/>
      <point x="442" y="399" type="qcurve" smooth="yes"/>
      <point x="442" y="305"/>
      <point x="399" y="169"/>
      <point x="318" y="73"/>
      <point x="201" y="7"/>
      <point x="126" y="-17" type="qcurve"/>
      <point x="117" y="8" type="line"/>
      <point x="208" y="38"/>
      <point x="336" y="125"/>
      <point x="408" y="263"/>
      <point x="412" y="367" type="qcurve" smooth="yes"/>
      <point x="412" y="390" type="line" smooth="yes"/>
      <point x="412" y="472"/>
      <point x="380" y="586"/>
      <point x="311" y="646"/>
      <point x="253" y="646" type="qcurve" smooth="yes"/>
      <point x="204" y="646"/>
      <point x="132" y="602"/>
      <point x="92" y="518"/>
      <point x="92" y="457" type="qcurve" smooth="yes"/>
      <point x="92" y="402"/>
      <point x="129" y="323"/>
      <point x="195" y="281"/>
      <point x="240" y="281" type="qcurve" smooth="yes"/>
      <point x="296" y="281"/>
      <point x="379" y="343"/>
    </contour>
  </outline>
</glyph>
<glyph name="question" format="1">
  <advance width="438"/>
  <unicode hex="003F"/>
  <outline>
    <contour>
      <point x="231" y="692" type="qcurve" smooth="yes"/>
      <point x="280" y="692"/>
      <point x="350" y="655"/>
      <point x="388" y="592"/>
      <point x="388" y="554" type="qcurve" smooth="yes"/>
      <point x="388" y="517"/>
      <point x="361" y="468"/>
      <point x="320" y="432"/>
      <point x="272" y="399"/>
      <point x="231" y="362"/>
      <point x="204" y="310"/>
      <point x="204" y="271" type="qcurve" smooth="yes"/>
      <point x="204" y="208" type="line"/>
      <point x="175" y="208" type="line"/>
      <point x="175" y="274" type="line" smooth="yes"/>
      <point x="175" y="316"/>
      <point x="201" y="372"/>
      <point x="242" y="411"/>
      <point x="289" y="442"/>
      <point x="330" y="476"/>
      <point x="356" y="521"/>
      <point x="356" y="554" type="qcurve" smooth="yes"/>
      <point x="356" y="604"/>
      <point x="288" y="664"/>
      <point x="231" y="664" type="qcurve" smooth="yes"/>
      <point x="179" y="664"/>
      <point x="108" y="627"/>
      <point x="72" y="588" type="qcurve"/>
      <point x="50" y="605" type="line"/>
      <point x="89" y="649"/>
      <point x="174" y="692"/>
    </contour>
    <contour>
      <point x="192" y="49" type="qcurve" smooth="yes"/>
      <point x="206" y="49"/>
      <point x="222" y="32"/>
      <point x="222" y="19" type="qcurve" smooth="yes"/>
      <point x="222" y="7"/>
      <point x="206" y="-10"/>
      <point x="192" y="-10" type="qcurve" smooth="yes"/>
      <point x="179" y="-10"/>
      <point x="162" y="7"/>
      <point x="162" y="19" type="qcurve" smooth="yes"/>
      <point x="162" y="32"/>
      <point x="179" y="49"/>
    </contour>
  </outline>
</glyph>
<glyph name="at" format="1">
  <advance width="1020"/>
  <unicode hex="0040"/>
  <outline>
    <contour>
      <point x="524" y="-199" type="qcurve" smooth="yes"/>
      <point x="432" y="-199"/>
      <point x="276" y="-139"/>
      <point x="161" y="-25"/>
      <point x="97" y="139"/>
      <point x="97" y="244" type="qcurve" smooth="yes"/>
      <point x="97" y="335"/>
      <point x="158" y="497"/>
      <point x="272" y="621"/>
      <point x="430" y="692"/>
      <point x="526" y="692" type="qcurve" smooth="yes"/>
      <point x="625" y="692"/>
      <point x="773" y="630"/>
      <point x="873" y="523"/>
      <point x="923" y="385"/>
      <point x="923" y="309" type="qcurve" smooth="yes"/>
      <point x="923" y="223"/>
      <point x="893" y="109"/>
      <point x="844" y="43"/>
      <point x="784" y="15"/>
      <point x="755" y="15" type="qcurve" smooth="yes"/>
      <point x="725" y="15"/>
      <point x="677" y="43"/>
      <point x="645" y="94"/>
      <point x="638" y="128" type="qcurve"/>
      <point x="614" y="74"/>
      <point x="540" y="17"/>
      <point x="487" y="17" type="qcurve" smooth="yes"/>
      <point x="444" y="17"/>
      <point x="369" y="65"/>
      <point x="323" y="160"/>
      <point x="323" y="232" type="qcurve" smooth="yes"/>
      <point x="323" y="317"/>
      <point x="378" y="426"/>
      <point x="469" y="478"/>
      <point x="524" y="478" type="qcurve" smooth="yes"/>
      <point x="562" y="478"/>
      <point x="632" y="458"/>
      <point x="660" y="444" type="qcurve"/>
      <point x="660" y="187" type="line" smooth="yes"/>
      <point x="660" y="114"/>
      <point x="712" y="41"/>
      <point x="755" y="41" type="qcurve" smooth="yes"/>
      <point x="789" y="41"/>
      <point x="851" y="87"/>
      <point x="892" y="202"/>
      <point x="892" y="307" type="qcurve" smooth="yes"/>
      <point x="892" y="380"/>
      <point x="844" y="509"/>
      <point x="751" y="608"/>
      <point x="615" y="664"/>
      <point x="526" y="664" type="qcurve" smooth="yes"/>
      <point x="437" y="664"/>
      <point x="291" y="597"/>
      <point x="185" y="480"/>
      <point x="128" y="328"/>
      <point x="128" y="244" type="qcurve" smooth="yes"/>
      <point x="128" y="115"/>
      <point x="229" y="-71"/>
      <point x="409" y="-171"/>
      <point x="525" y="-171" type="qcurve" smooth="yes"/>
      <point x="563" y="-171"/>
      <point x="627" y="-163"/>
      <point x="684" y="-149"/>
      <point x="711" y="-138" type="qcurve"/>
      <point x="719" y="-165" type="line"/>
      <point x="692" y="-175"/>
      <point x="635" y="-190"/>
      <point x="568" y="-199"/>
    </contour>
    <contour>
      <point x="489" y="45" type="qcurve" smooth="yes"/>
      <point x="524" y="45"/>
      <point x="580" y="79"/>
      <point x="621" y="136"/>
      <point x="630" y="169" type="qcurve"/>
      <point x="630" y="425" type="line"/>
      <point x="605" y="437"/>
      <point x="555" y="450"/>
      <point x="525" y="450" type="qcurve" smooth="yes"/>
      <point x="473" y="450"/>
      <point x="396" y="399"/>
      <point x="354" y="301"/>
      <point x="354" y="232" type="qcurve" smooth="yes"/>
      <point x="354" y="138"/>
      <point x="431" y="45"/>
    </contour>
  </outline>
</glyph>
<glyph name="A" format="1">
  <advance width="558"/>
  <unicode hex="0041"/>
  <outline>
    <contour>
      <point x="56" y="0" type="line"/>
      <point x="25" y="0" type="line"/>
      <point x="260" y="682" type="line"/>
      <point x="298" y="682" type="line"/>
      <point x="533" y="0" type="line"/>
      <point x="500" y="0" type="line"/>
      <point x="433" y="199" type="line"/>
      <point x="124" y="199" type="line"/>
    </contour>
    <contour>
      <point x="279" y="657" type="line"/>
      <point x="133" y="228" type="line"/>
      <point x="423" y="228" type="line"/>
    </contour>
    <contour>
      <point x="531" y="0" type="move" name="ogonek"/>
    </contour>
    <contour>
      <point x="278" y="680" type="move" name="top"/>
    </contour>
    <contour>
      <point x="170" y="680" type="move" name="topleft"/>
    </contour>
    <contour>
      <point x="278" y="0" type="move" name="bottom"/>
    </contour>
  </outline>
</glyph>
<glyph name="B" format="1">
  <advance width="589"/>
  <unicode hex="0042"/>
  <outline>
    <contour>
      <point x="304" y="0" type="qcurve" smooth="yes"/>
      <point x="120" y="0" type="line"/>
      <point x="120" y="682" type="line"/>
      <point x="264" y="682" type="line" smooth="yes"/>
      <point x="337" y="682"/>
      <point x="440" y="645"/>
      <point x="495" y="570"/>
      <point x="495" y="513" type="qcurve" smooth="yes"/>
      <point x="495" y="468"/>
      <point x="465" y="405"/>
      <point x="410" y="369"/>
      <point x="372" y="362" type="qcurve"/>
      <point x="415" y="360"/>
      <point x="486" y="321"/>
      <point x="529" y="245"/>
      <point x="529" y="185" type="qcurve" smooth="yes"/>
      <point x="529" y="126"/>
      <point x="476" y="43"/>
      <point x="376" y="0"/>
    </contour>
    <contour>
      <point x="151" y="346" type="line"/>
      <point x="151" y="29" type="line"/>
      <point x="305" y="29" type="line" smooth="yes"/>
      <point x="365" y="29"/>
      <point x="451" y="64"/>
      <point x="497" y="133"/>
      <point x="497" y="185" type="qcurve" smooth="yes"/>
      <point x="497" y="240"/>
      <point x="452" y="311"/>
      <point x="373" y="346"/>
      <point x="322" y="346" type="qcurve" smooth="yes"/>
    </contour>
    <contour>
      <point x="151" y="653" type="line"/>
      <point x="151" y="374" type="line"/>
      <point x="317" y="374" type="line" smooth="yes"/>
      <point x="361" y="374"/>
      <point x="427" y="407"/>
      <point x="463" y="469"/>
      <point x="463" y="512" type="qcurve" smooth="yes"/>
      <point x="463" y="585"/>
      <point x="362" y="653"/>
      <point x="268" y="653" type="qcurve" smooth="yes"/>
    </contour>
    <contour>
      <point x="281" y="680" type="move" name="top"/>
    </contour>
    <contour>
      <point x="310" y="0" type="move" name="bottom"/>
    </contour>
  </outline>
</glyph>
<glyph name="C" format="1">
  <advance width="542"/>
  <unicode hex="0043"/>
  <outline>
    <contour>
      <point x="345" y="692" type="qcurve" smooth="yes"/>
      <point x="401" y="692"/>
      <point x="476" y="660"/>
      <point x="509" y="633" type="qcurve"/>
      <point x="492" y="611" type="line"/>
      <point x="457" y="638"/>
      <point x="394" y="663"/>
      <point x="347" y="663" type="qcurve" smooth="yes"/>
      <point x="281" y="663"/>
      <point x="172" y="597"/>
      <point x="107" y="455"/>
      <point x="107" y="341" type="qcurve" smooth="yes"/>
      <point x="107" y="233"/>
      <point x="170" y="91"/>
      <point x="278" y="20"/>
      <point x="343" y="20" type="qcurve" smooth="yes"/>
      <point x="399" y="20"/>
      <point x="467" y="53"/>
      <point x="498" y="78" type="qcurve"/>
      <point x="517" y="55" type="line"/>
      <point x="484" y="27"/>
      <point x="401" y="-10"/>
      <point x="342" y="-10" type="qcurve" smooth="yes"/>
      <point x="266" y="-10"/>
      <point x="145" y="70"/>
      <point x="75" y="227"/>
      <point x="75" y="341" type="qcurve" smooth="yes"/>
      <point x="75" y="459"/>
      <point x="148" y="615"/>
      <point x="271" y="692"/>
    </contour>
    <contour>
      <point x="323" y="341" type="move" name="center"/>
    </contour>
    <contour>
      <point x="341" y="0" type="move" name="bottom"/>
    </contour>
    <contour>
      <point x="343" y="680" type="move" name="top"/>
    </contour>
  </outline>
</glyph>
<glyph name="D" format="1">
  <advance width="622"/>
  <unicode hex="0044"/>
  <outline>
    <contour>
      <point x="120" y="682" type="line"/>
      <point x="249" y="682" type="line" smooth="yes"/>
      <point x="304" y="682"/>
      <point x="410" y="655"/>
      <point x="496" y="584"/>
      <point x="547" y="453"/>
      <point x="547" y="348" type="qcurve" smooth="yes"/>
      <point x="547" y="240"/>
      <point x="493" y="104"/>
      <point x="406" y="29"/>
      <point x="302" y="0"/>
      <point x="252" y="0" type="qcurve" smooth="yes"/>
      <point x="120" y="0" type="line"/>
    </contour>
    <contour>
      <point x="246" y="653" type="qcurve" smooth="yes"/>
      <point x="151" y="653" type="line"/>
      <point x="151" y="29" type="line"/>
      <point x="253" y="29" type="line" smooth="yes"/>
      <point x="301" y="29"/>
      <point x="394" y="56"/>
      <point x="470" y="125"/>
      <point x="515" y="250"/>
      <point x="515" y="348" type="qcurve" smooth="yes"/>
      <point x="515" y="448"/>
      <point x="468" y="569"/>
      <point x="390" y="632"/>
      <point x="294" y="653"/>
    </contour>
    <contour>
      <point x="309" y="340" type="move" name="center"/>
    </contour>
    <contour>
      <point x="310" y="0" type="move" name="bottom"/>
    </contour>
    <contour>
      <point x="289" y="680" type="move" name="top"/>
    </contour>
  </outline>
</glyph>
<glyph name="G" format="1">
  <advance width="608"/>
  <unicode hex="0047"/>
  <outline>
    <contour>
      <point x="348" y="692" type="qcurve" smooth="yes"/>
      <point x="404" y="692"/>
      <point x="483" y="662"/>
      <point x="523" y="631" type="qcurve"/>
      <point x="504" y="610" type="line"/>
      <point x="468" y="638"/>
      <point x="395" y="663"/>
      <point x="348" y="663" type="qcurve" smooth="yes"/>
      <point x="305" y="663"/>
      <point x="219" y="628"/>
      <point x="149" y="552"/>
      <point x="107" y="431"/>
      <point x="107" y="345" type="qcurve" smooth="yes"/>
      <point x="107" y="235"/>
      <point x="169" y="90"/>
      <point x="280" y="19"/>
      <point x="353" y="19" type="qcurve" smooth="yes"/>
      <point x="402" y="19"/>
      <point x="473" y="39"/>
      <point x="507" y="58" type="qcurve"/>
      <point x="507" y="330" type="line"/>
      <point x="364" y="330" type="line"/>
      <point x="360" y="359" type="line"/>
      <point x="538" y="359" type="line"/>
      <point x="538" y="42" type="line"/>
      <point x="495" y="17"/>
      <point x="400" y="-10"/>
      <point x="353" y="-10" type="qcurve" smooth="yes"/>
      <point x="271" y="-10"/>
      <point x="146" y="69"/>
      <point x="75" y="227"/>
      <point x="75" y="345" type="qcurve" smooth="yes"/>
      <point x="75" y="434"/>
      <point x="122" y="565"/>
      <point x="201" y="650"/>
      <point x="298" y="692"/>
    </contour>
    <contour>
      <point x="337" y="680" type="move" name="top"/>
    </contour>
    <contour>
      <point x="338" y="0" type="move" name="bottom"/>
    </contour>
  </outline>
</glyph>
<glyph name="J" format="1">
  <advance width="279"/>
  <unicode hex="004A"/>
  <outline>
    <contour>
      <point x="134" y="682" type="line"/>
      <point x="165" y="682" type="line"/>
      <point x="165" y="88" type="line" smooth="yes"/>
      <point x="165" y="49"/>
      <point x="154" y="-7"/>
      <point x="124" y="-49"/>
      <point x="71" y="-85"/>
      <point x="29" y="-104" type="qcurve"/>
      <point x="20" y="-81" type="line"/>
      <point x="66" y="-59"/>
      <point x="115" y="-16"/>
      <point x="134" y="44"/>
      <point x="134" y="90" type="qcurve" smooth="yes"/>
    </contour>
    <contour>
      <point x="150" y="680" type="move" name="top"/>
    </contour>
    <contour>
      <point x="137" y="-188" type="move" name="bottom"/>
    </contour>
  </outline>
</glyph>
<glyph name="L" format="1">
  <advance width="460"/>
  <unicode hex="004C"/>
  <outline>
    <contour>
      <point x="120" y="682" type="line"/>
      <point x="151" y="682" type="line"/>
      <point x="151" y="30" type="line"/>
      <point x="440" y="30" type="line"/>
      <point x="434" y="0" type="line"/>
      <point x="120" y="0" type="line"/>
    </contour>
    <contour>
      <point x="275" y="0" type="move" name="bottom"/>
    </contour>
    <contour>
      <point x="131" y="680" type="move" name="top"/>
    </contour>
    <contour>
      <point x="182" y="680" type="move" name="topright"/>
    </contour>
    <contour>
      <point x="350" y="355" type="move" name="center"/>
    </contour>
  </outline>
</glyph>
<glyph name="M" format="1">
  <advance width="764"/>
  <unicode hex="004D"/>
  <outline>
    <contour>
      <point x="569" y="682" type="line"/>
      <point x="616" y="682" type="line"/>
      <point x="689" y="0" type="line"/>
      <point x="659" y="0" type="line"/>
      <point x="621" y="342" type="line" smooth="yes"/>
      <point x="615" y="398"/>
      <point x="603" y="517"/>
      <point x="592" y="622"/>
      <point x="589" y="655" type="qcurve"/>
      <point x="397" y="83" type="line"/>
      <point x="367" y="83" type="line"/>
      <point x="171" y="655" type="line"/>
      <point x="170" y="633"/>
      <point x="163" y="564"/>
      <point x="154" y="480"/>
      <point x="144" y="392"/>
      <point x="140" y="351" type="qcurve" smooth="yes"/>
      <point x="105" y="0" type="line"/>
      <point x="75" y="0" type="line"/>
      <point x="146" y="682" type="line"/>
      <point x="192" y="682" type="line"/>
      <point x="382" y="121" type="line"/>
    </contour>
    <contour>
      <point x="378" y="680" type="move" name="top"/>
    </contour>
    <contour>
      <point x="379" y="0" type="move" name="bottom"/>
    </contour>
    <contour>
      <point x="681" y="0" type="move" name="bottomright"/>
    </contour>
  </outline>
</glyph>
<glyph name="N" format="1">
  <advance width="664"/>
  <unicode hex="004E"/>
  <outline>
    <contour>
      <point x="514" y="682" type="line"/>
      <point x="544" y="682" type="line"/>
      <point x="544" y="0" type="line"/>
      <point x="506" y="0" type="line"/>
      <point x="146" y="647" type="line"/>
      <point x="148" y="628"/>
      <point x="149" y="576"/>
      <point x="150" y="498"/>
      <point x="150" y="438" type="qcurve" smooth="yes"/>
      <point x="150" y="0" type="line"/>
      <point x="120" y="0" type="line"/>
      <point x="120" y="682" type="line"/>
      <point x="159" y="682" type="line"/>
      <point x="518" y="35" type="line"/>
      <point x="517" y="55"/>
      <point x="515" y="112"/>
      <point x="514" y="186"/>
      <point x="514" y="232" type="qcurve" smooth="yes"/>
    </contour>
    <contour>
      <point x="331" y="680" type="move" name="top"/>
    </contour>
    <contour>
      <point x="321" y="0" type="move" name="bottom"/>
    </contour>
  </outline>
</glyph>
<glyph name="O" format="1">
  <advance width="690"/>
  <unicode hex="004F"/>
  <outline>
    <contour>
      <point x="345" y="692" type="qcurve" smooth="yes"/>
      <point x="426" y="692"/>
      <point x="547" y="612"/>
      <point x="615" y="456"/>
      <point x="615" y="340" type="qcurve" smooth="yes"/>
      <point x="615" y="229"/>
      <point x="549" y="73"/>
      <point x="428" y="-10"/>
      <point x="345" y="-10" type="qcurve" smooth="yes"/>
      <point x="265" y="-10"/>
      <point x="143" y="71"/>
      <point x="75" y="227"/>
      <point x="75" y="339" type="qcurve" smooth="yes"/>
      <point x="75" y="452"/>
      <point x="144" y="610"/>
      <point x="266" y="692"/>
    </contour>
    <contour>
      <point x="345" y="663" type="qcurve" smooth="yes"/>
      <point x="275" y="663"/>
      <point x="167" y="591"/>
      <point x="107" y="447"/>
      <point x="107" y="339" type="qcurve" smooth="yes"/>
      <point x="107" y="234"/>
      <point x="168" y="92"/>
      <point x="275" y="19"/>
      <point x="345" y="19" type="qcurve" smooth="yes"/>
      <point x="456" y="19"/>
      <point x="583" y="182"/>
      <point x="583" y="340" type="qcurve" smooth="yes"/>
      <point x="583" y="502"/>
      <point x="452" y="663"/>
    </contour>
    <contour>
      <point x="422" y="0" type="move" name="ogonek"/>
    </contour>
    <contour>
      <point x="344" y="680" type="move" name="top"/>
    </contour>
    <contour>
      <point x="517" y="680" type="move" name="topright"/>
    </contour>
    <contour>
      <point x="102" y="680" type="move" name="topleft"/>
    </contour>
    <contour>
      <point x="344" y="0" type="move" name="bottom"/>
    </contour>
  </outline>
</glyph>
<glyph name="Q" format="1">
  <advance width="674"/>
  <unicode hex="0051"/>
  <outline>
    <contour>
      <point x="635" y="-58" type="qcurve"/>
      <point x="614" y="-84" type="line"/>
      <point x="578" y="-53"/>
      <point x="500" y="-20"/>
      <point x="405" y="-8"/>
      <point x="345" y="-8" type="qcurve" smooth="yes"/>
      <point x="265" y="-8"/>
      <point x="143" y="72"/>
      <point x="75" y="227"/>
      <point x="75" y="339" type="qcurve" smooth="yes"/>
      <point x="75" y="452"/>
      <point x="144" y="610"/>
      <point x="266" y="692"/>
      <point x="345" y="692" type="qcurve" smooth="yes"/>
      <point x="426" y="692"/>
      <point x="547" y="612"/>
      <point x="615" y="456"/>
      <point x="615" y="340" type="qcurve" smooth="yes"/>
      <point x="615" y="238"/>
      <point x="565" y="102"/>
      <point x="481" y="25"/>
      <point x="429" y="11" type="qcurve"/>
      <point x="483" y="10"/>
      <point x="593" y="-20"/>
    </contour>
    <contour>
      <point x="345" y="19" type="qcurve" smooth="yes"/>
      <point x="456" y="19"/>
      <point x="583" y="182"/>
      <point x="583" y="340" type="qcurve" smooth="yes"/>
      <point x="583" y="502"/>
      <point x="452" y="663"/>
      <point x="345" y="663" type="qcurve" smooth="yes"/>
      <point x="275" y="663"/>
      <point x="167" y="591"/>
      <point x="107" y="447"/>
      <point x="107" y="339" type="qcurve" smooth="yes"/>
      <point x="107" y="234"/>
      <point x="168" y="92"/>
      <point x="275" y="19"/>
    </contour>
    <contour>
      <point x="337" y="680" type="move" name="top"/>
    </contour>
    <contour>
      <point x="337" y="0" type="move" name="bottom"/>
    </contour>
  </outline>
</glyph>
<glyph name="R" format="1">
  <advance width="577"/>
  <unicode hex="0052"/>
  <outline>
    <contour>
      <point x="151" y="0" type="line"/>
      <point x="120" y="0" type="line"/>
      <point x="120" y="682" type="line"/>
      <point x="274" y="682" type="line" smooth="yes"/>
      <point x="354" y="682"/>
      <point x="454" y="640"/>
      <point x="502" y="561"/>
      <point x="502" y="503" type="qcurve" smooth="yes"/>
      <point x="502" y="450"/>
      <point x="463" y="378"/>
      <point x="394" y="336"/>
      <point x="347" y="326" type="qcurve"/>
      <point x="537" y="0" type="line"/>
      <point x="498" y="0" type="line"/>
      <point x="313" y="320" type="line"/>
      <point x="151" y="320" type="line"/>
    </contour>
    <contour>
      <point x="151" y="653" type="line"/>
      <point x="151" y="349" type="line"/>
      <point x="280" y="349" type="line" smooth="yes"/>
      <point x="340" y="349"/>
      <point x="425" y="382"/>
      <point x="470" y="450"/>
      <point x="470" y="503" type="qcurve" smooth="yes"/>
      <point x="470" y="551"/>
      <point x="431" y="618"/>
      <point x="344" y="653"/>
      <point x="270" y="653" type="qcurve" smooth="yes"/>
    </contour>
    <contour>
      <point x="281" y="680" type="move" name="top"/>
    </contour>
    <contour>
      <point x="301" y="0" type="move" name="bottom"/>
    </contour>
  </outline>
</glyph>
<glyph name="S" format="1">
  <advance width="534"/>
  <unicode hex="0053"/>
  <outline>
    <contour>
      <point x="265" y="692" type="qcurve" smooth="yes"/>
      <point x="328" y="692"/>
      <point x="411" y="653"/>
      <point x="448" y="620" type="qcurve"/>
      <point x="428" y="598" type="line"/>
      <point x="391" y="633"/>
      <point x="316" y="663"/>
      <point x="265" y="663" type="qcurve" smooth="yes"/>
      <point x="217" y="663"/>
      <point x="147" y="630"/>
      <point x="108" y="571"/>
      <point x="108" y="533" type="qcurve" smooth="yes"/>
      <point x="108" y="493"/>
      <point x="141" y="439"/>
      <point x="215" y="400"/>
      <point x="275" y="381" type="qcurve" smooth="yes"/>
      <point x="343" y="361"/>
      <point x="428" y="312"/>
      <point x="469" y="239"/>
      <point x="469" y="183" type="qcurve" smooth="yes"/>
      <point x="469" y="125"/>
      <point x="415" y="39"/>
      <point x="319" y="-10"/>
      <point x="257" y="-10" type="qcurve" smooth="yes"/>
      <point x="190" y="-10"/>
      <point x="91" y="36"/>
      <point x="50" y="73" type="qcurve"/>
      <point x="70" y="94" type="line"/>
      <point x="107" y="60"/>
      <point x="193" y="19"/>
      <point x="256" y="19" type="qcurve" smooth="yes"/>
      <point x="311" y="19"/>
      <point x="392" y="59"/>
      <point x="438" y="132"/>
      <point x="438" y="182" type="qcurve" smooth="yes"/>
      <point x="438" y="230"/>
      <point x="404" y="292"/>
      <point x="328" y="335"/>
      <point x="265" y="354" type="qcurve" smooth="yes"/>
      <point x="196" y="376"/>
      <point x="113" y="423"/>
      <point x="77" y="488"/>
      <point x="77" y="533" type="qcurve" smooth="yes"/>
      <point x="77" y="578"/>
      <point x="124" y="650"/>
      <point x="208" y="692"/>
    </contour>
    <contour>
      <point x="273" y="680" type="move" name="top"/>
    </contour>
    <contour>
      <point x="261" y="0" type="move" name="bottom"/>
    </contour>
  </outline>
</glyph>
<glyph name="T" format="1">
  <advance width="477"/>
  <unicode hex="0054"/>
  <outline>
    <contour>
      <point x="15" y="682" type="line"/>
      <point x="467" y="682" type="line"/>
      <point x="462" y="652" type="line"/>
      <point x="254" y="652" type="line"/>
      <point x="254" y="0" type="line"/>
      <point x="223" y="0" type="line"/>
      <point x="223" y="652" type="line"/>
      <point x="15" y="652" type="line"/>
    </contour>
    <contour>
      <point x="236" y="0" type="move" name="bottom"/>
    </contour>
    <contour>
      <point x="236" y="680" type="move" name="top"/>
    </contour>
    <contour>
      <point x="247" y="0" type="move" name="bottomright"/>
    </contour>
    <contour>
      <point x="236" y="340" type="move" name="center"/>
    </contour>
  </outline>
</glyph>
<glyph name="U" format="1">
  <advance width="643"/>
  <unicode hex="0055"/>
  <outline>
    <contour>
      <point x="502" y="682" type="line"/>
      <point x="533" y="682" type="line"/>
      <point x="533" y="208" type="line" smooth="yes"/>
      <point x="533" y="145"/>
      <point x="489" y="46"/>
      <point x="396" y="-10"/>
      <point x="322" y="-10" type="qcurve" smooth="yes"/>
      <point x="248" y="-10"/>
      <point x="154" y="46"/>
      <point x="110" y="145"/>
      <point x="110" y="208" type="qcurve" smooth="yes"/>
      <point x="110" y="682" type="line"/>
      <point x="141" y="682" type="line"/>
      <point x="141" y="211" type="line" smooth="yes"/>
      <point x="141" y="154"/>
      <point x="178" y="68"/>
      <point x="258" y="19"/>
      <point x="322" y="19" type="qcurve" smooth="yes"/>
      <point x="387" y="19"/>
      <point x="466" y="69"/>
      <point x="502" y="156"/>
      <point x="502" y="211" type="qcurve" smooth="yes"/>
    </contour>
    <contour>
      <point x="397" y="0" type="move" name="ogonek"/>
    </contour>
    <contour>
      <point x="317" y="680" type="move" name="top"/>
    </contour>
    <contour>
      <point x="524" y="680" type="move" name="topright"/>
    </contour>
    <contour>
      <point x="317" y="0" type="move" name="bottom"/>
    </contour>
  </outline>
</glyph>
<glyph name="a" format="1">
  <advance width="530"/>
  <unicode hex="0061"/>
  <outline>
    <contour>
      <point x="223" y="-10" type="qcurve" smooth="yes"/>
      <point x="149" y="-10"/>
      <point x="65" y="74"/>
      <point x="65" y="144" type="qcurve" smooth="yes"/>
      <point x="65" y="224"/>
      <point x="178" y="309"/>
      <point x="270" y="309" type="qcurve" smooth="yes"/>
      <point x="386" y="309" type="line"/>
      <point x="386" y="369" type="line" smooth="yes"/>
      <point x="386" y="435"/>
      <point x="330" y="502"/>
      <point x="256" y="502" type="qcurve" smooth="yes"/>
      <point x="222" y="502"/>
      <point x="152" y="485"/>
      <point x="114" y="470" type="qcurve"/>
      <point x="105" y="496" type="line"/>
      <point x="144" y="512"/>
      <point x="217" y="530"/>
      <point x="256" y="530" type="qcurve" smooth="yes"/>
      <point x="340" y="530"/>
      <point x="416" y="450"/>
      <point x="416" y="372" type="qcurve" smooth="yes"/>
      <point x="416" y="110" type="line" smooth="yes"/>
      <point x="416" y="59"/>
      <point x="438" y="20"/>
      <point x="460" y="11" type="qcurve"/>
      <point x="453" y="-10" type="line"/>
      <point x="423" y="-1"/>
      <point x="392" y="42"/>
      <point x="390" y="86" type="qcurve"/>
      <point x="362" y="39"/>
      <point x="279" y="-10"/>
    </contour>
    <contour>
      <point x="223" y="18" type="qcurve" smooth="yes"/>
      <point x="282" y="18"/>
      <point x="361" y="74"/>
      <point x="386" y="122" type="qcurve"/>
      <point x="386" y="282" type="line"/>
      <point x="276" y="282" type="line" smooth="yes"/>
      <point x="193" y="282"/>
      <point x="97" y="214"/>
      <point x="97" y="144" type="qcurve" smooth="yes"/>
      <point x="97" y="84"/>
      <point x="165" y="18"/>
    </contour>
    <contour>
      <point x="457" y="-9" type="move" name="ogonek"/>
    </contour>
    <contour>
      <point x="250" y="0" type="move" name="bottom"/>
    </contour>
    <contour>
      <point x="250" y="517" type="move" name="top"/>
    </contour>
  </outline>
</glyph>
<glyph name="c" format="1">
  <advance width="462"/>
  <unicode hex="0063"/>
  <outline>
    <contour>
      <point x="284" y="530" type="qcurve" smooth="yes"/>
      <point x="326" y="530"/>
      <point x="390" y="506"/>
      <point x="421" y="480" type="qcurve"/>
      <point x="404" y="459" type="line"/>
      <point x="380" y="480"/>
      <point x="323" y="502"/>
      <point x="285" y="502" type="qcurve" smooth="yes"/>
      <point x="206" y="502"/>
      <point x="102" y="379"/>
      <point x="102" y="257" type="qcurve" smooth="yes"/>
      <point x="102" y="178"/>
      <point x="149" y="71"/>
      <point x="232" y="18"/>
      <point x="284" y="18" type="qcurve" smooth="yes"/>
      <point x="323" y="18"/>
      <point x="384" y="43"/>
      <point x="409" y="65" type="qcurve"/>
      <point x="427" y="44" type="line"/>
      <point x="399" y="19"/>
      <point x="329" y="-10"/>
      <point x="286" y="-10" type="qcurve" smooth="yes"/>
      <point x="222" y="-10"/>
      <point x="124" y="53"/>
      <point x="70" y="172"/>
      <point x="70" y="257" type="qcurve" smooth="yes"/>
      <point x="70" y="342"/>
      <point x="124" y="464"/>
      <point x="220" y="530"/>
    </contour>
    <contour>
      <point x="269" y="517" type="move" name="top"/>
    </contour>
    <contour>
      <point x="285" y="-1" type="move" name="bottom"/>
    </contour>
  </outline>
</glyph>
<glyph name="e" format="1">
  <advance width="529"/>
  <unicode hex="0065"/>
  <outline>
    <contour>
      <point x="271" y="530" type="qcurve" smooth="yes"/>
      <point x="336" y="530"/>
      <point x="422" y="468"/>
      <point x="464" y="357"/>
      <point x="464" y="283" type="qcurve" smooth="yes"/>
      <point x="464" y="272"/>
      <point x="463" y="251"/>
      <point x="462" y="244" type="qcurve"/>
      <point x="96" y="244" type="line"/>
      <point x="96" y="270" type="line"/>
      <point x="434" y="270" type="line"/>
      <point x="434" y="275"/>
      <point x="434" y="284"/>
      <point x="434" y="294" type="qcurve" smooth="yes"/>
      <point x="434" y="355"/>
      <point x="400" y="449"/>
      <point x="329" y="502"/>
      <point x="273" y="502" type="qcurve" smooth="yes"/>
      <point x="227" y="502"/>
      <point x="148" y="451"/>
      <point x="101" y="342"/>
      <point x="101" y="256" type="qcurve" smooth="yes"/>
      <point x="103" y="174"/>
      <point x="150" y="68"/>
      <point x="231" y="18"/>
      <point x="282" y="18" type="qcurve" smooth="yes"/>
      <point x="328" y="18"/>
      <point x="392" y="47"/>
      <point x="426" y="74" type="qcurve"/>
      <point x="443" y="52" type="line"/>
      <point x="409" y="23"/>
      <point x="332" y="-10"/>
      <point x="282" y="-10" type="qcurve" smooth="yes"/>
      <point x="218" y="-10"/>
      <point x="122" y="53"/>
      <point x="70" y="172"/>
      <point x="70" y="256" type="qcurve" smooth="yes"/>
      <point x="70" y="341"/>
      <point x="120" y="464"/>
      <point x="211" y="530"/>
    </contour>
    <contour>
      <point x="364" y="4" type="move" name="ogonek"/>
    </contour>
    <contour>
      <point x="276" y="0" type="move" name="bottom"/>
    </contour>
    <contour>
      <point x="276" y="517" type="move" name="top"/>
    </contour>
  </outline>
</glyph>
<glyph name="f" format="1">
  <advance width="310"/>
  <unicode hex="0066"/>
  <outline>
    <contour>
      <point x="148" y="0" type="line"/>
      <point x="118" y="0" type="line"/>
      <point x="118" y="493" type="line"/>
      <point x="30" y="493" type="line"/>
      <point x="30" y="520" type="line"/>
      <point x="118" y="520" type="line"/>
      <point x="118" y="617" type="line" smooth="yes"/>
      <point x="118" y="656"/>
      <point x="150" y="710"/>
      <point x="209" y="738"/>
      <point x="247" y="738" type="qcurve" smooth="yes"/>
      <point x="278" y="738"/>
      <point x="339" y="723"/>
      <point x="365" y="709" type="qcurve"/>
      <point x="353" y="685" type="line"/>
      <point x="328" y="697"/>
      <point x="277" y="710"/>
      <point x="249" y="710" type="qcurve" smooth="yes"/>
      <point x="203" y="710"/>
      <point x="148" y="666"/>
      <point x="148" y="613" type="qcurve" smooth="yes"/>
      <point x="148" y="520" type="line"/>
      <point x="294" y="520" type="line"/>
      <point x="289" y="493" type="line"/>
      <point x="148" y="493" type="line"/>
    </contour>
    <contour>
      <point x="240" y="727" type="move" name="top"/>
    </contour>
    <contour>
      <point x="128" y="0" type="move" name="bottom"/>
    </contour>
  </outline>
</glyph>
<glyph name="g" format="1">
  <advance width="489"/>
  <unicode hex="0067"/>
  <outline>
    <contour>
      <point x="251" y="-199" type="qcurve" smooth="yes"/>
      <point x="178" y="-199"/>
      <point x="84" y="-171"/>
      <point x="40" y="-108"/>
      <point x="40" y="-57" type="qcurve"/>
      <point x="70" y="-57" type="line"/>
      <point x="71" y="-99"/>
      <point x="106" y="-149"/>
      <point x="185" y="-171"/>
      <point x="251" y="-171" type="qcurve" smooth="yes"/>
      <point x="315" y="-171"/>
      <point x="394" y="-143"/>
      <point x="430" y="-93"/>
      <point x="430" y="-58" type="qcurve" smooth="yes"/>
      <point x="430" y="-12"/>
      <point x="363" y="39"/>
      <point x="302" y="39" type="qcurve" smooth="yes"/>
      <point x="216" y="39" type="line" smooth="yes"/>
      <point x="155" y="39"/>
      <point x="92" y="89"/>
      <point x="92" y="125" type="qcurve" smooth="yes"/>
      <point x="92" y="152"/>
      <point x="124" y="194"/>
      <point x="149" y="210" type="qcurve"/>
      <point x="106" y="233"/>
      <point x="62" y="306"/>
      <point x="62" y="359" type="qcurve" smooth="yes"/>
      <point x="62" y="410"/>
      <point x="106" y="487"/>
      <point x="188" y="530"/>
      <point x="244" y="530" type="qcurve" smooth="yes"/>
      <point x="300" y="530"/>
      <point x="371" y="532"/>
      <point x="416" y="539"/>
      <point x="448" y="547"/>
      <point x="464" y="553" type="qcurve"/>
      <point x="474" y="520" type="line"/>
      <point x="452" y="514"/>
      <point x="387" y="507"/>
      <point x="337" y="506" type="qcurve"/>
      <point x="375" y="488"/>
      <point x="423" y="417"/>
      <point x="423" y="356" type="qcurve" smooth="yes"/>
      <point x="423" y="306"/>
      <point x="380" y="230"/>
      <point x="299" y="189"/>
      <point x="243" y="189" type="qcurve" smooth="yes"/>
      <point x="224" y="189"/>
      <point x="188" y="195"/>
      <point x="174" y="200" type="qcurve"/>
      <point x="150" y="187"/>
      <point x="123" y="152"/>
      <point x="123" y="130" type="qcurve" smooth="yes"/>
      <point x="123" y="103"/>
      <point x="166" y="67"/>
      <point x="218" y="67" type="qcurve" smooth="yes"/>
      <point x="304" y="67" type="line" smooth="yes"/>
      <point x="379" y="67"/>
      <point x="461" y="-1"/>
      <point x="461" y="-56" type="qcurve" smooth="yes"/>
      <point x="461" y="-122"/>
      <point x="359" y="-199"/>
    </contour>
    <contour>
      <point x="243" y="216" type="qcurve" smooth="yes"/>
      <point x="314" y="216"/>
      <point x="392" y="289"/>
      <point x="392" y="356" type="qcurve" smooth="yes"/>
      <point x="392" y="399"/>
      <point x="360" y="465"/>
      <point x="295" y="503"/>
      <point x="245" y="503" type="qcurve" smooth="yes"/>
      <point x="193" y="503"/>
      <point x="126" y="466"/>
      <point x="93" y="401"/>
      <point x="93" y="359" type="qcurve" smooth="yes"/>
      <point x="93" y="312"/>
      <point x="132" y="248"/>
      <point x="200" y="216"/>
    </contour>
    <contour>
      <point x="244" y="517" type="move" name="top"/>
    </contour>
    <contour>
      <point x="252" y="-188" type="move" name="bottom"/>
    </contour>
  </outline>
</glyph>
<glyph name="h" format="1">
  <advance width="582"/>
  <unicode hex="0068"/>
  <outline>
    <contour>
      <point x="145" y="0" type="line"/>
      <point x="115" y="0" type="line"/>
      <point x="115" y="734" type="line"/>
      <point x="145" y="739" type="line"/>
      <point x="145" y="421" type="line"/>
      <point x="180" y="470"/>
      <point x="271" y="530"/>
      <point x="332" y="530" type="qcurve" smooth="yes"/>
      <point x="402" y="530"/>
      <point x="472" y="445"/>
      <point x="472" y="370" type="qcurve" smooth="yes"/>
      <point x="472" y="0" type="line"/>
      <point x="442" y="0" type="line"/>
      <point x="442" y="366" type="line" smooth="yes"/>
      <point x="442" y="434"/>
      <point x="387" y="503"/>
      <point x="331" y="503" type="qcurve" smooth="yes"/>
      <point x="270" y="503"/>
      <point x="182" y="436"/>
      <point x="145" y="383" type="qcurve"/>
    </contour>
    <contour>
      <point x="293" y="260" type="move" name="center"/>
    </contour>
    <contour>
      <point x="293" y="0" type="move" name="bottom"/>
    </contour>
    <contour>
      <point x="293" y="727" type="move" name="top"/>
    </contour>
  </outline>
</glyph>
<glyph name="l" format="1">
  <advance width="277"/>
  <unicode hex="006C"/>
  <outline>
    <contour>
      <point x="188" y="-10" type="qcurve" smooth="yes"/>
      <point x="154" y="-10"/>
      <point x="110" y="30"/>
      <point x="110" y="75" type="qcurve" smooth="yes"/>
      <point x="110" y="734" type="line"/>
      <point x="140" y="738" type="line"/>
      <point x="140" y="76" type="line" smooth="yes"/>
      <point x="140" y="47"/>
      <point x="165" y="18"/>
      <point x="189" y="18" type="qcurve" smooth="yes"/>
      <point x="200" y="18"/>
      <point x="219" y="22"/>
      <point x="228" y="26" type="qcurve"/>
      <point x="237" y="1" type="line"/>
      <point x="227" y="-4"/>
      <point x="202" y="-10"/>
    </contour>
    <contour>
      <point x="174" y="0" type="move" name="bottom"/>
    </contour>
    <contour>
      <point x="121" y="730" type="move" name="top"/>
    </contour>
    <contour>
      <point x="182" y="727" type="move" name="topright"/>
    </contour>
    <contour>
      <point x="256" y="375" type="move" name="center"/>
    </contour>
  </outline>
</glyph>
<glyph name="m" format="1">
  <advance width="849"/>
  <unicode hex="006D"/>
  <outline>
    <contour>
      <point x="145" y="0" type="line"/>
      <point x="115" y="0" type="line"/>
      <point x="115" y="520" type="line"/>
      <point x="141" y="520" type="line"/>
      <point x="144" y="422" type="line"/>
      <point x="176" y="470"/>
      <point x="262" y="530"/>
      <point x="312" y="530" type="qcurve" smooth="yes"/>
      <point x="364" y="530"/>
      <point x="428" y="471"/>
      <point x="438" y="418" type="qcurve"/>
      <point x="470" y="468"/>
      <point x="558" y="530"/>
      <point x="609" y="530" type="qcurve" smooth="yes"/>
      <point x="671" y="530"/>
      <point x="739" y="445"/>
      <point x="739" y="370" type="qcurve" smooth="yes"/>
      <point x="739" y="0" type="line"/>
      <point x="709" y="0" type="line"/>
      <point x="709" y="366" type="line" smooth="yes"/>
      <point x="709" y="434"/>
      <point x="657" y="503"/>
      <point x="608" y="503" type="qcurve" smooth="yes"/>
      <point x="557" y="503"/>
      <point x="474" y="436"/>
      <point x="442" y="383" type="qcurve"/>
      <point x="442" y="0" type="line"/>
      <point x="412" y="0" type="line"/>
      <point x="412" y="366" type="line" smooth="yes"/>
      <point x="412" y="434"/>
      <point x="361" y="503"/>
      <point x="311" y="503" type="qcurve" smooth="yes"/>
      <point x="260" y="503"/>
      <point x="177" y="436"/>
      <point x="145" y="383" type="qcurve"/>
    </contour>
    <contour>
      <point x="423" y="517" type="move" name="top"/>
    </contour>
    <contour>
      <point x="423" y="0" type="move" name="bottom"/>
    </contour>
  </outline>
</glyph>
<glyph name="o" format="1">
  <advance width="561"/>
  <unicode hex="006F"/>
  <outline>
    <contour>
      <point x="280" y="-10" type="qcurve" smooth="yes"/>
      <point x="183" y="-10"/>
      <point x="70" y="133"/>
      <point x="70" y="259" type="qcurve" smooth="yes"/>
      <point x="70" y="345"/>
      <point x="123" y="466"/>
      <point x="218" y="530"/>
      <point x="281" y="530" type="qcurve" smooth="yes"/>
      <point x="378" y="530"/>
      <point x="491" y="393"/>
      <point x="491" y="262" type="qcurve" smooth="yes"/>
      <point x="491" y="176"/>
      <point x="439" y="54"/>
      <point x="344" y="-10"/>
    </contour>
    <contour>
      <point x="280" y="18" type="qcurve" smooth="yes"/>
      <point x="363" y="18"/>
      <point x="460" y="143"/>
      <point x="460" y="262" type="qcurve" smooth="yes"/>
      <point x="460" y="379"/>
      <point x="365" y="502"/>
      <point x="281" y="502" type="qcurve" smooth="yes"/>
      <point x="199" y="502"/>
      <point x="101" y="379"/>
      <point x="101" y="259" type="qcurve" smooth="yes"/>
      <point x="101" y="144"/>
      <point x="197" y="18"/>
    </contour>
    <contour>
      <point x="348" y="0" type="move" name="ogonek"/>
    </contour>
    <contour>
      <point x="280" y="517" type="move" name="top"/>
    </contour>
    <contour>
      <point x="431" y="517" type="move" name="topright"/>
    </contour>
    <contour>
      <point x="280" y="0" type="move" name="bottom"/>
    </contour>
  </outline>
</glyph>
<glyph name="p" format="1">
  <advance width="570"/>
  <unicode hex="0070"/>
  <outline>
    <contour>
      <point x="145" y="-193" type="line"/>
      <point x="115" y="-199" type="line"/>
      <point x="115" y="520" type="line"/>
      <point x="141" y="520" type="line"/>
      <point x="143" y="440" type="line"/>
      <point x="172" y="479"/>
      <point x="254" y="530"/>
      <point x="309" y="530" type="qcurve" smooth="yes"/>
      <point x="399" y="530"/>
      <point x="495" y="393"/>
      <point x="495" y="264" type="qcurve" smooth="yes"/>
      <point x="495" y="179"/>
      <point x="451" y="56"/>
      <point x="366" y="-10"/>
      <point x="303" y="-10" type="qcurve" smooth="yes"/>
      <point x="249" y="-10"/>
      <point x="169" y="40"/>
      <point x="145" y="72" type="qcurve"/>
    </contour>
    <contour>
      <point x="302" y="18" type="qcurve" smooth="yes"/>
      <point x="381" y="18"/>
      <point x="464" y="145"/>
      <point x="464" y="264" type="qcurve" smooth="yes"/>
      <point x="464" y="343"/>
      <point x="429" y="449"/>
      <point x="360" y="502"/>
      <point x="309" y="502" type="qcurve" smooth="yes"/>
      <point x="252" y="502"/>
      <point x="178" y="450"/>
      <point x="145" y="406" type="qcurve"/>
      <point x="145" y="110" type="line"/>
      <point x="173" y="70"/>
      <point x="250" y="18"/>
    </contour>
    <contour>
      <point x="284" y="517" type="move" name="top"/>
    </contour>
    <contour>
      <point x="284" y="-188" type="move" name="bottom"/>
    </contour>
  </outline>
</glyph>
<glyph name="q" format="1">
  <advance width="570"/>
  <unicode hex="0071"/>
  <outline>
    <contour>
      <point x="426" y="453" type="qcurve"/>
      <point x="429" y="520" type="line"/>
      <point x="455" y="520" type="line"/>
      <point x="455" y="-199" type="line"/>
      <point x="425" y="-193" type="line"/>
      <point x="425" y="84" type="line"/>
      <point x="404" y="47"/>
      <point x="328" y="-10"/>
      <point x="264" y="-10" type="qcurve" smooth="yes"/>
      <point x="176" y="-10"/>
      <point x="70" y="132"/>
      <point x="70" y="258" type="qcurve" smooth="yes"/>
      <point x="70" y="339"/>
      <point x="119" y="461"/>
      <point x="211" y="530"/>
      <point x="275" y="530" type="qcurve" smooth="yes"/>
      <point x="315" y="530"/>
      <point x="373" y="507"/>
      <point x="413" y="472"/>
    </contour>
    <contour>
      <point x="265" y="18" type="qcurve" smooth="yes"/>
      <point x="324" y="18"/>
      <point x="398" y="76"/>
      <point x="425" y="129" type="qcurve"/>
      <point x="425" y="416" type="line"/>
      <point x="410" y="439"/>
      <point x="368" y="478"/>
      <point x="313" y="502"/>
      <point x="276" y="502" type="qcurve" smooth="yes"/>
      <point x="225" y="502"/>
      <point x="145" y="444"/>
      <point x="101" y="335"/>
      <point x="101" y="258" type="qcurve" smooth="yes"/>
      <point x="102" y="182"/>
      <point x="142" y="75"/>
      <point x="215" y="18"/>
    </contour>
    <contour>
      <point x="284" y="517" type="move" name="top"/>
    </contour>
    <contour>
      <point x="284" y="-188" type="move" name="bottom"/>
    </contour>
  </outline>
</glyph>
<glyph name="u" format="1">
  <advance width="577"/>
  <unicode hex="0075"/>
  <outline>
    <contour>
      <point x="432" y="520" type="line"/>
      <point x="462" y="520" type="line"/>
      <point x="462" y="0" type="line"/>
      <point x="436" y="0" type="line"/>
      <point x="435" y="102" type="line"/>
      <point x="410" y="56"/>
      <point x="323" y="-10"/>
      <point x="258" y="-10" type="qcurve" smooth="yes"/>
      <point x="188" y="-10"/>
      <point x="110" y="72"/>
      <point x="110" y="149" type="qcurve" smooth="yes"/>
      <point x="110" y="520" type="line"/>
      <point x="140" y="520" type="line"/>
      <point x="140" y="151" type="line" smooth="yes"/>
      <point x="140" y="82"/>
      <point x="204" y="18"/>
      <point x="262" y="18" type="qcurve" smooth="yes"/>
      <point x="321" y="18"/>
      <point x="402" y="86"/>
      <point x="432" y="138" type="qcurve"/>
    </contour>
    <contour>
      <point x="460" y="0" type="move" name="ogonek"/>
    </contour>
    <contour>
      <point x="290" y="517" type="move" name="top"/>
    </contour>
    <contour>
      <point x="460" y="517" type="move" name="topright"/>
    </contour>
    <contour>
      <point x="290" y="0" type="move" name="bottom"/>
    </contour>
  </outline>
</glyph>
<glyph name="y" format="1">
  <advance width="448"/>
  <unicode hex="0079"/>
  <outline>
    <contour>
      <point x="394" y="520" type="line"/>
      <point x="428" y="520" type="line"/>
      <point x="245" y="-2" type="line" smooth="yes"/>
      <point x="225" y="-60"/>
      <point x="181" y="-134"/>
      <point x="114" y="-181"/>
      <point x="58" y="-197" type="qcurve"/>
      <point x="54" y="-173" type="line"/>
      <point x="106" y="-158"/>
      <point x="163" y="-115"/>
      <point x="199" y="-50"/>
      <point x="217" y="0" type="qcurve"/>
      <point x="205" y="0" type="line"/>
      <point x="20" y="520" type="line"/>
      <point x="53" y="520" type="line"/>
      <point x="226" y="23" type="line"/>
    </contour>
    <contour>
      <point x="217" y="517" type="move" name="top"/>
    </contour>
    <contour>
      <point x="226" y="-188" type="move" name="bottom"/>
    </contour>
  </outline>
</glyph>
<glyph name="braceleft" format="1">
  <advance width="329"/>
  <unicode hex="007B"/>
  <outline>
    <contour>
      <point x="249" y="822" type="qcurve"/>
      <point x="249" y="799" type="line"/>
      <point x="204" y="799"/>
      <point x="168" y="755"/>
      <point x="168" y="711" type="qcurve" smooth="yes"/>
      <point x="168" y="446" type="line" smooth="yes"/>
      <point x="168" y="397"/>
      <point x="131" y="357"/>
      <point x="93" y="349" type="qcurve"/>
      <point x="131" y="342"/>
      <point x="168" y="302"/>
      <point x="168" y="252" type="qcurve" smooth="yes"/>
      <point x="168" y="-13" type="line" smooth="yes"/>
      <point x="168" y="-57"/>
      <point x="204" y="-101"/>
      <point x="249" y="-101" type="qcurve"/>
      <point x="249" y="-124" type="line"/>
      <point x="216" y="-124"/>
      <point x="168" y="-102"/>
      <point x="141" y="-55"/>
      <point x="141" y="-18" type="qcurve" smooth="yes"/>
      <point x="141" y="264" type="line" smooth="yes"/>
      <point x="141" y="304"/>
      <point x="95" y="335"/>
      <point x="60" y="335" type="qcurve"/>
      <point x="60" y="363" type="line"/>
      <point x="95" y="363"/>
      <point x="141" y="394"/>
      <point x="141" y="434" type="qcurve" smooth="yes"/>
      <point x="141" y="716" type="line" smooth="yes"/>
      <point x="141" y="753"/>
      <point x="168" y="800"/>
      <point x="216" y="822"/>
    </contour>
  </outline>
</glyph>
<glyph name="braceright" format="1">
  <advance width="329"/>
  <unicode hex="007D"/>
  <outline>
    <contour>
      <point x="80" y="799" type="qcurve"/>
      <point x="80" y="822" type="line"/>
      <point x="113" y="822"/>
      <point x="162" y="800"/>
      <point x="188" y="753"/>
      <point x="188" y="716" type="qcurve" smooth="yes"/>
      <point x="188" y="434" type="line" smooth="yes"/>
      <point x="188" y="394"/>
      <point x="234" y="363"/>
      <point x="269" y="363" type="qcurve"/>
      <point x="269" y="335" type="line"/>
      <point x="234" y="335"/>
      <point x="188" y="304"/>
      <point x="188" y="264" type="qcurve" smooth="yes"/>
      <point x="188" y="-18" type="line" smooth="yes"/>
      <point x="188" y="-55"/>
      <point x="162" y="-102"/>
      <point x="113" y="-124"/>
      <point x="80" y="-124" type="qcurve"/>
      <point x="80" y="-101" type="line"/>
      <point x="125" y="-101"/>
      <point x="161" y="-57"/>
      <point x="161" y="-13" type="qcurve" smooth="yes"/>
      <point x="161" y="252" type="line" smooth="yes"/>
      <point x="161" y="302"/>
      <point x="198" y="342"/>
      <point x="236" y="349" type="qcurve"/>
      <point x="198" y="357"/>
      <point x="161" y="397"/>
      <point x="161" y="446" type="qcurve" smooth="yes"/>
      <point x="161" y="711" type="line" smooth="yes"/>
      <point x="161" y="755"/>
      <point x="125" y="799"/>
    </contour>
  </outline>
</glyph>
<glyph name="asciitilde" format="1">
  <advance width="458"/>
  <unicode hex="007E"/>
  <outline>
    <contour>
      <point x="307" y="275" type="qcurve" smooth="yes"/>
      <point x="287" y="275"/>
      <point x="247" y="292"/>
      <point x="209" y="313"/>
      <point x="172" y="330"/>
      <point x="154" y="330" type="qcurve" smooth="yes"/>
      <point x="129" y="330"/>
      <point x="101" y="308"/>
      <point x="85" y="289" type="qcurve"/>
      <point x="65" y="301" type="line"/>
      <point x="78" y="319"/>
      <point x="102" y="346"/>
      <point x="133" y="360"/>
      <point x="154" y="360" type="qcurve" smooth="yes"/>
      <point x="176" y="360"/>
      <point x="216" y="343"/>
      <point x="253" y="322"/>
      <point x="289" y="305"/>
      <point x="307" y="305" type="qcurve" smooth="yes"/>
      <point x="331" y="305"/>
      <point x="357" y="327"/>
      <point x="373" y="346" type="qcurve"/>
      <point x="393" y="334" type="line"/>
      <point x="381" y="316"/>
      <point x="356" y="290"/>
      <point x="327" y="275"/>
    </contour>
    <contour>
      <point x="360" y="332" type="move" name="_center"/>
    </contour>
  </outline>
</glyph>
<glyph name="exclamdown" format="1">
  <advance width="240"/>
  <unicode hex="00A1"/>
  <outline>
    <contour>
      <point x="106" y="251" type="line"/>
      <point x="135" y="251" type="line"/>
      <point x="135" y="-193" type="line"/>
      <point x="106" y="-193" type="line"/>
    </contour>
    <contour>
      <point x="120" y="458" type="qcurve" smooth="yes"/>
      <point x="134" y="458"/>
      <point x="150" y="441"/>
      <point x="150" y="429" type="qcurve" smooth="yes"/>
      <point x="150" y="416"/>
      <point x="134" y="399"/>
      <point x="120" y="399" type="qcurve" smooth="yes"/>
      <point x="106" y="399"/>
      <point x="90" y="416"/>
      <point x="90" y="429" type="qcurve" smooth="yes"/>
      <point x="90" y="441"/>
      <point x="106" y="458"/>
    </contour>
  </outline>
</glyph>
<glyph name="cent" format="1">
  <advance width="462"/>
  <unicode hex="00A2"/>
  <outline>
    <contour>
      <point x="296" y="-147" type="line"/>
      <point x="269" y="-147" type="line"/>
      <point x="269" y="-9" type="line"/>
      <point x="209" y="-5"/>
      <point x="120" y="60"/>
      <point x="70" y="176"/>
      <point x="70" y="257" type="qcurve" smooth="yes"/>
      <point x="70" y="339"/>
      <point x="120" y="458"/>
      <point x="210" y="526"/>
      <point x="270" y="530" type="qcurve"/>
      <point x="270" y="677" type="line"/>
      <point x="296" y="677" type="line"/>
      <point x="296" y="530" type="line"/>
      <point x="334" y="529"/>
      <point x="393" y="504"/>
      <point x="421" y="480" type="qcurve"/>
      <point x="404" y="459" type="line"/>
      <point x="380" y="480"/>
      <point x="323" y="502"/>
      <point x="285" y="502" type="qcurve" smooth="yes"/>
      <point x="206" y="502"/>
      <point x="102" y="379"/>
      <point x="102" y="257" type="qcurve" smooth="yes"/>
      <point x="102" y="178"/>
      <point x="149" y="71"/>
      <point x="232" y="18"/>
      <point x="284" y="18" type="qcurve" smooth="yes"/>
      <point x="323" y="18"/>
      <point x="384" y="43"/>
      <point x="409" y="65" type="qcurve"/>
      <point x="427" y="44" type="line"/>
      <point x="401" y="21"/>
      <point x="336" y="-8"/>
      <point x="296" y="-10" type="qcurve"/>
    </contour>
    <contour>
      <point x="269" y="517" type="move" name="top"/>
    </contour>
    <contour>
      <point x="285" y="-1" type="move" name="bottom"/>
    </contour>
  </outline>
</glyph>
<glyph name="sterling" format="1">
  <advance width="505"/>
  <unicode hex="00A3"/>
  <outline>
    <contour>
      <point x="434" y="0" type="line"/>
      <point x="60" y="0" type="line"/>
      <point x="60" y="28" type="line"/>
      <point x="90" y="43"/>
      <point x="127" y="72"/>
      <point x="144" y="112"/>
      <point x="144" y="142" type="qcurve" smooth="yes"/>
      <point x="144" y="339" type="line"/>
      <point x="79" y="339" type="line"/>
      <point x="79" y="367" type="line"/>
      <point x="144" y="367" type="line"/>
      <point x="144" y="505" type="line" smooth="yes"/>
      <point x="144" y="552"/>
      <point x="179" y="628"/>
      <point x="249" y="674"/>
      <point x="302" y="674" type="qcurve" smooth="yes"/>
      <point x="350" y="674"/>
      <point x="420" y="640"/>
      <point x="450" y="605" type="qcurve"/>
      <point x="429" y="586" type="line"/>
      <point x="404" y="615"/>
      <point x="346" y="646"/>
      <point x="302" y="646" type="qcurve" smooth="yes"/>
      <point x="238" y="646"/>
      <point x="174" y="565"/>
      <point x="174" y="504" type="qcurve" smooth="yes"/>
      <point x="174" y="367" type="line"/>
      <point x="393" y="367" type="line"/>
      <point x="393" y="339" type="line"/>
      <point x="174" y="339" type="line"/>
      <point x="174" y="144" type="line" smooth="yes"/>
      <point x="174" y="94"/>
      <point x="139" y="47"/>
      <point x="103" y="29" type="qcurve"/>
      <point x="438" y="29" type="line"/>
    </contour>
  </outline>
</glyph>
<glyph name="currency" format="1">
  <advance width="560"/>
  <unicode hex="00A4"/>
  <outline>
    <contour>
      <point x="169" y="195" type="qcurve"/>
      <point x="86" y="113" type="line"/>
      <point x="66" y="133" type="line"/>
      <point x="148" y="215" type="line"/>
      <point x="127" y="239"/>
      <point x="105" y="304"/>
      <point x="105" y="341" type="qcurve" smooth="yes"/>
      <point x="105" y="377"/>
      <point x="127" y="441"/>
      <point x="148" y="465" type="qcurve"/>
      <point x="66" y="546" type="line"/>
      <point x="86" y="566" type="line"/>
      <point x="168" y="485" type="line"/>
      <point x="190" y="504"/>
      <point x="247" y="524"/>
      <point x="281" y="524" type="qcurve" smooth="yes"/>
      <point x="316" y="524"/>
      <point x="372" y="504"/>
      <point x="394" y="486" type="qcurve"/>
      <point x="474" y="566" type="line"/>
      <point x="494" y="546" type="line"/>
      <point x="414" y="467" type="line"/>
      <point x="435" y="442"/>
      <point x="457" y="378"/>
      <point x="457" y="341" type="qcurve" smooth="yes"/>
      <point x="457" y="304"/>
      <point x="435" y="238"/>
      <point x="413" y="213" type="qcurve"/>
      <point x="494" y="133" type="line"/>
      <point x="474" y="113" type="line"/>
      <point x="392" y="194" type="line"/>
      <point x="371" y="177"/>
      <point x="315" y="157"/>
      <point x="281" y="157" type="qcurve" smooth="yes"/>
      <point x="247" y="157"/>
      <point x="190" y="177"/>
    </contour>
    <contour>
      <point x="281" y="184" type="qcurve" smooth="yes"/>
      <point x="331" y="184"/>
      <point x="395" y="225"/>
      <point x="427" y="296"/>
      <point x="427" y="340" type="qcurve" smooth="yes"/>
      <point x="427" y="386"/>
      <point x="395" y="456"/>
      <point x="331" y="497"/>
      <point x="281" y="497" type="qcurve" smooth="yes"/>
      <point x="233" y="497"/>
      <point x="168" y="456"/>
      <point x="135" y="386"/>
      <point x="135" y="340" type="qcurve" smooth="yes"/>
      <point x="135" y="295"/>
      <point x="168" y="224"/>
      <point x="233" y="184"/>
    </contour>
  </outline>
</glyph>
<glyph name="section" format="1">
  <advance width="532"/>
  <unicode hex="00A7"/>
  <outline>
    <contour>
      <point x="271" y="673" type="qcurve" smooth="yes"/>
      <point x="321" y="673"/>
      <point x="389" y="648"/>
      <point x="420" y="628" type="qcurve"/>
      <point x="404" y="605" type="line"/>
      <point x="372" y="625"/>
      <point x="311" y="645"/>
      <point x="270" y="645" type="qcurve" smooth="yes"/>
      <point x="235" y="645"/>
      <point x="182" y="618"/>
      <point x="153" y="573"/>
      <point x="153" y="546" type="qcurve" smooth="yes"/>
      <point x="153" y="519"/>
      <point x="174" y="481"/>
      <point x="232" y="450"/>
      <point x="288" y="431" type="qcurve" smooth="yes"/>
      <point x="343" y="413"/>
      <point x="408" y="373"/>
      <point x="437" y="322"/>
      <point x="437" y="285" type="qcurve" smooth="yes"/>
      <point x="437" y="245"/>
      <point x="394" y="180"/>
      <point x="341" y="150" type="qcurve"/>
      <point x="323" y="165" type="line"/>
      <point x="371" y="193"/>
      <point x="406" y="248"/>
      <point x="406" y="284" type="qcurve" smooth="yes"/>
      <point x="406" y="311"/>
      <point x="388" y="352"/>
      <point x="335" y="388"/>
      <point x="280" y="406" type="qcurve" smooth="yes"/>
      <point x="219" y="427"/>
      <point x="150" y="465"/>
      <point x="122" y="511"/>
      <point x="122" y="545" type="qcurve" smooth="yes"/>
      <point x="122" y="584"/>
      <point x="162" y="641"/>
      <point x="230" y="673"/>
    </contour>
    <contour>
      <point x="191" y="459" type="qcurve"/>
      <point x="209" y="444" type="line"/>
      <point x="165" y="416"/>
      <point x="126" y="358"/>
      <point x="126" y="323" type="qcurve" smooth="yes"/>
      <point x="126" y="293"/>
      <point x="148" y="253"/>
      <point x="209" y="220"/>
      <point x="265" y="200" type="qcurve" smooth="yes"/>
      <point x="317" y="182"/>
      <point x="382" y="148"/>
      <point x="413" y="101"/>
      <point x="413" y="63" type="qcurve" smooth="yes"/>
      <point x="413" y="24"/>
      <point x="372" y="-34"/>
      <point x="301" y="-66"/>
      <point x="256" y="-66" type="qcurve" smooth="yes"/>
      <point x="206" y="-66"/>
      <point x="132" y="-42"/>
      <point x="97" y="-21" type="qcurve"/>
      <point x="113" y="3" type="line"/>
      <point x="144" y="-18"/>
      <point x="213" y="-38"/>
      <point x="256" y="-38" type="qcurve" smooth="yes"/>
      <point x="317" y="-38"/>
      <point x="382" y="19"/>
      <point x="382" y="61" type="qcurve" smooth="yes"/>
      <point x="382" y="88"/>
      <point x="363" y="125"/>
      <point x="310" y="157"/>
      <point x="257" y="175" type="qcurve" smooth="yes"/>
      <point x="203" y="194"/>
      <point x="131" y="231"/>
      <point x="95" y="282"/>
      <point x="95" y="322" type="qcurve" smooth="yes"/>
      <point x="95" y="362"/>
      <point x="143" y="429"/>
    </contour>
  </outline>
</glyph>
<glyph name="dieresis" format="1">
  <advance width="284"/>
  <unicode hex="00A8"/>
  <outline>
    <contour>
      <point x="228" y="720" type="qcurve" smooth="yes"/>
      <point x="239" y="720"/>
      <point x="253" y="706"/>
      <point x="253" y="695" type="qcurve" smooth="yes"/>
      <point x="253" y="685"/>
      <point x="239" y="670"/>
      <point x="228" y="670" type="qcurve" smooth="yes"/>
      <point x="216" y="670"/>
      <point x="202" y="685"/>
      <point x="202" y="695" type="qcurve" smooth="yes"/>
      <point x="202" y="706"/>
      <point x="216" y="720"/>
    </contour>
    <contour>
      <point x="55" y="720" type="qcurve" smooth="yes"/>
      <point x="67" y="720"/>
      <point x="81" y="706"/>
      <point x="81" y="695" type="qcurve" smooth="yes"/>
      <point x="81" y="685"/>
      <point x="67" y="670"/>
      <point x="55" y="670" type="qcurve" smooth="yes"/>
      <point x="44" y="670"/>
      <point x="30" y="685"/>
      <point x="30" y="695" type="qcurve" smooth="yes"/>
      <point x="30" y="706"/>
      <point x="44" y="720"/>
    </contour>
  </outline>
</glyph>
<glyph name="copyright" format="1">
  <advance width="810"/>
  <unicode hex="00A9"/>
  <outline>
    <contour>
      <point x="405" y="726" type="qcurve" smooth="yes"/>
      <point x="466" y="726"/>
      <point x="569" y="684"/>
      <point x="646" y="606"/>
      <point x="688" y="500"/>
      <point x="688" y="435" type="qcurve" smooth="yes"/>
      <point x="688" y="371"/>
      <point x="646" y="265"/>
      <point x="569" y="187"/>
      <point x="466" y="144"/>
      <point x="405" y="144" type="qcurve" smooth="yes"/>
      <point x="344" y="144"/>
      <point x="241" y="186"/>
      <point x="164" y="264"/>
      <point x="122" y="371"/>
      <point x="122" y="435" type="qcurve" smooth="yes"/>
      <point x="122" y="499"/>
      <point x="164" y="605"/>
      <point x="241" y="683"/>
      <point x="344" y="726"/>
    </contour>
    <contour>
      <point x="406" y="608" type="qcurve" smooth="yes"/>
      <point x="435" y="608"/>
      <point x="476" y="592"/>
      <point x="495" y="578" type="qcurve"/>
      <point x="480" y="557" type="line"/>
      <point x="464" y="568"/>
      <point x="432" y="580"/>
      <point x="406" y="580" type="qcurve" smooth="yes"/>
      <point x="385" y="580"/>
      <point x="336" y="555"/>
      <point x="301" y="493"/>
      <point x="301" y="437" type="qcurve" smooth="yes"/>
      <point x="301" y="362"/>
      <point x="362" y="290"/>
      <point x="407" y="290" type="qcurve" smooth="yes"/>
      <point x="436" y="290"/>
      <point x="474" y="307"/>
      <point x="490" y="318" type="qcurve"/>
      <point x="504" y="296" type="line"/>
      <point x="487" y="283"/>
      <point x="438" y="262"/>
      <point x="406" y="262" type="qcurve" smooth="yes"/>
      <point x="346" y="262"/>
      <point x="270" y="358"/>
      <point x="270" y="437" type="qcurve" smooth="yes"/>
      <point x="270" y="497"/>
      <point x="312" y="573"/>
      <point x="375" y="608"/>
    </contour>
    <contour>
      <point x="406" y="698" type="qcurve" smooth="yes"/>
      <point x="333" y="698"/>
      <point x="218" y="631"/>
      <point x="153" y="513"/>
      <point x="153" y="435" type="qcurve" smooth="yes"/>
      <point x="153" y="356"/>
      <point x="218" y="238"/>
      <point x="333" y="172"/>
      <point x="406" y="172" type="qcurve" smooth="yes"/>
      <point x="479" y="172"/>
      <point x="592" y="239"/>
      <point x="657" y="358"/>
      <point x="657" y="435" type="qcurve" smooth="yes"/>
      <point x="657" y="514"/>
      <point x="592" y="632"/>
      <point x="479" y="698"/>
    </contour>
  </outline>
</glyph>
<glyph name="ordfeminine" format="1">
  <advance width="500"/>
  <unicode hex="00AA"/>
  <outline>
    <contour>
      <point x="218" y="276" type="qcurve" smooth="yes"/>
      <point x="158" y="276"/>
      <point x="90" y="339"/>
      <point x="90" y="392" type="qcurve" smooth="yes"/>
      <point x="90" y="454"/>
      <point x="182" y="518"/>
      <point x="255" y="518" type="qcurve" smooth="yes"/>
      <point x="346" y="518" type="line"/>
      <point x="346" y="560" type="line" smooth="yes"/>
      <point x="346" y="608"/>
      <point x="303" y="654"/>
      <point x="244" y="654" type="qcurve" smooth="yes"/>
      <point x="217" y="654"/>
      <point x="161" y="642"/>
      <point x="132" y="631" type="qcurve"/>
      <point x="123" y="657" type="line"/>
      <point x="154" y="668"/>
      <point x="212" y="682"/>
      <point x="244" y="682" type="qcurve" smooth="yes"/>
      <point x="313" y="682"/>
      <point x="376" y="623"/>
      <point x="376" y="563" type="qcurve" smooth="yes"/>
      <point x="376" y="367" type="line" smooth="yes"/>
      <point x="376" y="330"/>
      <point x="394" y="304"/>
      <point x="410" y="297" type="qcurve"/>
      <point x="403" y="276" type="line"/>
      <point x="379" y="283"/>
      <point x="352" y="313"/>
      <point x="350" y="344" type="qcurve"/>
      <point x="327" y="310"/>
      <point x="262" y="276"/>
    </contour>
    <contour>
      <point x="426" y="0" type="line"/>
      <point x="88" y="0" type="line"/>
      <point x="88" y="29" type="line"/>
      <point x="426" y="29" type="line"/>
    </contour>
    <contour>
      <point x="218" y="304" type="qcurve" smooth="yes"/>
      <point x="263" y="304"/>
      <point x="326" y="346"/>
      <point x="346" y="380" type="qcurve"/>
      <point x="346" y="490" type="line"/>
      <point x="261" y="490" type="line" smooth="yes"/>
      <point x="197" y="490"/>
      <point x="122" y="443"/>
      <point x="122" y="392" type="qcurve" smooth="yes"/>
      <point x="122" y="349"/>
      <point x="175" y="304"/>
    </contour>
  </outline>
</glyph>
<glyph name="registered" format="1">
  <advance width="638"/>
  <unicode hex="00AE"/>
  <outline>
    <contour>
      <point x="319" y="272" type="qcurve" smooth="yes"/>
      <point x="255" y="272"/>
      <point x="151" y="330"/>
      <point x="90" y="432"/>
      <point x="90" y="497" type="qcurve" smooth="yes"/>
      <point x="90" y="560"/>
      <point x="151" y="664"/>
      <point x="255" y="726"/>
      <point x="319" y="726" type="qcurve" smooth="yes"/>
      <point x="383" y="726"/>
      <point x="487" y="668"/>
      <point x="548" y="566"/>
      <point x="548" y="501" type="qcurve" smooth="yes"/>
      <point x="548" y="438"/>
      <point x="487" y="334"/>
      <point x="383" y="272"/>
    </contour>
    <contour>
      <point x="319" y="298" type="qcurve" smooth="yes"/>
      <point x="374" y="298"/>
      <point x="465" y="352"/>
      <point x="520" y="445"/>
      <point x="520" y="501" type="qcurve" smooth="yes"/>
      <point x="520" y="559"/>
      <point x="467" y="648"/>
      <point x="376" y="700"/>
      <point x="319" y="700" type="qcurve" smooth="yes"/>
      <point x="264" y="700"/>
      <point x="173" y="646"/>
      <point x="118" y="554"/>
      <point x="118" y="497" type="qcurve" smooth="yes"/>
      <point x="118" y="440"/>
      <point x="173" y="350"/>
      <point x="264" y="298"/>
    </contour>
    <contour>
      <point x="273" y="368" type="line"/>
      <point x="243" y="368" type="line"/>
      <point x="243" y="637" type="line"/>
      <point x="305" y="637" type="line" smooth="yes"/>
      <point x="359" y="637"/>
      <point x="411" y="598"/>
      <point x="411" y="558" type="qcurve" smooth="yes"/>
      <point x="411" y="528"/>
      <point x="378" y="495"/>
      <point x="349" y="488" type="qcurve"/>
      <point x="423" y="368" type="line"/>
      <point x="386" y="368" type="line"/>
      <point x="319" y="484" type="line"/>
      <point x="273" y="484" type="line"/>
    </contour>
    <contour>
      <point x="273" y="610" type="line"/>
      <point x="273" y="510" type="line"/>
      <point x="319" y="510" type="line" smooth="yes"/>
      <point x="348" y="510"/>
      <point x="381" y="531"/>
      <point x="381" y="558" type="qcurve" smooth="yes"/>
      <point x="381" y="589"/>
      <point x="344" y="610"/>
      <point x="310" y="610" type="qcurve" smooth="yes"/>
    </contour>
  </outline>
</glyph>
<glyph name="degree" format="1">
  <advance width="519"/>
  <unicode hex="00B0"/>
  <outline>
    <contour>
      <point x="219" y="435" type="qcurve" smooth="yes"/>
      <point x="270" y="435"/>
      <point x="328" y="500"/>
      <point x="328" y="549" type="qcurve" smooth="yes"/>
      <point x="328" y="600"/>
      <point x="270" y="664"/>
      <point x="219" y="664" type="qcurve" smooth="yes"/>
      <point x="173" y="664"/>
      <point x="111" y="600"/>
      <point x="111" y="550" type="qcurve" smooth="yes"/>
      <point x="111" y="501"/>
      <point x="173" y="435"/>
    </contour>
    <contour>
      <point x="219" y="407" type="qcurve" smooth="yes"/>
      <point x="184" y="407"/>
      <point x="120" y="441"/>
      <point x="80" y="505"/>
      <point x="80" y="550" type="qcurve" smooth="yes"/>
      <point x="80" y="593"/>
      <point x="120" y="657"/>
      <point x="184" y="692"/>
      <point x="219" y="692" type="qcurve" smooth="yes"/>
      <point x="258" y="692"/>
      <point x="322" y="657"/>
      <point x="359" y="593"/>
      <point x="359" y="549" type="qcurve" smooth="yes"/>
      <point x="359" y="506"/>
      <point x="322" y="443"/>
      <point x="258" y="407"/>
    </contour>
  </outline>
</glyph>
<glyph name="cedilla" format="1">
  <advance width="221"/>
  <unicode hex="00B8"/>
  <outline>
    <contour>
      <point x="78" y="16" type="line"/>
      <point x="100" y="16" type="line"/>
      <point x="100" y="-71" type="line"/>
      <point x="147" y="-74"/>
      <point x="191" y="-109"/>
      <point x="191" y="-140" type="qcurve" smooth="yes"/>
      <point x="191" y="-176"/>
      <point x="137" y="-216"/>
      <point x="101" y="-216" type="qcurve" smooth="yes"/>
      <point x="77" y="-216"/>
      <point x="43" y="-205"/>
      <point x="30" y="-197" type="qcurve"/>
      <point x="43" y="-174" type="line"/>
      <point x="53" y="-180"/>
      <point x="82" y="-189"/>
      <point x="101" y="-189" type="qcurve" smooth="yes"/>
      <point x="125" y="-189"/>
      <point x="160" y="-165"/>
      <point x="160" y="-140" type="qcurve" smooth="yes"/>
      <point x="160" y="-116"/>
      <point x="118" y="-94"/>
      <point x="71" y="-93" type="qcurve"/>
    </contour>
  </outline>
</glyph>
<glyph name="ordmasculine" format="1">
  <advance width="500"/>
  <unicode hex="00BA"/>
  <outline>
    <contour>
      <point x="248" y="682" type="qcurve" smooth="yes"/>
      <point x="327" y="682"/>
      <point x="419" y="580"/>
      <point x="419" y="481" type="qcurve" smooth="yes"/>
      <point x="419" y="384"/>
      <point x="325" y="276"/>
      <point x="247" y="276" type="qcurve" smooth="yes"/>
      <point x="168" y="276"/>
      <point x="77" y="384"/>
      <point x="77" y="479" type="qcurve" smooth="yes"/>
      <point x="77" y="575"/>
      <point x="171" y="682"/>
    </contour>
    <contour>
      <point x="249" y="654" type="qcurve" smooth="yes"/>
      <point x="185" y="654"/>
      <point x="109" y="567"/>
      <point x="109" y="479" type="qcurve" smooth="yes"/>
      <point x="109" y="394"/>
      <point x="184" y="304"/>
      <point x="248" y="304" type="qcurve" smooth="yes"/>
      <point x="313" y="304"/>
      <point x="388" y="393"/>
      <point x="388" y="481" type="qcurve" smooth="yes"/>
      <point x="388" y="567"/>
      <point x="315" y="654"/>
    </contour>
    <contour>
      <point x="417" y="0" type="line"/>
      <point x="79" y="0" type="line"/>
      <point x="79" y="29" type="line"/>
      <point x="417" y="29" type="line"/>
    </contour>
  </outline>
</glyph>
<glyph name="questiondown" format="1">
  <advance width="438"/>
  <unicode hex="00BF"/>
  <outline>
    <contour>
      <point x="207" y="-199" type="qcurve" smooth="yes"/>
      <point x="158" y="-199"/>
      <point x="88" y="-162"/>
      <point x="50" y="-103"/>
      <point x="50" y="-69" type="qcurve" smooth="yes"/>
      <point x="50" y="-32"/>
      <point x="76" y="19"/>
      <point x="118" y="55"/>
      <point x="165" y="87"/>
      <point x="207" y="121"/>
      <point x="233" y="168"/>
      <point x="233" y="202" type="qcurve" smooth="yes"/>
      <point x="233" y="251" type="line"/>
      <point x="262" y="251" type="line"/>
      <point x="262" y="199" type="line" smooth="yes"/>
      <point x="262" y="162"/>
      <point x="236" y="110"/>
      <point x="195" y="74"/>
      <point x="149" y="43"/>
      <point x="108" y="9"/>
      <point x="82" y="-36"/>
      <point x="82" y="-69" type="qcurve" smooth="yes"/>
      <point x="82" y="-112"/>
      <point x="150" y="-171"/>
      <point x="207" y="-171" type="qcurve" smooth="yes"/>
      <point x="259" y="-171"/>
      <point x="330" y="-134"/>
      <point x="366" y="-95" type="qcurve"/>
      <point x="388" y="-112" type="line"/>
      <point x="349" y="-156"/>
      <point x="264" y="-199"/>
    </contour>
    <contour>
      <point x="246" y="399" type="qcurve" smooth="yes"/>
      <point x="232" y="399"/>
      <point x="216" y="416"/>
      <point x="216" y="429" type="qcurve" smooth="yes"/>
      <point x="216" y="441"/>
      <point x="232" y="458"/>
      <point x="246" y="458" type="qcurve" smooth="yes"/>
      <point x="260" y="458"/>
      <point x="276" y="441"/>
      <point x="276" y="429" type="qcurve" smooth="yes"/>
      <point x="276" y="416"/>
      <point x="260" y="399"/>
    </contour>
  </outline>
</glyph>
<glyph name="AE" format="1">
  <advance width="757"/>
  <unicode hex="00C6"/>
  <outline>
    <contour>
      <point x="404" y="345" type="line"/>
      <point x="487" y="29" type="line"/>
      <point x="717" y="29" type="line"/>
      <point x="717" y="0" type="line"/>
      <point x="464" y="0" type="line"/>
      <point x="413" y="193" type="line"/>
      <point x="114" y="193" type="line"/>
      <point x="40" y="0" type="line"/>
      <point x="9" y="0" type="line"/>
      <point x="272" y="682" type="line"/>
      <point x="664" y="682" type="line"/>
      <point x="660" y="653" type="line"/>
      <point x="323" y="653" type="line"/>
      <point x="397" y="373" type="line"/>
      <point x="657" y="373" type="line"/>
      <point x="657" y="345" type="line"/>
    </contour>
    <contour>
      <point x="291" y="657" type="line"/>
      <point x="125" y="222" type="line"/>
      <point x="406" y="222" type="line"/>
    </contour>
    <contour>
      <point x="457" y="680" type="move" name="top"/>
    </contour>
    <contour>
      <point x="375" y="0" type="move" name="bottom"/>
    </contour>
  </outline>
</glyph>
<glyph name="Eth" format="1">
  <advance width="621"/>
  <unicode hex="00D0"/>
  <outline>
    <contour>
      <point x="119" y="682" type="line"/>
      <point x="248" y="682" type="line" smooth="yes"/>
      <point x="303" y="682"/>
      <point x="409" y="655"/>
      <point x="495" y="584"/>
      <point x="546" y="453"/>
      <point x="546" y="348" type="qcurve" smooth="yes"/>
      <point x="546" y="240"/>
      <point x="492" y="104"/>
      <point x="405" y="29"/>
      <point x="301" y="0"/>
      <point x="251" y="0" type="qcurve" smooth="yes"/>
      <point x="119" y="0" type="line"/>
      <point x="119" y="337" type="line"/>
      <point x="25" y="337" type="line"/>
      <point x="25" y="367" type="line"/>
      <point x="119" y="367" type="line"/>
    </contour>
    <contour>
      <point x="150" y="29" type="line"/>
      <point x="252" y="29" type="line" smooth="yes"/>
      <point x="300" y="29"/>
      <point x="393" y="56"/>
      <point x="469" y="125"/>
      <point x="514" y="250"/>
      <point x="514" y="348" type="qcurve" smooth="yes"/>
      <point x="514" y="448"/>
      <point x="467" y="569"/>
      <point x="389" y="632"/>
      <point x="293" y="653"/>
      <point x="245" y="653" type="qcurve" smooth="yes"/>
      <point x="150" y="653" type="line"/>
      <point x="150" y="367" type="line"/>
      <point x="340" y="367" type="line"/>
      <point x="340" y="337" type="line"/>
      <point x="150" y="337" type="line"/>
    </contour>
    <contour>
      <point x="303" y="340" type="move" name="center"/>
    </contour>
    <contour>
      <point x="304" y="0" type="move" name="bottom"/>
    </contour>
    <contour>
      <point x="283" y="680" type="move" name="top"/>
    </contour>
  </outline>
</glyph>
<glyph name="Oslash" format="1">
  <advance width="690"/>
  <unicode hex="00D8"/>
  <outline>
    <contour>
      <point x="345" y="692" type="qcurve" smooth="yes"/>
      <point x="426" y="692"/>
      <point x="547" y="612"/>
      <point x="615" y="456"/>
      <point x="615" y="340" type="qcurve" smooth="yes"/>
      <point x="615" y="229"/>
      <point x="549" y="73"/>
      <point x="428" y="-10"/>
      <point x="345" y="-10" type="qcurve" smooth="yes"/>
      <point x="265" y="-10"/>
      <point x="143" y="71"/>
      <point x="75" y="227"/>
      <point x="75" y="339" type="qcurve" smooth="yes"/>
      <point x="75" y="452"/>
      <point x="144" y="610"/>
      <point x="266" y="692"/>
    </contour>
    <contour>
      <point x="345" y="663" type="qcurve" smooth="yes"/>
      <point x="275" y="663"/>
      <point x="167" y="591"/>
      <point x="107" y="447"/>
      <point x="107" y="339" type="qcurve" smooth="yes"/>
      <point x="107" y="234"/>
      <point x="168" y="92"/>
      <point x="275" y="19"/>
      <point x="345" y="19" type="qcurve" smooth="yes"/>
      <point x="456" y="19"/>
      <point x="583" y="182"/>
      <point x="583" y="340" type="qcurve" smooth="yes"/>
      <point x="583" y="421"/>
      <point x="549" y="542"/>
      <point x="486" y="623"/>
      <point x="399" y="663"/>
    </contour>
    <contour>
      <point x="429" y="680" type="line"/>
      <point x="462" y="803" type="line"/>
      <point x="493" y="794" type="line"/>
      <point x="454" y="669" type="line"/>
      <point x="447" y="649" type="line"/>
      <point x="264" y="27" type="line"/>
      <point x="258" y="3" type="line"/>
      <point x="227" y="-114" type="line"/>
      <point x="196" y="-105" type="line"/>
      <point x="233" y="14" type="line"/>
      <point x="241" y="34" type="line"/>
      <point x="424" y="656" type="line"/>
    </contour>
    <contour>
      <point x="335" y="687" type="move" name="top"/>
    </contour>
    <contour>
      <point x="344" y="0" type="move" name="bottom"/>
    </contour>
  </outline>
</glyph>
<glyph name="Thorn" format="1">
  <advance width="561"/>
  <unicode hex="00DE"/>
  <outline>
    <contour>
      <point x="151" y="0" type="line"/>
      <point x="120" y="0" type="line"/>
      <point x="120" y="682" type="line"/>
      <point x="151" y="682" type="line"/>
      <point x="151" y="556" type="line"/>
      <point x="264" y="556" type="line" smooth="yes"/>
      <point x="380" y="556"/>
      <point x="506" y="462"/>
      <point x="506" y="357" type="qcurve" smooth="yes"/>
      <point x="506" y="278"/>
      <point x="443" y="185"/>
      <point x="332" y="144"/>
      <point x="259" y="144" type="qcurve" smooth="yes"/>
      <point x="151" y="144" type="line"/>
    </contour>
    <contour>
      <point x="151" y="527" type="line"/>
      <point x="151" y="173" type="line"/>
      <point x="262" y="173" type="line" smooth="yes"/>
      <point x="324" y="173"/>
      <point x="419" y="205"/>
      <point x="474" y="285"/>
      <point x="474" y="356" type="qcurve" smooth="yes"/>
      <point x="474" y="451"/>
      <point x="365" y="527"/>
      <point x="264" y="527" type="qcurve" smooth="yes"/>
    </contour>
    <contour>
      <point x="276" y="680" type="move" name="top"/>
    </contour>
    <contour>
      <point x="276" y="0" type="move" name="bottom"/>
    </contour>
  </outline>
</glyph>
<glyph name="germandbls" format="1">
  <advance width="573"/>
  <unicode hex="00DF"/>
  <outline>
    <contour>
      <point x="292" y="738" type="qcurve" smooth="yes"/>
      <point x="336" y="738"/>
      <point x="404" y="705"/>
      <point x="443" y="648"/>
      <point x="443" y="610" type="qcurve"/>
      <point x="443" y="578"/>
      <point x="419" y="533"/>
      <point x="382" y="500"/>
      <point x="346" y="472"/>
      <point x="322" y="441"/>
      <point x="322" y="421" type="qcurve" smooth="yes"/>
      <point x="322" y="395"/>
      <point x="362" y="357"/>
      <point x="420" y="321"/>
      <point x="478" y="273"/>
      <point x="518" y="203"/>
      <point x="518" y="150" type="qcurve" smooth="yes"/>
      <point x="518" y="103"/>
      <point x="482" y="31"/>
      <point x="415" y="-10"/>
      <point x="368" y="-10" type="qcurve" smooth="yes"/>
      <point x="337" y="-10"/>
      <point x="293" y="3"/>
      <point x="276" y="12" type="qcurve"/>
      <point x="288" y="35" type="line"/>
      <point x="302" y="28"/>
      <point x="339" y="18"/>
      <point x="367" y="18" type="qcurve" smooth="yes"/>
      <point x="421" y="18"/>
      <point x="487" y="86"/>
      <point x="487" y="150" type="qcurve" smooth="yes"/>
      <point x="487" y="200"/>
      <point x="448" y="264"/>
      <point x="390" y="308"/>
      <point x="331" y="344"/>
      <point x="292" y="388"/>
      <point x="292" y="421" type="qcurve" smooth="yes"/>
      <point x="292" y="445"/>
      <point x="316" y="480"/>
      <point x="352" y="508"/>
      <point x="388" y="539"/>
      <point x="412" y="580"/>
      <point x="412" y="610" type="qcurve" smooth="yes"/>
      <point x="412" y="656"/>
      <point x="346" y="710"/>
      <point x="292" y="710" type="qcurve" smooth="yes"/>
      <point x="230" y="710"/>
      <point x="145" y="628"/>
      <point x="145" y="537" type="qcurve" smooth="yes"/>
      <point x="145" y="0" type="line"/>
      <point x="115" y="0" type="line"/>
      <point x="115" y="541" type="line" smooth="yes"/>
      <point x="115" y="638"/>
      <point x="216" y="738"/>
    </contour>
  </outline>
</glyph>
<glyph name="ae" format="1">
  <advance width="845"/>
  <unicode hex="00E6"/>
  <outline>
    <contour>
      <point x="591" y="530" type="qcurve" smooth="yes"/>
      <point x="654" y="530"/>
      <point x="738" y="468"/>
      <point x="780" y="357"/>
      <point x="780" y="283" type="qcurve" smooth="yes"/>
      <point x="780" y="272"/>
      <point x="779" y="251"/>
      <point x="778" y="244" type="qcurve"/>
      <point x="412" y="244" type="line"/>
      <point x="412" y="270" type="line"/>
      <point x="750" y="270" type="line"/>
      <point x="750" y="275"/>
      <point x="750" y="284"/>
      <point x="750" y="294" type="qcurve" smooth="yes"/>
      <point x="750" y="355"/>
      <point x="716" y="449"/>
      <point x="646" y="502"/>
      <point x="592" y="502" type="qcurve" smooth="yes"/>
      <point x="544" y="502"/>
      <point x="464" y="451"/>
      <point x="417" y="342"/>
      <point x="417" y="256" type="qcurve" smooth="yes"/>
      <point x="419" y="174"/>
      <point x="466" y="68"/>
      <point x="547" y="18"/>
      <point x="598" y="18" type="qcurve" smooth="yes"/>
      <point x="644" y="18"/>
      <point x="708" y="47"/>
      <point x="742" y="74" type="qcurve"/>
      <point x="759" y="52" type="line"/>
      <point x="725" y="23"/>
      <point x="648" y="-10"/>
      <point x="598" y="-10" type="qcurve" smooth="yes"/>
      <point x="534" y="-10"/>
      <point x="438" y="53"/>
      <point x="386" y="172"/>
      <point x="386" y="256" type="qcurve"/>
      <point x="389" y="295" type="line" smooth="yes"/>
      <point x="395" y="354"/>
      <point x="429" y="443"/>
      <point x="480" y="501"/>
      <point x="549" y="530"/>
    </contour>
    <contour>
      <point x="270" y="310" type="qcurve" smooth="yes"/>
      <point x="393" y="310" type="line"/>
      <point x="393" y="282" type="line"/>
      <point x="276" y="282" type="line" smooth="yes"/>
      <point x="193" y="282"/>
      <point x="97" y="214"/>
      <point x="97" y="144" type="qcurve" smooth="yes"/>
      <point x="97" y="84"/>
      <point x="165" y="18"/>
      <point x="223" y="18" type="qcurve" smooth="yes"/>
      <point x="284" y="18"/>
      <point x="374" y="86"/>
      <point x="420" y="160" type="qcurve"/>
      <point x="425" y="122" type="line"/>
      <point x="379" y="50"/>
      <point x="283" y="-10"/>
      <point x="223" y="-10" type="qcurve" smooth="yes"/>
      <point x="149" y="-10"/>
      <point x="65" y="74"/>
      <point x="65" y="144" type="qcurve" smooth="yes"/>
      <point x="65" y="224"/>
      <point x="178" y="310"/>
    </contour>
    <contour>
      <point x="256" y="530" type="qcurve" smooth="yes"/>
      <point x="312" y="530"/>
      <point x="383" y="494"/>
      <point x="416" y="424"/>
      <point x="416" y="372" type="qcurve" smooth="yes"/>
      <point x="416" y="256" type="line"/>
      <point x="386" y="256" type="line"/>
      <point x="386" y="369" type="line" smooth="yes"/>
      <point x="386" y="435"/>
      <point x="330" y="502"/>
      <point x="256" y="502" type="qcurve" smooth="yes"/>
      <point x="222" y="502"/>
      <point x="152" y="485"/>
      <point x="114" y="470" type="qcurve"/>
      <point x="105" y="496" type="line"/>
      <point x="144" y="512"/>
      <point x="217" y="530"/>
    </contour>
    <contour>
      <point x="421" y="517" type="move" name="top"/>
    </contour>
    <contour>
      <point x="417" y="0" type="move" name="bottom"/>
    </contour>
  </outline>
</glyph>
<glyph name="eth" format="1">
  <advance width="554"/>
  <unicode hex="00F0"/>
  <outline>
    <contour>
      <point x="269" y="-10" type="qcurve" smooth="yes"/>
      <point x="205" y="-10"/>
      <point x="116" y="50"/>
      <point x="70" y="158"/>
      <point x="70" y="231" type="qcurve" smooth="yes"/>
      <point x="70" y="292"/>
      <point x="114" y="398"/>
      <point x="199" y="463"/>
      <point x="260" y="463" type="qcurve" smooth="yes"/>
      <point x="314" y="463"/>
      <point x="400" y="414"/>
      <point x="435" y="371" type="qcurve"/>
      <point x="427" y="457"/>
      <point x="357" y="592"/>
      <point x="290" y="644" type="qcurve"/>
      <point x="210" y="562" type="line"/>
      <point x="185" y="571" type="line"/>
      <point x="271" y="659" type="line"/>
      <point x="246" y="676"/>
      <point x="176" y="706"/>
      <point x="141" y="713" type="qcurve"/>
      <point x="148" y="739" type="line"/>
      <point x="183" y="732"/>
      <point x="256" y="702"/>
      <point x="290" y="679" type="qcurve"/>
      <point x="358" y="750" type="line"/>
      <point x="378" y="733" type="line"/>
      <point x="310" y="665" type="line"/>
      <point x="359" y="627"/>
      <point x="430" y="526"/>
      <point x="469" y="387"/>
      <point x="469" y="292" type="qcurve" smooth="yes"/>
      <point x="469" y="188"/>
      <point x="419" y="54"/>
      <point x="329" y="-10"/>
    </contour>
    <contour>
      <point x="269" y="18" type="qcurve" smooth="yes"/>
      <point x="349" y="18"/>
      <point x="438" y="159"/>
      <point x="438" y="295" type="qcurve" smooth="yes"/>
      <point x="438" y="309"/>
      <point x="438" y="328"/>
      <point x="437" y="335" type="qcurve"/>
      <point x="400" y="382"/>
      <point x="312" y="435"/>
      <point x="262" y="435" type="qcurve" smooth="yes"/>
      <point x="212" y="435"/>
      <point x="140" y="380"/>
      <point x="102" y="287"/>
      <point x="102" y="229" type="qcurve" smooth="yes"/>
      <point x="102" y="163"/>
      <point x="141" y="69"/>
      <point x="216" y="18"/>
    </contour>
    <contour>
      <point x="286" y="727" type="move" name="top"/>
    </contour>
    <contour>
      <point x="268" y="0" type="move" name="bottom"/>
    </contour>
  </outline>
</glyph>
<glyph name="oslash" format="1">
  <advance width="561"/>
  <unicode hex="00F8"/>
  <outline>
    <contour>
      <point x="281" y="530" type="qcurve" smooth="yes"/>
      <point x="378" y="530"/>
      <point x="491" y="393"/>
      <point x="491" y="262" type="qcurve" smooth="yes"/>
      <point x="491" y="176"/>
      <point x="439" y="54"/>
      <point x="344" y="-10"/>
      <point x="280" y="-10" type="qcurve" smooth="yes"/>
      <point x="183" y="-10"/>
      <point x="70" y="133"/>
      <point x="70" y="259" type="qcurve" smooth="yes"/>
      <point x="70" y="345"/>
      <point x="123" y="466"/>
      <point x="218" y="530"/>
    </contour>
    <contour>
      <point x="281" y="502" type="qcurve" smooth="yes"/>
      <point x="199" y="502"/>
      <point x="101" y="379"/>
      <point x="101" y="259" type="qcurve" smooth="yes"/>
      <point x="101" y="182"/>
      <point x="144" y="74"/>
      <point x="225" y="18"/>
      <point x="280" y="18" type="qcurve" smooth="yes"/>
      <point x="363" y="18"/>
      <point x="460" y="143"/>
      <point x="460" y="262" type="qcurve" smooth="yes"/>
      <point x="460" y="340"/>
      <point x="417" y="447"/>
      <point x="337" y="502"/>
    </contour>
    <contour>
      <point x="353" y="518" type="line"/>
      <point x="393" y="642" type="line"/>
      <point x="420" y="634" type="line"/>
      <point x="379" y="507" type="line"/>
      <point x="370" y="486" type="line"/>
      <point x="217" y="24" type="line"/>
      <point x="213" y="11" type="line"/>
      <point x="167" y="-121" type="line"/>
      <point x="140" y="-113" type="line"/>
      <point x="187" y="22" type="line"/>
      <point x="192" y="32" type="line"/>
      <point x="345" y="494" type="line"/>
    </contour>
    <contour>
      <point x="280" y="517" type="move" name="top"/>
    </contour>
    <contour>
      <point x="280" y="0" type="move" name="bottom"/>
    </contour>
  </outline>
</glyph>
<glyph name="hbar" format="1">
  <advance width="587"/>
  <unicode hex="0127"/>
  <outline>
    <contour>
      <point x="150" y="0" type="line"/>
      <point x="120" y="0" type="line"/>
      <point x="120" y="625" type="line"/>
      <point x="45" y="625" type="line"/>
      <point x="45" y="652" type="line"/>
      <point x="120" y="652" type="line"/>
      <point x="120" y="734" type="line"/>
      <point x="150" y="739" type="line"/>
      <point x="150" y="652" type="line"/>
      <point x="329" y="652" type="line"/>
      <point x="329" y="625" type="line"/>
      <point x="150" y="625" type="line"/>
      <point x="150" y="421" type="line"/>
      <point x="185" y="470"/>
      <point x="276" y="530"/>
      <point x="337" y="530" type="qcurve" smooth="yes"/>
      <point x="407" y="530"/>
      <point x="477" y="445"/>
      <point x="477" y="370" type="qcurve" smooth="yes"/>
      <point x="477" y="0" type="line"/>
      <point x="447" y="0" type="line"/>
      <point x="447" y="366" type="line" smooth="yes"/>
      <point x="447" y="434"/>
      <point x="392" y="503"/>
      <point x="336" y="503" type="qcurve" smooth="yes"/>
      <point x="275" y="503"/>
      <point x="187" y="436"/>
      <point x="150" y="383" type="qcurve"/>
    </contour>
    <contour>
      <point x="298" y="260" type="move" name="center"/>
    </contour>
    <contour>
      <point x="298" y="0" type="move" name="bottom"/>
    </contour>
    <contour>
      <point x="298" y="727" type="move" name="top"/>
    </contour>
  </outline>
</glyph>
<glyph name="lslash" format="1">
  <advance width="289"/>
  <unicode hex="0142"/>
  <outline>
    <contour>
      <point x="195" y="-10" type="qcurve" smooth="yes"/>
      <point x="161" y="-10"/>
      <point x="117" y="30"/>
      <point x="117" y="75" type="qcurve" smooth="yes"/>
      <point x="117" y="340" type="line"/>
      <point x="54" y="301" type="line"/>
      <point x="41" y="322" type="line"/>
      <point x="117" y="369" type="line"/>
      <point x="117" y="734" type="line"/>
      <point x="147" y="738" type="line"/>
      <point x="147" y="388" type="line"/>
      <point x="251" y="452" type="line"/>
      <point x="264" y="430" type="line"/>
      <point x="147" y="358" type="line"/>
      <point x="147" y="76" type="line" smooth="yes"/>
      <point x="147" y="47"/>
      <point x="172" y="18"/>
      <point x="196" y="18" type="qcurve" smooth="yes"/>
      <point x="207" y="18"/>
      <point x="226" y="22"/>
      <point x="235" y="26" type="qcurve"/>
      <point x="244" y="1" type="line"/>
      <point x="234" y="-4"/>
      <point x="209" y="-10"/>
    </contour>
    <contour>
      <point x="180" y="0" type="move" name="bottom"/>
    </contour>
    <contour>
      <point x="127" y="730" type="move" name="top"/>
    </contour>
    <contour>
      <point x="188" y="727" type="move" name="topright"/>
    </contour>
    <contour>
      <point x="262" y="375" type="move" name="center"/>
    </contour>
  </outline>
</glyph>
<glyph name="OE" format="1">
  <advance width="848"/>
  <unicode hex="0152"/>
  <outline>
    <contour>
      <point x="335" y="-10" type="qcurve" smooth="yes"/>
      <point x="260" y="-10"/>
      <point x="143" y="71"/>
      <point x="75" y="227"/>
      <point x="75" y="339" type="qcurve" smooth="yes"/>
      <point x="75" y="452"/>
      <point x="143" y="610"/>
      <point x="261" y="692"/>
      <point x="335" y="692" type="qcurve" smooth="yes"/>
      <point x="374" y="692"/>
      <point x="405" y="682" type="qcurve"/>
      <point x="802" y="682" type="line"/>
      <point x="798" y="653" type="line"/>
      <point x="463" y="653" type="line"/>
      <point x="522" y="616"/>
      <point x="591" y="476"/>
      <point x="595" y="373" type="qcurve"/>
      <point x="758" y="373" type="line"/>
      <point x="758" y="345" type="line"/>
      <point x="595" y="345" type="line"/>
      <point x="594" y="224"/>
      <point x="524" y="66"/>
      <point x="461" y="29" type="qcurve"/>
      <point x="808" y="29" type="line"/>
      <point x="808" y="0" type="line"/>
      <point x="401" y="0" type="line"/>
      <point x="385" y="-5"/>
      <point x="352" y="-10"/>
    </contour>
    <contour>
      <point x="335" y="19" type="qcurve" smooth="yes"/>
      <point x="404" y="19"/>
      <point x="507" y="92"/>
      <point x="563" y="239"/>
      <point x="563" y="349" type="qcurve" smooth="yes"/>
      <point x="563" y="453"/>
      <point x="504" y="592"/>
      <point x="402" y="663"/>
      <point x="335" y="663" type="qcurve" smooth="yes"/>
      <point x="270" y="663"/>
      <point x="166" y="591"/>
      <point x="107" y="447"/>
      <point x="107" y="339" type="qcurve" smooth="yes"/>
      <point x="107" y="234"/>
      <point x="167" y="92"/>
      <point x="270" y="19"/>
    </contour>
    <contour>
      <point x="419" y="680" type="move" name="top"/>
    </contour>
    <contour>
      <point x="419" y="0" type="move" name="bottom"/>
    </contour>
  </outline>
</glyph>
<glyph name="oe" format="1">
  <advance width="919"/>
  <unicode hex="0153"/>
  <outline>
    <contour>
      <point x="281" y="530" type="qcurve" smooth="yes"/>
      <point x="347" y="530"/>
      <point x="441" y="464"/>
      <point x="491" y="344"/>
      <point x="491" y="262" type="qcurve" smooth="yes"/>
      <point x="491" y="181"/>
      <point x="440" y="58"/>
      <point x="345" y="-10"/>
      <point x="280" y="-10" type="qcurve" smooth="yes"/>
      <point x="183" y="-10"/>
      <point x="70" y="133"/>
      <point x="70" y="259" type="qcurve" smooth="yes"/>
      <point x="70" y="345"/>
      <point x="123" y="466"/>
      <point x="218" y="530"/>
    </contour>
    <contour>
      <point x="281" y="502" type="qcurve" smooth="yes"/>
      <point x="199" y="502"/>
      <point x="101" y="379"/>
      <point x="101" y="259" type="qcurve" smooth="yes"/>
      <point x="101" y="144"/>
      <point x="197" y="18"/>
      <point x="280" y="18" type="qcurve" smooth="yes"/>
      <point x="363" y="18"/>
      <point x="460" y="143"/>
      <point x="460" y="262" type="qcurve" smooth="yes"/>
      <point x="460" y="379"/>
      <point x="365" y="502"/>
    </contour>
    <contour>
      <point x="661" y="530" type="qcurve" smooth="yes"/>
      <point x="726" y="530"/>
      <point x="812" y="468"/>
      <point x="854" y="357"/>
      <point x="854" y="283" type="qcurve" smooth="yes"/>
      <point x="854" y="272"/>
      <point x="853" y="251"/>
      <point x="852" y="244" type="qcurve"/>
      <point x="486" y="244" type="line"/>
      <point x="486" y="270" type="line"/>
      <point x="824" y="270" type="line"/>
      <point x="824" y="275"/>
      <point x="824" y="284"/>
      <point x="824" y="294" type="qcurve" smooth="yes"/>
      <point x="824" y="355"/>
      <point x="790" y="449"/>
      <point x="719" y="502"/>
      <point x="663" y="502" type="qcurve" smooth="yes"/>
      <point x="617" y="502"/>
      <point x="538" y="451"/>
      <point x="491" y="342"/>
      <point x="491" y="256" type="qcurve" smooth="yes"/>
      <point x="493" y="174"/>
      <point x="540" y="68"/>
      <point x="621" y="18"/>
      <point x="672" y="18" type="qcurve" smooth="yes"/>
      <point x="718" y="18"/>
      <point x="782" y="47"/>
      <point x="816" y="74" type="qcurve"/>
      <point x="833" y="52" type="line"/>
      <point x="799" y="23"/>
      <point x="722" y="-10"/>
      <point x="672" y="-10" type="qcurve" smooth="yes"/>
      <point x="607" y="-10"/>
      <point x="511" y="57"/>
      <point x="460" y="177"/>
      <point x="460" y="256" type="qcurve" smooth="yes"/>
      <point x="460" y="336"/>
      <point x="509" y="460"/>
      <point x="600" y="530"/>
    </contour>
    <contour>
      <point x="477" y="517" type="move" name="top"/>
    </contour>
    <contour>
      <point x="478" y="0" type="move" name="bottom"/>
    </contour>
  </outline>
</glyph>
<glyph name="Tbar" format="1">
  <advance width="485"/>
  <unicode hex="0166"/>
  <outline>
    <contour>
      <point x="254" y="0" type="line"/>
      <point x="223" y="0" type="line"/>
      <point x="223" y="354" type="line"/>
      <point x="99" y="354" type="line"/>
      <point x="99" y="382" type="line"/>
      <point x="223" y="382" type="line"/>
      <point x="223" y="652" type="line"/>
      <point x="15" y="652" type="line"/>
      <point x="15" y="682" type="line"/>
      <point x="467" y="682" type="line"/>
      <point x="462" y="652" type="line"/>
      <point x="254" y="652" type="line"/>
      <point x="254" y="382" type="line"/>
      <point x="378" y="382" type="line"/>
      <point x="378" y="354" type="line"/>
      <point x="254" y="354" type="line"/>
    </contour>
    <contour>
      <point x="236" y="0" type="move" name="bottom"/>
    </contour>
    <contour>
      <point x="236" y="680" type="move" name="top"/>
    </contour>
    <contour>
      <point x="247" y="0" type="move" name="bottomright"/>
    </contour>
    <contour>
      <point x="236" y="340" type="move" name="center"/>
    </contour>
  </outline>
</glyph>
<glyph name="tbar" format="1">
  <advance width="325"/>
  <unicode hex="0167"/>
  <outline>
    <contour>
      <point x="316" y="43" type="qcurve"/>
      <point x="330" y="20" type="line"/>
      <point x="308" y="7"/>
      <point x="257" y="-10"/>
      <point x="226" y="-10" type="qcurve" smooth="yes"/>
      <point x="173" y="-10"/>
      <point x="110" y="54"/>
      <point x="110" y="118" type="qcurve" smooth="yes"/>
      <point x="110" y="317" type="line"/>
      <point x="25" y="317" type="line"/>
      <point x="25" y="344" type="line"/>
      <point x="110" y="344" type="line"/>
      <point x="110" y="493" type="line"/>
      <point x="25" y="493" type="line"/>
      <point x="25" y="520" type="line"/>
      <point x="110" y="520" type="line"/>
      <point x="110" y="650" type="line"/>
      <point x="140" y="653" type="line"/>
      <point x="140" y="520" type="line"/>
      <point x="283" y="520" type="line"/>
      <point x="278" y="493" type="line"/>
      <point x="140" y="493" type="line"/>
      <point x="140" y="344" type="line"/>
      <point x="275" y="344" type="line"/>
      <point x="275" y="317" type="line"/>
      <point x="140" y="317" type="line"/>
      <point x="140" y="120" type="line" smooth="yes"/>
      <point x="140" y="70"/>
      <point x="184" y="18"/>
      <point x="228" y="18" type="qcurve" smooth="yes"/>
      <point x="254" y="18"/>
      <point x="297" y="32"/>
    </contour>
    <contour>
      <point x="225" y="0" type="move" name="bottom"/>
    </contour>
    <contour>
      <point x="118" y="651" type="move" name="top"/>
    </contour>
    <contour>
      <point x="157" y="730" type="move" name="topright"/>
    </contour>
    <contour>
      <point x="145" y="259" type="move" name="center"/>
    </contour>
  </outline>
</glyph>
<glyph name="uni0180" format="1">
  <advance width="575"/>
  <unicode hex="0180"/>
  <outline>
    <contour>
      <point x="308" y="-10" type="qcurve" smooth="yes"/>
      <point x="253" y="-10"/>
      <point x="173" y="40"/>
      <point x="149" y="73" type="qcurve"/>
      <point x="146" y="0" type="line"/>
      <point x="120" y="0" type="line"/>
      <point x="120" y="625" type="line"/>
      <point x="45" y="625" type="line"/>
      <point x="45" y="652" type="line"/>
      <point x="120" y="652" type="line"/>
      <point x="120" y="734" type="line"/>
      <point x="150" y="738" type="line"/>
      <point x="150" y="652" type="line"/>
      <point x="329" y="652" type="line"/>
      <point x="329" y="625" type="line"/>
      <point x="150" y="625" type="line"/>
      <point x="150" y="442" type="line"/>
      <point x="179" y="480"/>
      <point x="260" y="530"/>
      <point x="314" y="530" type="qcurve" smooth="yes"/>
      <point x="404" y="530"/>
      <point x="500" y="393"/>
      <point x="500" y="264" type="qcurve" smooth="yes"/>
      <point x="500" y="179"/>
      <point x="456" y="56"/>
      <point x="371" y="-10"/>
    </contour>
    <contour>
      <point x="307" y="18" type="qcurve" smooth="yes"/>
      <point x="386" y="18"/>
      <point x="469" y="145"/>
      <point x="469" y="264" type="qcurve" smooth="yes"/>
      <point x="469" y="343"/>
      <point x="434" y="449"/>
      <point x="365" y="502"/>
      <point x="314" y="502" type="qcurve" smooth="yes"/>
      <point x="257" y="502"/>
      <point x="183" y="450"/>
      <point x="150" y="406" type="qcurve"/>
      <point x="150" y="110" type="line"/>
      <point x="178" y="70"/>
      <point x="255" y="18"/>
    </contour>
    <contour>
      <point x="294" y="727" type="move" name="top"/>
    </contour>
    <contour>
      <point x="289" y="0" type="move" name="bottom"/>
    </contour>
  </outline>
</glyph>
<glyph name="uni0183" format="1">
  <advance width="570"/>
  <unicode hex="0183"/>
  <outline>
    <contour>
      <point x="303" y="-10" type="qcurve" smooth="yes"/>
      <point x="248" y="-10"/>
      <point x="168" y="40"/>
      <point x="144" y="73" type="qcurve"/>
      <point x="141" y="0" type="line"/>
      <point x="115" y="0" type="line"/>
      <point x="115" y="734" type="line"/>
      <point x="391" y="734" type="line"/>
      <point x="385" y="706" type="line"/>
      <point x="145" y="706" type="line"/>
      <point x="145" y="442" type="line"/>
      <point x="174" y="480"/>
      <point x="255" y="530"/>
      <point x="309" y="530" type="qcurve" smooth="yes"/>
      <point x="399" y="530"/>
      <point x="495" y="393"/>
      <point x="495" y="264" type="qcurve" smooth="yes"/>
      <point x="495" y="179"/>
      <point x="451" y="56"/>
      <point x="366" y="-10"/>
    </contour>
    <contour>
      <point x="302" y="18" type="qcurve" smooth="yes"/>
      <point x="381" y="18"/>
      <point x="464" y="145"/>
      <point x="464" y="264" type="qcurve" smooth="yes"/>
      <point x="464" y="343"/>
      <point x="429" y="449"/>
      <point x="360" y="502"/>
      <point x="309" y="502" type="qcurve" smooth="yes"/>
      <point x="252" y="502"/>
      <point x="178" y="450"/>
      <point x="145" y="406" type="qcurve"/>
      <point x="145" y="110" type="line"/>
      <point x="173" y="70"/>
      <point x="250" y="18"/>
    </contour>
    <contour>
      <point x="284" y="727" type="move" name="top"/>
    </contour>
    <contour>
      <point x="284" y="0" type="move" name="bottom"/>
    </contour>
  </outline>
</glyph>
<glyph name="uni0184" format="1">
  <advance width="551"/>
  <unicode hex="0184"/>
  <outline>
    <contour>
      <point x="276" y="0" type="qcurve" smooth="yes"/>
      <point x="120" y="0" type="line"/>
      <point x="120" y="570" type="line"/>
      <point x="81" y="599" type="line"/>
      <point x="95" y="613"/>
      <point x="119" y="654"/>
      <point x="125" y="682" type="qcurve"/>
      <point x="151" y="682" type="line"/>
      <point x="151" y="412" type="line"/>
      <point x="276" y="412" type="line" smooth="yes"/>
      <point x="384" y="412"/>
      <point x="506" y="314"/>
      <point x="506" y="213" type="qcurve" smooth="yes"/>
      <point x="506" y="139"/>
      <point x="447" y="44"/>
      <point x="344" y="0"/>
    </contour>
    <contour>
      <point x="151" y="383" type="line"/>
      <point x="151" y="29" type="line"/>
      <point x="284" y="29" type="line" smooth="yes"/>
      <point x="342" y="29"/>
      <point x="427" y="67"/>
      <point x="474" y="149"/>
      <point x="474" y="214" type="qcurve" smooth="yes"/>
      <point x="474" y="302"/>
      <point x="371" y="383"/>
      <point x="279" y="383" type="qcurve" smooth="yes"/>
    </contour>
    <contour>
      <point x="275" y="680" type="move" name="top"/>
    </contour>
    <contour>
      <point x="275" y="0" type="move" name="bottom"/>
    </contour>
  </outline>
</glyph>
<glyph name="uni0186" format="1">
  <advance width="542"/>
  <unicode hex="0186"/>
  <outline>
    <contour>
      <point x="215" y="692" type="qcurve" smooth="yes"/>
      <point x="288" y="692"/>
      <point x="402" y="615"/>
      <point x="467" y="459"/>
      <point x="467" y="341" type="qcurve" smooth="yes"/>
      <point x="467" y="227"/>
      <point x="397" y="70"/>
      <point x="278" y="-10"/>
      <point x="203" y="-10" type="qcurve" smooth="yes"/>
      <point x="142" y="-10"/>
      <point x="57" y="28"/>
      <point x="25" y="55" type="qcurve"/>
      <point x="44" y="77" type="line"/>
      <point x="78" y="52"/>
      <point x="149" y="20"/>
      <point x="203" y="20" type="qcurve" smooth="yes"/>
      <point x="267" y="20"/>
      <point x="372" y="91"/>
      <point x="435" y="233"/>
      <point x="435" y="341" type="qcurve" smooth="yes"/>
      <point x="435" y="455"/>
      <point x="377" y="597"/>
      <point x="277" y="663"/>
      <point x="213" y="663" type="qcurve" smooth="yes"/>
      <point x="165" y="663"/>
      <point x="88" y="637"/>
      <point x="50" y="611" type="qcurve"/>
      <point x="33" y="633" type="line"/>
      <point x="68" y="659"/>
      <point x="157" y="692"/>
    </contour>
    <contour>
      <point x="206" y="341" type="move" name="center"/>
    </contour>
    <contour>
      <point x="205" y="0" type="move" name="bottom"/>
    </contour>
    <contour>
      <point x="205" y="680" type="move" name="top"/>
    </contour>
  </outline>
</glyph>
<glyph name="uni0187" format="1">
  <advance width="542"/>
  <unicode hex="0187"/>
  <outline>
    <contour>
      <point x="582" y="818" type="qcurve" smooth="yes"/>
      <point x="614" y="818"/>
      <point x="659" y="798"/>
      <point x="674" y="787" type="qcurve"/>
      <point x="659" y="767" type="line"/>
      <point x="644" y="777"/>
      <point x="608" y="791"/>
      <point x="582" y="791" type="qcurve" smooth="yes"/>
      <point x="552" y="791"/>
      <point x="509" y="752"/>
      <point x="509" y="700" type="qcurve" smooth="yes"/>
      <point x="509" y="633" type="line"/>
      <point x="493" y="613" type="line"/>
      <point x="457" y="639"/>
      <point x="394" y="663"/>
      <point x="347" y="663" type="qcurve" smooth="yes"/>
      <point x="281" y="663"/>
      <point x="172" y="597"/>
      <point x="107" y="455"/>
      <point x="107" y="341" type="qcurve" smooth="yes"/>
      <point x="107" y="233"/>
      <point x="170" y="91"/>
      <point x="278" y="20"/>
      <point x="343" y="20" type="qcurve" smooth="yes"/>
      <point x="399" y="20"/>
      <point x="467" y="53"/>
      <point x="498" y="78" type="qcurve"/>
      <point x="517" y="55" type="line"/>
      <point x="484" y="27"/>
      <point x="401" y="-10"/>
      <point x="342" y="-10" type="qcurve" smooth="yes"/>
      <point x="266" y="-10"/>
      <point x="145" y="70"/>
      <point x="75" y="227"/>
      <point x="75" y="341" type="qcurve" smooth="yes"/>
      <point x="75" y="430"/>
      <point x="117" y="561"/>
      <point x="191" y="649"/>
      <point x="289" y="692"/>
      <point x="345" y="692" type="qcurve" smooth="yes"/>
      <point x="389" y="692"/>
      <point x="454" y="671"/>
      <point x="479" y="653" type="qcurve"/>
      <point x="479" y="701" type="line" smooth="yes"/>
      <point x="479" y="760"/>
      <point x="536" y="818"/>
    </contour>
    <contour>
      <point x="265" y="680" type="move" name="top"/>
    </contour>
    <contour>
      <point x="265" y="0" type="move" name="bottom"/>
    </contour>
  </outline>
</glyph>
<glyph name="uni0188" format="1">
  <advance width="462"/>
  <unicode hex="0188"/>
  <outline>
    <contour>
      <point x="286" y="-10" type="qcurve" smooth="yes"/>
      <point x="222" y="-10"/>
      <point x="124" y="53"/>
      <point x="70" y="172"/>
      <point x="70" y="257" type="qcurve" smooth="yes"/>
      <point x="70" y="342"/>
      <point x="124" y="464"/>
      <point x="220" y="530"/>
      <point x="284" y="530" type="qcurve" smooth="yes"/>
      <point x="316" y="530"/>
      <point x="368" y="516"/>
      <point x="391" y="501" type="qcurve"/>
      <point x="391" y="621" type="line" smooth="yes"/>
      <point x="391" y="680"/>
      <point x="448" y="738"/>
      <point x="494" y="738" type="qcurve" smooth="yes"/>
      <point x="526" y="738"/>
      <point x="571" y="718"/>
      <point x="586" y="707" type="qcurve"/>
      <point x="571" y="687" type="line"/>
      <point x="556" y="697"/>
      <point x="520" y="711"/>
      <point x="494" y="711" type="qcurve" smooth="yes"/>
      <point x="464" y="711"/>
      <point x="421" y="672"/>
      <point x="421" y="620" type="qcurve" smooth="yes"/>
      <point x="421" y="480" type="line"/>
      <point x="406" y="462" type="line"/>
      <point x="381" y="479"/>
      <point x="323" y="502"/>
      <point x="285" y="502" type="qcurve" smooth="yes"/>
      <point x="206" y="502"/>
      <point x="102" y="379"/>
      <point x="102" y="257" type="qcurve" smooth="yes"/>
      <point x="102" y="178"/>
      <point x="149" y="71"/>
      <point x="232" y="18"/>
      <point x="284" y="18" type="qcurve" smooth="yes"/>
      <point x="323" y="18"/>
      <point x="385" y="44"/>
      <point x="410" y="66" type="qcurve"/>
      <point x="427" y="44" type="line"/>
      <point x="399" y="19"/>
      <point x="329" y="-10"/>
    </contour>
    <contour>
      <point x="235" y="727" type="move" name="top"/>
    </contour>
    <contour>
      <point x="235" y="0" type="move" name="bottom"/>
    </contour>
  </outline>
</glyph>
<glyph name="uni018B" format="1">
  <advance width="561"/>
  <unicode hex="018B"/>
  <outline>
    <contour>
      <point x="441" y="0" type="line"/>
      <point x="275" y="0" type="line" smooth="yes"/>
      <point x="212" y="0"/>
      <point x="113" y="43"/>
      <point x="55" y="132"/>
      <point x="55" y="201" type="qcurve" smooth="yes"/>
      <point x="55" y="300"/>
      <point x="179" y="408"/>
      <point x="288" y="408" type="qcurve" smooth="yes"/>
      <point x="410" y="408" type="line"/>
      <point x="410" y="653" type="line"/>
      <point x="121" y="653" type="line"/>
      <point x="121" y="682" type="line"/>
      <point x="441" y="682" type="line"/>
    </contour>
    <contour>
      <point x="277" y="29" type="qcurve" smooth="yes"/>
      <point x="410" y="29" type="line"/>
      <point x="410" y="379" type="line"/>
      <point x="287" y="379" type="line" smooth="yes"/>
      <point x="191" y="379"/>
      <point x="87" y="289"/>
      <point x="87" y="201" type="qcurve" smooth="yes"/>
      <point x="87" y="140"/>
      <point x="134" y="64"/>
      <point x="220" y="29"/>
    </contour>
    <contour>
      <point x="282" y="680" type="move" name="top"/>
    </contour>
    <contour>
      <point x="282" y="0" type="move" name="bottom"/>
    </contour>
  </outline>
</glyph>
<glyph name="uni018C" format="1">
  <advance width="575"/>
  <unicode hex="018C"/>
  <outline>
    <contour>
      <point x="268" y="-10" type="qcurve" smooth="yes"/>
      <point x="210" y="-10"/>
      <point x="123" y="54"/>
      <point x="75" y="174"/>
      <point x="75" y="258" type="qcurve" smooth="yes"/>
      <point x="75" y="339"/>
      <point x="124" y="461"/>
      <point x="215" y="530"/>
      <point x="279" y="530" type="qcurve" smooth="yes"/>
      <point x="319" y="530"/>
      <point x="377" y="507"/>
      <point x="417" y="472"/>
      <point x="430" y="454" type="qcurve"/>
      <point x="430" y="706" type="line"/>
      <point x="187" y="706" type="line"/>
      <point x="187" y="734" type="line"/>
      <point x="460" y="734" type="line"/>
      <point x="460" y="0" type="line"/>
      <point x="434" y="0" type="line"/>
      <point x="430" y="86" type="line"/>
      <point x="410" y="49"/>
      <point x="333" y="-10"/>
    </contour>
    <contour>
      <point x="269" y="18" type="qcurve" smooth="yes"/>
      <point x="328" y="18"/>
      <point x="403" y="77"/>
      <point x="430" y="131" type="qcurve"/>
      <point x="430" y="414" type="line"/>
      <point x="415" y="438"/>
      <point x="373" y="478"/>
      <point x="317" y="502"/>
      <point x="280" y="502" type="qcurve" smooth="yes"/>
      <point x="229" y="502"/>
      <point x="150" y="444"/>
      <point x="106" y="335"/>
      <point x="106" y="258" type="qcurve" smooth="yes"/>
      <point x="107" y="182"/>
      <point x="147" y="75"/>
      <point x="220" y="18"/>
    </contour>
    <contour>
      <point x="286" y="727" type="move" name="top"/>
    </contour>
    <contour>
      <point x="286" y="0" type="move" name="bottom"/>
    </contour>
  </outline>
</glyph>
<glyph name="uni018D" format="1">
  <advance width="558"/>
  <unicode hex="018D"/>
  <outline>
    <contour>
      <point x="124" y="-89" type="qcurve" smooth="yes"/>
      <point x="124" y="-58"/>
      <point x="153" y="-10"/>
      <point x="215" y="29"/>
      <point x="262" y="46" type="qcurve" smooth="yes"/>
      <point x="318" y="67"/>
      <point x="393" y="111"/>
      <point x="437" y="165"/>
      <point x="457" y="237"/>
      <point x="457" y="285" type="qcurve" smooth="yes"/>
      <point x="457" y="394"/>
      <point x="368" y="502"/>
      <point x="280" y="502" type="qcurve" smooth="yes"/>
      <point x="198" y="502"/>
      <point x="101" y="391"/>
      <point x="101" y="284" type="qcurve" smooth="yes"/>
      <point x="101" y="216"/>
      <point x="152" y="119"/>
      <point x="236" y="57"/>
      <point x="285" y="41" type="qcurve"/>
      <point x="252" y="30" type="line"/>
      <point x="169" y="60"/>
      <point x="70" y="186"/>
      <point x="70" y="284" type="qcurve" smooth="yes"/>
      <point x="70" y="403"/>
      <point x="183" y="530"/>
      <point x="280" y="530" type="qcurve" smooth="yes"/>
      <point x="347" y="530"/>
      <point x="440" y="475"/>
      <point x="488" y="366"/>
      <point x="488" y="285" type="qcurve" smooth="yes"/>
      <point x="488" y="216"/>
      <point x="448" y="121"/>
      <point x="363" y="57"/>
      <point x="297" y="32" type="qcurve" smooth="yes"/>
      <point x="240" y="11"/>
      <point x="178" y="-26"/>
      <point x="155" y="-64"/>
      <point x="155" y="-89" type="qcurve" smooth="yes"/>
      <point x="155" y="-127"/>
      <point x="219" y="-171"/>
      <point x="273" y="-171" type="qcurve" smooth="yes"/>
      <point x="323" y="-171"/>
      <point x="384" y="-153"/>
      <point x="416" y="-133" type="qcurve"/>
      <point x="434" y="-154" type="line"/>
      <point x="400" y="-176"/>
      <point x="326" y="-199"/>
      <point x="273" y="-199" type="qcurve" smooth="yes"/>
      <point x="228" y="-199"/>
      <point x="161" y="-171"/>
      <point x="124" y="-122"/>
    </contour>
    <contour>
      <point x="277" y="517" type="move" name="top"/>
    </contour>
    <contour>
      <point x="277" y="-188" type="move" name="bottom"/>
    </contour>
  </outline>
</glyph>
<glyph name="uni0190" format="1">
  <advance width="519"/>
  <unicode hex="0190"/>
  <outline>
    <contour>
      <point x="271" y="692" type="qcurve" smooth="yes"/>
      <point x="331" y="692"/>
      <point x="425" y="649"/>
      <point x="468" y="609" type="qcurve"/>
      <point x="449" y="589" type="line"/>
      <point x="412" y="622"/>
      <point x="326" y="663"/>
      <point x="272" y="663" type="qcurve" smooth="yes"/>
      <point x="200" y="663"/>
      <point x="113" y="589"/>
      <point x="113" y="527" type="qcurve" smooth="yes"/>
      <point x="113" y="480"/>
      <point x="156" y="415"/>
      <point x="233" y="383"/>
      <point x="283" y="383" type="qcurve" smooth="yes"/>
      <point x="338" y="383" type="line"/>
      <point x="334" y="354" type="line"/>
      <point x="278" y="355" type="line" smooth="yes"/>
      <point x="188" y="357"/>
      <point x="92" y="271"/>
      <point x="92" y="194" type="qcurve" smooth="yes"/>
      <point x="92" y="111"/>
      <point x="198" y="19"/>
      <point x="280" y="19" type="qcurve" smooth="yes"/>
      <point x="339" y="19"/>
      <point x="431" y="64"/>
      <point x="468" y="101" type="qcurve"/>
      <point x="489" y="82" type="line"/>
      <point x="444" y="36"/>
      <point x="341" y="-10"/>
      <point x="280" y="-10" type="qcurve" smooth="yes"/>
      <point x="217" y="-10"/>
      <point x="117" y="39"/>
      <point x="60" y="131"/>
      <point x="60" y="195" type="qcurve" smooth="yes"/>
      <point x="60" y="251"/>
      <point x="101" y="325"/>
      <point x="170" y="366"/>
      <point x="211" y="370" type="qcurve"/>
      <point x="174" y="378"/>
      <point x="115" y="417"/>
      <point x="81" y="480"/>
      <point x="81" y="525" type="qcurve" smooth="yes"/>
      <point x="81" y="575"/>
      <point x="127" y="650"/>
      <point x="213" y="692"/>
    </contour>
    <contour>
      <point x="254" y="680" type="move" name="top"/>
    </contour>
    <contour>
      <point x="254" y="0" type="move" name="bottom"/>
    </contour>
  </outline>
</glyph>
<glyph name="florin" format="1">
  <advance width="309"/>
  <unicode hex="0192"/>
  <outline>
    <contour>
      <point x="248" y="710" type="qcurve" smooth="yes"/>
      <point x="202" y="710"/>
      <point x="147" y="666"/>
      <point x="147" y="613" type="qcurve" smooth="yes"/>
      <point x="147" y="520" type="line"/>
      <point x="293" y="520" type="line"/>
      <point x="288" y="493" type="line"/>
      <point x="147" y="493" type="line"/>
      <point x="147" y="8" type="line" smooth="yes"/>
      <point x="147" y="-58"/>
      <point x="121" y="-132"/>
      <point x="69" y="-176"/>
      <point x="29" y="-196" type="qcurve"/>
      <point x="20" y="-174" type="line"/>
      <point x="55" y="-156"/>
      <point x="97" y="-116"/>
      <point x="117" y="-50"/>
      <point x="117" y="9" type="qcurve" smooth="yes"/>
      <point x="117" y="493" type="line"/>
      <point x="29" y="493" type="line"/>
      <point x="29" y="520" type="line"/>
      <point x="117" y="520" type="line"/>
      <point x="117" y="617" type="line" smooth="yes"/>
      <point x="117" y="656"/>
      <point x="149" y="710"/>
      <point x="208" y="738"/>
      <point x="246" y="738" type="qcurve" smooth="yes"/>
      <point x="277" y="738"/>
      <point x="338" y="723"/>
      <point x="364" y="709" type="qcurve"/>
      <point x="352" y="685" type="line"/>
      <point x="327" y="697"/>
      <point x="276" y="710"/>
    </contour>
  </outline>
</glyph>
<glyph name="uni0193" format="1">
  <advance width="556"/>
  <unicode hex="0193"/>
  <outline>
    <contour>
      <point x="353" y="-10" type="qcurve" smooth="yes"/>
      <point x="271" y="-10"/>
      <point x="146" y="69"/>
      <point x="75" y="227"/>
      <point x="75" y="345" type="qcurve" smooth="yes"/>
      <point x="75" y="434"/>
      <point x="122" y="565"/>
      <point x="201" y="650"/>
      <point x="298" y="692"/>
      <point x="348" y="692" type="qcurve" smooth="yes"/>
      <point x="393" y="692"/>
      <point x="462" y="672"/>
      <point x="493" y="652" type="qcurve"/>
      <point x="493" y="701" type="line" smooth="yes"/>
      <point x="493" y="760"/>
      <point x="550" y="818"/>
      <point x="596" y="818" type="qcurve" smooth="yes"/>
      <point x="628" y="818"/>
      <point x="673" y="798"/>
      <point x="688" y="787" type="qcurve"/>
      <point x="673" y="767" type="line"/>
      <point x="658" y="777"/>
      <point x="622" y="791"/>
      <point x="596" y="791" type="qcurve" smooth="yes"/>
      <point x="566" y="791"/>
      <point x="523" y="752"/>
      <point x="523" y="700" type="qcurve" smooth="yes"/>
      <point x="523" y="631" type="line"/>
      <point x="507" y="613" type="line"/>
      <point x="470" y="639"/>
      <point x="395" y="663"/>
      <point x="348" y="663" type="qcurve" smooth="yes"/>
      <point x="305" y="663"/>
      <point x="219" y="628"/>
      <point x="149" y="552"/>
      <point x="107" y="431"/>
      <point x="107" y="345" type="qcurve" smooth="yes"/>
      <point x="107" y="235"/>
      <point x="169" y="90"/>
      <point x="280" y="19"/>
      <point x="353" y="19" type="qcurve" smooth="yes"/>
      <point x="402" y="19"/>
      <point x="473" y="39"/>
      <point x="507" y="58" type="qcurve"/>
      <point x="507" y="330" type="line"/>
      <point x="364" y="330" type="line"/>
      <point x="360" y="359" type="line"/>
      <point x="538" y="359" type="line"/>
      <point x="538" y="42" type="line"/>
      <point x="495" y="17"/>
      <point x="400" y="-10"/>
    </contour>
    <contour>
      <point x="268" y="680" type="move" name="top"/>
    </contour>
    <contour>
      <point x="268" y="0" type="move" name="bottom"/>
    </contour>
  </outline>
</glyph>
<glyph name="uni0194" format="1">
  <advance width="538"/>
  <unicode hex="0194"/>
  <outline>
    <contour>
      <point x="269" y="-199" type="qcurve" smooth="yes"/>
      <point x="235" y="-199"/>
      <point x="194" y="-156"/>
      <point x="194" y="-121" type="qcurve" smooth="yes"/>
      <point x="194" y="-87"/>
      <point x="225" y="-9"/>
      <point x="250" y="52" type="qcurve"/>
      <point x="25" y="682" type="line"/>
      <point x="58" y="682" type="line"/>
      <point x="269" y="76" type="line"/>
      <point x="480" y="682" type="line"/>
      <point x="513" y="682" type="line"/>
      <point x="288" y="52" type="line"/>
      <point x="314" y="-8"/>
      <point x="344" y="-85"/>
      <point x="344" y="-121" type="qcurve" smooth="yes"/>
      <point x="344" y="-154"/>
      <point x="305" y="-199"/>
    </contour>
    <contour>
      <point x="269" y="-171" type="qcurve" smooth="yes"/>
      <point x="291" y="-171"/>
      <point x="313" y="-144"/>
      <point x="313" y="-120" type="qcurve" smooth="yes"/>
      <point x="313" y="-89"/>
      <point x="290" y="-22"/>
      <point x="269" y="29" type="qcurve"/>
      <point x="248" y="-22"/>
      <point x="225" y="-88"/>
      <point x="225" y="-120" type="qcurve" smooth="yes"/>
      <point x="225" y="-144"/>
      <point x="247" y="-171"/>
    </contour>
    <contour>
      <point x="262" y="680" type="move" name="top"/>
    </contour>
    <contour>
      <point x="262" y="-188" type="move" name="bottom"/>
    </contour>
  </outline>
</glyph>
<glyph name="uni0195" format="1">
  <advance width="890"/>
  <unicode hex="0195"/>
  <outline>
    <contour>
      <point x="743" y="520" type="qcurve"/>
      <point x="774" y="520" type="line"/>
      <point x="784" y="463"/>
      <point x="800" y="334"/>
      <point x="800" y="265" type="qcurve" smooth="yes"/>
      <point x="800" y="193"/>
      <point x="769" y="89"/>
      <point x="715" y="22"/>
      <point x="644" y="-10"/>
      <point x="603" y="-10" type="qcurve" smooth="yes"/>
      <point x="558" y="-10"/>
      <point x="485" y="27"/>
      <point x="442" y="101"/>
      <point x="442" y="156" type="qcurve" smooth="yes"/>
      <point x="442" y="366" type="line" smooth="yes"/>
      <point x="442" y="434"/>
      <point x="387" y="503"/>
      <point x="331" y="503" type="qcurve" smooth="yes"/>
      <point x="270" y="503"/>
      <point x="182" y="436"/>
      <point x="145" y="383" type="qcurve"/>
      <point x="145" y="0" type="line"/>
      <point x="115" y="0" type="line"/>
      <point x="115" y="734" type="line"/>
      <point x="145" y="739" type="line"/>
      <point x="145" y="421" type="line"/>
      <point x="180" y="470"/>
      <point x="271" y="530"/>
      <point x="332" y="530" type="qcurve" smooth="yes"/>
      <point x="402" y="530"/>
      <point x="472" y="445"/>
      <point x="472" y="370" type="qcurve" smooth="yes"/>
      <point x="472" y="157" type="line" smooth="yes"/>
      <point x="472" y="83"/>
      <point x="548" y="18"/>
      <point x="603" y="18" type="qcurve" smooth="yes"/>
      <point x="644" y="18"/>
      <point x="720" y="63"/>
      <point x="769" y="171"/>
      <point x="769" y="265" type="qcurve" smooth="yes"/>
      <point x="769" y="333"/>
      <point x="753" y="463"/>
    </contour>
    <contour>
      <point x="446" y="727" type="move" name="top"/>
    </contour>
    <contour>
      <point x="446" y="0" type="move" name="bottom"/>
    </contour>
  </outline>
</glyph>
<glyph name="uni0196" format="1">
  <advance width="325"/>
  <unicode hex="0196"/>
  <outline>
    <contour>
      <point x="290" y="42" type="qcurve"/>
      <point x="305" y="21" type="line"/>
      <point x="290" y="10"/>
      <point x="245" y="-10"/>
      <point x="214" y="-10" type="qcurve" smooth="yes"/>
      <point x="169" y="-10"/>
      <point x="110" y="48"/>
      <point x="110" y="107" type="qcurve" smooth="yes"/>
      <point x="110" y="682" type="line"/>
      <point x="141" y="682" type="line"/>
      <point x="141" y="109" type="line" smooth="yes"/>
      <point x="141" y="57"/>
      <point x="185" y="18"/>
      <point x="214" y="18" type="qcurve" smooth="yes"/>
      <point x="240" y="18"/>
      <point x="276" y="32"/>
    </contour>
    <contour>
      <point x="121" y="680" type="move" name="top"/>
    </contour>
    <contour>
      <point x="192" y="0" type="move" name="bottom"/>
    </contour>
  </outline>
</glyph>
<glyph name="uni0198" format="1">
  <advance width="545"/>
  <unicode hex="0198"/>
  <outline>
    <contour>
      <point x="120" y="682" type="line"/>
      <point x="151" y="682" type="line"/>
      <point x="151" y="0" type="line"/>
      <point x="120" y="0" type="line"/>
    </contour>
    <contour>
      <point x="364" y="600" type="qcurve" smooth="yes"/>
      <point x="194" y="367" type="line"/>
      <point x="513" y="0" type="line"/>
      <point x="475" y="0" type="line"/>
      <point x="154" y="367" type="line"/>
      <point x="344" y="620" type="line" smooth="yes"/>
      <point x="365" y="648"/>
      <point x="400" y="679"/>
      <point x="438" y="692"/>
      <point x="461" y="692" type="qcurve" smooth="yes"/>
      <point x="487" y="692"/>
      <point x="530" y="669"/>
      <point x="545" y="654" type="qcurve"/>
      <point x="528" y="636" type="line"/>
      <point x="515" y="647"/>
      <point x="482" y="664"/>
      <point x="461" y="664" type="qcurve" smooth="yes"/>
      <point x="446" y="664"/>
      <point x="418" y="657"/>
      <point x="386" y="630"/>
    </contour>
    <contour>
      <point x="271" y="680" type="move" name="top"/>
    </contour>
    <contour>
      <point x="271" y="0" type="move" name="bottom"/>
    </contour>
  </outline>
</glyph>
<glyph name="uni0199" format="1">
  <advance width="469"/>
  <unicode hex="0199"/>
  <outline>
    <contour>
      <point x="145" y="0" type="line"/>
      <point x="115" y="0" type="line"/>
      <point x="115" y="617" type="line" smooth="yes"/>
      <point x="115" y="656"/>
      <point x="147" y="710"/>
      <point x="206" y="738"/>
      <point x="244" y="738" type="qcurve" smooth="yes"/>
      <point x="275" y="738"/>
      <point x="336" y="723"/>
      <point x="362" y="709" type="qcurve"/>
      <point x="350" y="685" type="line"/>
      <point x="325" y="697"/>
      <point x="274" y="710"/>
      <point x="246" y="710" type="qcurve" smooth="yes"/>
      <point x="200" y="710"/>
      <point x="145" y="666"/>
      <point x="145" y="613" type="qcurve" smooth="yes"/>
    </contour>
    <contour>
      <point x="454" y="0" type="line"/>
      <point x="417" y="0" type="line"/>
      <point x="151" y="284" type="line"/>
      <point x="392" y="520" type="line"/>
      <point x="430" y="520" type="line"/>
      <point x="189" y="285" type="line"/>
    </contour>
  </outline>
</glyph>
<glyph name="uni019C" format="1">
  <advance width="925"/>
  <unicode hex="019C"/>
  <outline>
    <contour>
      <point x="263" y="-10" type="qcurve" smooth="yes"/>
      <point x="190" y="-10"/>
      <point x="110" y="89"/>
      <point x="110" y="180" type="qcurve" smooth="yes"/>
      <point x="110" y="682" type="line"/>
      <point x="141" y="682" type="line"/>
      <point x="141" y="175" type="line" smooth="yes"/>
      <point x="141" y="99"/>
      <point x="205" y="19"/>
      <point x="264" y="19" type="qcurve" smooth="yes"/>
      <point x="325" y="19"/>
      <point x="413" y="94"/>
      <point x="443" y="148" type="qcurve"/>
      <point x="442" y="156"/>
      <point x="442" y="172"/>
      <point x="442" y="180" type="qcurve" smooth="yes"/>
      <point x="442" y="682" type="line"/>
      <point x="473" y="682" type="line"/>
      <point x="473" y="175" type="line" smooth="yes"/>
      <point x="473" y="99"/>
      <point x="537" y="19"/>
      <point x="596" y="19" type="qcurve" smooth="yes"/>
      <point x="658" y="19"/>
      <point x="746" y="97"/>
      <point x="774" y="149" type="qcurve"/>
      <point x="774" y="682" type="line"/>
      <point x="805" y="682" type="line"/>
      <point x="805" y="0" type="line"/>
      <point x="778" y="0" type="line"/>
      <point x="775" y="106" type="line"/>
      <point x="747" y="58"/>
      <point x="656" y="-10"/>
      <point x="595" y="-10" type="qcurve" smooth="yes"/>
      <point x="537" y="-10"/>
      <point x="463" y="52"/>
      <point x="449" y="110" type="qcurve"/>
      <point x="419" y="61"/>
      <point x="325" y="-10"/>
    </contour>
    <contour>
      <point x="459" y="680" type="move" name="top"/>
    </contour>
    <contour>
      <point x="459" y="0" type="move" name="bottom"/>
    </contour>
  </outline>
</glyph>
<glyph name="uni019D" format="1">
  <advance width="664"/>
  <unicode hex="019D"/>
  <outline>
    <contour>
      <point x="46" y="-199" type="qcurve" smooth="yes"/>
      <point x="15" y="-199"/>
      <point x="-30" y="-179"/>
      <point x="-45" y="-168" type="qcurve"/>
      <point x="-30" y="-148" type="line"/>
      <point x="-16" y="-158"/>
      <point x="20" y="-172"/>
      <point x="46" y="-172" type="qcurve" smooth="yes"/>
      <point x="76" y="-172"/>
      <point x="120" y="-133"/>
      <point x="120" y="-81" type="qcurve" smooth="yes"/>
      <point x="120" y="682" type="line"/>
      <point x="159" y="682" type="line"/>
      <point x="518" y="35" type="line"/>
      <point x="517" y="55"/>
      <point x="515" y="112"/>
      <point x="514" y="186"/>
      <point x="514" y="232" type="qcurve" smooth="yes"/>
      <point x="514" y="682" type="line"/>
      <point x="544" y="682" type="line"/>
      <point x="544" y="0" type="line"/>
      <point x="506" y="0" type="line"/>
      <point x="146" y="647" type="line"/>
      <point x="148" y="628"/>
      <point x="149" y="576"/>
      <point x="150" y="498"/>
      <point x="150" y="438" type="qcurve" smooth="yes"/>
      <point x="150" y="-82" type="line" smooth="yes"/>
      <point x="150" y="-141"/>
      <point x="91" y="-199"/>
    </contour>
    <contour>
      <point x="331" y="680" type="move" name="top"/>
    </contour>
    <contour>
      <point x="321" y="0" type="move" name="bottom"/>
    </contour>
  </outline>
</glyph>
<glyph name="uni019E" format="1">
  <advance width="582"/>
  <unicode hex="019E"/>
  <outline>
    <contour>
      <point x="332" y="530" type="qcurve" smooth="yes"/>
      <point x="403" y="530"/>
      <point x="472" y="447"/>
      <point x="472" y="370" type="qcurve" smooth="yes"/>
      <point x="472" y="-199" type="line"/>
      <point x="442" y="-193" type="line"/>
      <point x="442" y="366" type="line" smooth="yes"/>
      <point x="442" y="436"/>
      <point x="387" y="503"/>
      <point x="331" y="503" type="qcurve" smooth="yes"/>
      <point x="270" y="503"/>
      <point x="182" y="436"/>
      <point x="145" y="383" type="qcurve"/>
      <point x="145" y="0" type="line"/>
      <point x="115" y="0" type="line"/>
      <point x="115" y="520" type="line"/>
      <point x="141" y="520" type="line"/>
      <point x="144" y="421" type="line"/>
      <point x="179" y="469"/>
      <point x="271" y="530"/>
    </contour>
    <contour>
      <point x="295" y="517" type="move" name="top"/>
    </contour>
    <contour>
      <point x="287" y="0" type="move" name="bottom"/>
    </contour>
    <contour>
      <point x="115" y="517" type="move" name="topleft"/>
    </contour>
  </outline>
</glyph>
<glyph name="uni01A2" format="1">
  <advance width="884"/>
  <unicode hex="01A2"/>
  <outline>
    <contour>
      <point x="764" y="-193" type="line"/>
      <point x="733" y="-193" type="line"/>
      <point x="733" y="560" type="line" smooth="yes"/>
      <point x="733" y="622"/>
      <point x="682" y="665"/>
      <point x="639" y="665" type="qcurve" smooth="yes"/>
      <point x="602" y="665"/>
      <point x="542" y="643"/>
      <point x="516" y="628" type="qcurve"/>
      <point x="563" y="585"/>
      <point x="615" y="441"/>
      <point x="615" y="340" type="qcurve" smooth="yes"/>
      <point x="615" y="229"/>
      <point x="549" y="73"/>
      <point x="428" y="-10"/>
      <point x="345" y="-10" type="qcurve" smooth="yes"/>
      <point x="265" y="-10"/>
      <point x="143" y="71"/>
      <point x="75" y="227"/>
      <point x="75" y="339" type="qcurve" smooth="yes"/>
      <point x="75" y="452"/>
      <point x="144" y="610"/>
      <point x="266" y="692"/>
      <point x="345" y="692" type="qcurve" smooth="yes"/>
      <point x="432" y="692"/>
      <point x="495" y="646" type="qcurve"/>
      <point x="524" y="663"/>
      <point x="596" y="692"/>
      <point x="639" y="692" type="qcurve" smooth="yes"/>
      <point x="697" y="692"/>
      <point x="764" y="631"/>
      <point x="764" y="561" type="qcurve" smooth="yes"/>
    </contour>
    <contour>
      <point x="345" y="19" type="qcurve" smooth="yes"/>
      <point x="456" y="19"/>
      <point x="583" y="182"/>
      <point x="583" y="340" type="qcurve" smooth="yes"/>
      <point x="583" y="502"/>
      <point x="452" y="663"/>
      <point x="345" y="663" type="qcurve" smooth="yes"/>
      <point x="275" y="663"/>
      <point x="167" y="591"/>
      <point x="107" y="447"/>
      <point x="107" y="339" type="qcurve" smooth="yes"/>
      <point x="107" y="234"/>
      <point x="168" y="92"/>
      <point x="275" y="19"/>
    </contour>
    <contour>
      <point x="437" y="680" type="move" name="top"/>
    </contour>
    <contour>
      <point x="437" y="-188" type="move" name="bottom"/>
    </contour>
  </outline>
</glyph>
<glyph name="uni01A3" format="1">
  <advance width="745"/>
  <unicode hex="01A3"/>
  <outline>
    <contour>
      <point x="630" y="-199" type="line"/>
      <point x="600" y="-193" type="line"/>
      <point x="600" y="396" type="line" smooth="yes"/>
      <point x="600" y="456"/>
      <point x="548" y="503"/>
      <point x="504" y="503" type="qcurve" smooth="yes"/>
      <point x="473" y="503"/>
      <point x="425" y="491"/>
      <point x="404" y="482" type="qcurve"/>
      <point x="380" y="498" type="line"/>
      <point x="406" y="512"/>
      <point x="466" y="530"/>
      <point x="505" y="530" type="qcurve" smooth="yes"/>
      <point x="563" y="530"/>
      <point x="630" y="465"/>
      <point x="630" y="397" type="qcurve" smooth="yes"/>
    </contour>
    <contour>
      <point x="281" y="530" type="qcurve" smooth="yes"/>
      <point x="345" y="530"/>
      <point x="439" y="468"/>
      <point x="491" y="349"/>
      <point x="491" y="262" type="qcurve" smooth="yes"/>
      <point x="491" y="176"/>
      <point x="439" y="54"/>
      <point x="344" y="-10"/>
      <point x="280" y="-10" type="qcurve" smooth="yes"/>
      <point x="183" y="-10"/>
      <point x="70" y="133"/>
      <point x="70" y="259" type="qcurve" smooth="yes"/>
      <point x="70" y="345"/>
      <point x="123" y="466"/>
      <point x="218" y="530"/>
    </contour>
    <contour>
      <point x="281" y="502" type="qcurve" smooth="yes"/>
      <point x="199" y="502"/>
      <point x="101" y="379"/>
      <point x="101" y="259" type="qcurve" smooth="yes"/>
      <point x="101" y="144"/>
      <point x="197" y="18"/>
      <point x="280" y="18" type="qcurve" smooth="yes"/>
      <point x="363" y="18"/>
      <point x="460" y="143"/>
      <point x="460" y="262" type="qcurve" smooth="yes"/>
      <point x="460" y="379"/>
      <point x="365" y="502"/>
    </contour>
    <contour>
      <point x="364" y="517" type="move" name="top"/>
    </contour>
    <contour>
      <point x="364" y="-188" type="move" name="bottom"/>
    </contour>
  </outline>
</glyph>
<glyph name="uni01A6" format="1">
  <advance width="577"/>
  <unicode hex="01A6"/>
  <outline>
    <contour>
      <point x="537" y="-130" type="line"/>
      <point x="498" y="-130" type="line"/>
      <point x="313" y="190" type="line"/>
      <point x="151" y="190" type="line"/>
      <point x="151" y="0" type="line"/>
      <point x="120" y="0" type="line"/>
      <point x="120" y="682" type="line"/>
      <point x="151" y="682" type="line"/>
      <point x="151" y="552" type="line"/>
      <point x="274" y="552" type="line" smooth="yes"/>
      <point x="354" y="552"/>
      <point x="454" y="510"/>
      <point x="502" y="431"/>
      <point x="502" y="373" type="qcurve" smooth="yes"/>
      <point x="502" y="320"/>
      <point x="463" y="248"/>
      <point x="394" y="206"/>
      <point x="347" y="196" type="qcurve"/>
    </contour>
    <contour>
      <point x="151" y="523" type="line"/>
      <point x="151" y="219" type="line"/>
      <point x="280" y="219" type="line" smooth="yes"/>
      <point x="340" y="219"/>
      <point x="425" y="252"/>
      <point x="470" y="320"/>
      <point x="470" y="373" type="qcurve" smooth="yes"/>
      <point x="470" y="421"/>
      <point x="431" y="488"/>
      <point x="344" y="523"/>
      <point x="270" y="523" type="qcurve" smooth="yes"/>
    </contour>
    <contour>
      <point x="281" y="680" type="move" name="top"/>
    </contour>
    <contour>
      <point x="281" y="-188" type="move" name="bottom"/>
    </contour>
  </outline>
</glyph>
<glyph name="uni01A7" format="1">
  <advance width="525"/>
  <unicode hex="01A7"/>
  <outline>
    <contour>
      <point x="281" y="692" type="qcurve" smooth="yes"/>
      <point x="337" y="692"/>
      <point x="416" y="652"/>
      <point x="457" y="582"/>
      <point x="457" y="538" type="qcurve" smooth="yes"/>
      <point x="457" y="492"/>
      <point x="421" y="427"/>
      <point x="339" y="379"/>
      <point x="269" y="355" type="qcurve" smooth="yes"/>
      <point x="206" y="334"/>
      <point x="130" y="288"/>
      <point x="97" y="224"/>
      <point x="97" y="176" type="qcurve" smooth="yes"/>
      <point x="97" y="127"/>
      <point x="141" y="56"/>
      <point x="218" y="19"/>
      <point x="267" y="19" type="qcurve" smooth="yes"/>
      <point x="332" y="19"/>
      <point x="418" y="60"/>
      <point x="455" y="94" type="qcurve"/>
      <point x="475" y="73" type="line"/>
      <point x="434" y="36"/>
      <point x="334" y="-10"/>
      <point x="266" y="-10" type="qcurve" smooth="yes"/>
      <point x="210" y="-10"/>
      <point x="118" y="36"/>
      <point x="65" y="120"/>
      <point x="65" y="177" type="qcurve" smooth="yes"/>
      <point x="65" y="231"/>
      <point x="106" y="305"/>
      <point x="192" y="359"/>
      <point x="259" y="381" type="qcurve" smooth="yes"/>
      <point x="320" y="401"/>
      <point x="393" y="441"/>
      <point x="426" y="496"/>
      <point x="426" y="538" type="qcurve" smooth="yes"/>
      <point x="426" y="594"/>
      <point x="352" y="663"/>
      <point x="281" y="663" type="qcurve" smooth="yes"/>
      <point x="227" y="663"/>
      <point x="148" y="633"/>
      <point x="105" y="599" type="qcurve"/>
      <point x="86" y="620" type="line"/>
      <point x="128" y="653"/>
      <point x="215" y="692"/>
    </contour>
    <contour>
      <point x="270" y="680" type="move" name="top"/>
    </contour>
    <contour>
      <point x="270" y="0" type="move" name="bottom"/>
    </contour>
  </outline>
</glyph>
<glyph name="uni01A8" format="1">
  <advance width="451"/>
  <unicode hex="01A8"/>
  <outline>
    <contour>
      <point x="238" y="530" type="qcurve" smooth="yes"/>
      <point x="282" y="530"/>
      <point x="352" y="499"/>
      <point x="392" y="442"/>
      <point x="392" y="403" type="qcurve" smooth="yes"/>
      <point x="392" y="351"/>
      <point x="320" y="289"/>
      <point x="237" y="265" type="qcurve" smooth="yes"/>
      <point x="180" y="249"/>
      <point x="116" y="214"/>
      <point x="91" y="166"/>
      <point x="91" y="130" type="qcurve" smooth="yes"/>
      <point x="91" y="75"/>
      <point x="168" y="18"/>
      <point x="222" y="18" type="qcurve" smooth="yes"/>
      <point x="275" y="18"/>
      <point x="349" y="49"/>
      <point x="383" y="76" type="qcurve"/>
      <point x="401" y="56" type="line"/>
      <point x="367" y="28"/>
      <point x="283" y="-10"/>
      <point x="222" y="-10" type="qcurve" smooth="yes"/>
      <point x="176" y="-10"/>
      <point x="102" y="25"/>
      <point x="60" y="88"/>
      <point x="60" y="130" type="qcurve" smooth="yes"/>
      <point x="60" y="194"/>
      <point x="135" y="262"/>
      <point x="223" y="288" type="qcurve" smooth="yes"/>
      <point x="274" y="303"/>
      <point x="334" y="333"/>
      <point x="361" y="374"/>
      <point x="361" y="403" type="qcurve" smooth="yes"/>
      <point x="361" y="450"/>
      <point x="292" y="502"/>
      <point x="238" y="502" type="qcurve" smooth="yes"/>
      <point x="194" y="502"/>
      <point x="126" y="479"/>
      <point x="91" y="453" type="qcurve"/>
      <point x="73" y="473" type="line"/>
      <point x="111" y="502"/>
      <point x="191" y="530"/>
    </contour>
    <contour>
      <point x="229" y="517" type="move" name="top"/>
    </contour>
    <contour>
      <point x="229" y="0" type="move" name="bottom"/>
    </contour>
  </outline>
</glyph>
<glyph name="uni01AA" format="1">
  <advance width="268"/>
  <unicode hex="01AA"/>
  <outline>
    <contour>
      <point x="224" y="-199" type="qcurve" smooth="yes"/>
      <point x="179" y="-199"/>
      <point x="120" y="-141"/>
      <point x="120" y="-82" type="qcurve" smooth="yes"/>
      <point x="120" y="535" type="line"/>
      <point x="107" y="528"/>
      <point x="75" y="519"/>
      <point x="56" y="519" type="qcurve" smooth="yes"/>
      <point x="27" y="519"/>
      <point x="-19" y="545"/>
      <point x="-45" y="593"/>
      <point x="-45" y="626" type="qcurve" smooth="yes"/>
      <point x="-45" y="659"/>
      <point x="-19" y="709"/>
      <point x="26" y="738"/>
      <point x="55" y="738" type="qcurve" smooth="yes"/>
      <point x="86" y="738"/>
      <point x="128" y="710"/>
      <point x="150" y="663"/>
      <point x="150" y="633" type="qcurve" smooth="yes"/>
      <point x="150" y="-81" type="line" smooth="yes"/>
      <point x="150" y="-133"/>
      <point x="194" y="-172"/>
      <point x="224" y="-172" type="qcurve" smooth="yes"/>
      <point x="250" y="-172"/>
      <point x="286" y="-158"/>
      <point x="300" y="-148" type="qcurve"/>
      <point x="315" y="-168" type="line"/>
      <point x="300" y="-179"/>
      <point x="255" y="-199"/>
    </contour>
    <contour>
      <point x="57" y="546" type="qcurve" smooth="yes"/>
      <point x="77" y="546"/>
      <point x="108" y="554"/>
      <point x="120" y="561" type="qcurve"/>
      <point x="120" y="632" type="line" smooth="yes"/>
      <point x="120" y="669"/>
      <point x="87" y="711"/>
      <point x="55" y="711" type="qcurve" smooth="yes"/>
      <point x="23" y="711"/>
      <point x="-15" y="665"/>
      <point x="-15" y="627" type="qcurve" smooth="yes"/>
      <point x="-15" y="584"/>
      <point x="26" y="546"/>
    </contour>
    <contour>
      <point x="128" y="727" type="move" name="top"/>
    </contour>
    <contour>
      <point x="128" y="-188" type="move" name="bottom"/>
    </contour>
  </outline>
</glyph>
<glyph name="uni01AB" format="1">
  <advance width="325"/>
  <unicode hex="01AB"/>
  <outline>
    <contour>
      <point x="225" y="-199" type="qcurve" smooth="yes"/>
      <point x="194" y="-199"/>
      <point x="150" y="-179"/>
      <point x="135" y="-168" type="qcurve"/>
      <point x="150" y="-148" type="line"/>
      <point x="165" y="-158"/>
      <point x="200" y="-172"/>
      <point x="225" y="-172" type="qcurve" smooth="yes"/>
      <point x="257" y="-172"/>
      <point x="300" y="-133"/>
      <point x="300" y="-81" type="qcurve" smooth="yes"/>
      <point x="300" y="18" type="line"/>
      <point x="330" y="20" type="line"/>
      <point x="330" y="-82" type="line" smooth="yes"/>
      <point x="330" y="-141"/>
      <point x="272" y="-199"/>
    </contour>
    <contour>
      <point x="110" y="650" type="line"/>
      <point x="140" y="653" type="line"/>
      <point x="140" y="120" type="line" smooth="yes"/>
      <point x="140" y="70"/>
      <point x="184" y="18"/>
      <point x="228" y="18" type="qcurve" smooth="yes"/>
      <point x="254" y="18"/>
      <point x="297" y="28"/>
      <point x="319" y="38" type="qcurve"/>
      <point x="330" y="20" type="line"/>
      <point x="325" y="16"/>
      <point x="313" y="10"/>
      <point x="307" y="8" type="qcurve"/>
      <point x="289" y="0"/>
      <point x="249" y="-10"/>
      <point x="226" y="-10" type="qcurve" smooth="yes"/>
      <point x="173" y="-10"/>
      <point x="110" y="54"/>
      <point x="110" y="118" type="qcurve" smooth="yes"/>
    </contour>
    <contour>
      <point x="25" y="520" type="line"/>
      <point x="283" y="520" type="line"/>
      <point x="278" y="493" type="line"/>
      <point x="25" y="493" type="line"/>
    </contour>
    <contour>
      <point x="118" y="651" type="move" name="top"/>
    </contour>
    <contour>
      <point x="161" y="-188" type="move" name="bottom"/>
    </contour>
  </outline>
</glyph>
<glyph name="uni01AC" format="1">
  <advance width="497"/>
  <unicode hex="01AC"/>
  <outline>
    <contour>
      <point x="274" y="0" type="line"/>
      <point x="243" y="0" type="line"/>
      <point x="243" y="652" type="line"/>
      <point x="134" y="652" type="line" smooth="yes"/>
      <point x="89" y="652"/>
      <point x="50" y="611"/>
      <point x="50" y="580" type="qcurve" smooth="yes"/>
      <point x="50" y="555"/>
      <point x="65" y="520"/>
      <point x="74" y="504" type="qcurve"/>
      <point x="51" y="490" type="line"/>
      <point x="40" y="508"/>
      <point x="20" y="549"/>
      <point x="20" y="580" type="qcurve" smooth="yes"/>
      <point x="20" y="625"/>
      <point x="80" y="682"/>
      <point x="141" y="682" type="qcurve" smooth="yes"/>
      <point x="487" y="682" type="line"/>
      <point x="482" y="652" type="line"/>
      <point x="274" y="652" type="line"/>
    </contour>
    <contour>
      <point x="246" y="680" type="move" name="top"/>
    </contour>
    <contour>
      <point x="246" y="0" type="move" name="bottom"/>
    </contour>
  </outline>
</glyph>
<glyph name="uni01AD" format="1">
  <advance width="325"/>
  <unicode hex="01AD"/>
  <outline>
    <contour>
      <point x="226" y="-10" type="qcurve" smooth="yes"/>
      <point x="173" y="-10"/>
      <point x="110" y="54"/>
      <point x="110" y="118" type="qcurve" smooth="yes"/>
      <point x="110" y="559" type="line"/>
      <point x="140" y="562" type="line"/>
      <point x="140" y="120" type="line" smooth="yes"/>
      <point x="140" y="70"/>
      <point x="184" y="18"/>
      <point x="228" y="18" type="qcurve" smooth="yes"/>
      <point x="254" y="18"/>
      <point x="297" y="32"/>
      <point x="316" y="43" type="qcurve"/>
      <point x="330" y="20" type="line"/>
      <point x="308" y="7"/>
      <point x="257" y="-10"/>
    </contour>
    <contour>
      <point x="278" y="493" type="line"/>
      <point x="25" y="493" type="line"/>
      <point x="25" y="520" type="line"/>
      <point x="283" y="520" type="line"/>
    </contour>
    <contour>
      <point x="140" y="529" type="line"/>
      <point x="110" y="529" type="line"/>
      <point x="110" y="610" type="line" smooth="yes"/>
      <point x="110" y="653"/>
      <point x="139" y="710"/>
      <point x="192" y="738"/>
      <point x="227" y="738" type="qcurve" smooth="yes"/>
      <point x="257" y="738"/>
      <point x="308" y="722"/>
      <point x="330" y="708" type="qcurve"/>
      <point x="316" y="686" type="line"/>
      <point x="297" y="697"/>
      <point x="254" y="711"/>
      <point x="228" y="711" type="qcurve" smooth="yes"/>
      <point x="185" y="711"/>
      <point x="140" y="662"/>
      <point x="140" y="609" type="qcurve" smooth="yes"/>
    </contour>
    <contour>
      <point x="161" y="727" type="move" name="top"/>
    </contour>
    <contour>
      <point x="161" y="0" type="move" name="bottom"/>
    </contour>
  </outline>
</glyph>
<glyph name="uni01B1" format="1">
  <advance width="690"/>
  <unicode hex="01B1"/>
  <outline>
    <contour>
      <point x="345" y="-10" type="qcurve" smooth="yes"/>
      <point x="264" y="-10"/>
      <point x="143" y="70"/>
      <point x="75" y="219"/>
      <point x="75" y="322" type="qcurve" smooth="yes"/>
      <point x="75" y="413"/>
      <point x="118" y="540"/>
      <point x="184" y="625"/>
      <point x="218" y="653" type="qcurve"/>
      <point x="97" y="653" type="line"/>
      <point x="97" y="682" type="line"/>
      <point x="267" y="682" type="line"/>
      <point x="267" y="654" type="line"/>
      <point x="225" y="627"/>
      <point x="152" y="541"/>
      <point x="107" y="412"/>
      <point x="107" y="322" type="qcurve" smooth="yes"/>
      <point x="107" y="225"/>
      <point x="167" y="89"/>
      <point x="274" y="19"/>
      <point x="345" y="19" type="qcurve" smooth="yes"/>
      <point x="416" y="19"/>
      <point x="523" y="89"/>
      <point x="583" y="225"/>
      <point x="583" y="322" type="qcurve" smooth="yes"/>
      <point x="583" y="412"/>
      <point x="540" y="540"/>
      <point x="467" y="627"/>
      <point x="423" y="654" type="qcurve"/>
      <point x="423" y="682" type="line"/>
      <point x="593" y="682" type="line"/>
      <point x="593" y="653" type="line"/>
      <point x="472" y="653" type="line"/>
      <point x="511" y="624"/>
      <point x="576" y="539"/>
      <point x="615" y="413"/>
      <point x="615" y="322" type="qcurve" smooth="yes"/>
      <point x="615" y="219"/>
      <point x="547" y="70"/>
      <point x="426" y="-10"/>
    </contour>
    <contour>
      <point x="344" y="680" type="move" name="top"/>
    </contour>
    <contour>
      <point x="344" y="0" type="move" name="bottom"/>
    </contour>
  </outline>
</glyph>
<glyph name="uni01B2" format="1">
  <advance width="633"/>
  <unicode hex="01B2"/>
  <outline>
    <contour>
      <point x="295" y="-10" type="qcurve" smooth="yes"/>
      <point x="239" y="-10"/>
      <point x="156" y="35"/>
      <point x="110" y="120"/>
      <point x="110" y="178" type="qcurve" smooth="yes"/>
      <point x="110" y="682" type="line"/>
      <point x="141" y="682" type="line"/>
      <point x="141" y="181" type="line" smooth="yes"/>
      <point x="141" y="103"/>
      <point x="225" y="19"/>
      <point x="295" y="19" type="qcurve" smooth="yes"/>
      <point x="354" y="19"/>
      <point x="448" y="79"/>
      <point x="502" y="200"/>
      <point x="502" y="291" type="qcurve" smooth="yes"/>
      <point x="502" y="599" type="line" smooth="yes"/>
      <point x="502" y="631"/>
      <point x="478" y="665"/>
      <point x="451" y="665" type="qcurve" smooth="yes"/>
      <point x="438" y="665"/>
      <point x="417" y="659"/>
      <point x="407" y="654" type="qcurve"/>
      <point x="395" y="676" type="line"/>
      <point x="406" y="683"/>
      <point x="435" y="692"/>
      <point x="452" y="692" type="qcurve" smooth="yes"/>
      <point x="489" y="692"/>
      <point x="533" y="647"/>
      <point x="533" y="599" type="qcurve" smooth="yes"/>
      <point x="533" y="288" type="line" smooth="yes"/>
      <point x="533" y="189"/>
      <point x="470" y="56"/>
      <point x="363" y="-10"/>
    </contour>
    <contour>
      <point x="302" y="680" type="move" name="top"/>
    </contour>
    <contour>
      <point x="302" y="0" type="move" name="bottom"/>
    </contour>
  </outline>
</glyph>
<glyph name="uni01B3" format="1">
  <advance width="517"/>
  <unicode hex="01B3"/>
  <outline>
    <contour>
      <point x="267" y="0" type="line"/>
      <point x="236" y="0" type="line"/>
      <point x="236" y="270" type="line"/>
      <point x="20" y="682" type="line"/>
      <point x="55" y="682" type="line"/>
      <point x="252" y="297" type="line"/>
      <point x="398" y="614" type="line" smooth="yes"/>
      <point x="416" y="654"/>
      <point x="460" y="692"/>
      <point x="494" y="692" type="qcurve" smooth="yes"/>
      <point x="522" y="692"/>
      <point x="561" y="670"/>
      <point x="577" y="655" type="qcurve"/>
      <point x="561" y="637" type="line"/>
      <point x="545" y="650"/>
      <point x="517" y="665"/>
      <point x="495" y="665" type="qcurve" smooth="yes"/>
      <point x="470" y="665"/>
      <point x="440" y="639"/>
      <point x="422" y="601" type="qcurve" smooth="yes"/>
      <point x="267" y="270" type="line"/>
    </contour>
    <contour>
      <point x="253" y="680" type="move" name="top"/>
    </contour>
    <contour>
      <point x="253" y="0" type="move" name="bottom"/>
    </contour>
    <contour>
      <point x="15" y="680" type="move" name="topleft"/>
    </contour>
  </outline>
</glyph>
<glyph name="uni01B4" format="1">
  <advance width="458"/>
  <unicode hex="01B4"/>
  <outline>
    <contour>
      <point x="58" y="-197" type="qcurve"/>
      <point x="54" y="-173" type="line"/>
      <point x="106" y="-158"/>
      <point x="166" y="-114"/>
      <point x="201" y="-49"/>
      <point x="217" y="0" type="qcurve"/>
      <point x="205" y="0" type="line"/>
      <point x="20" y="520" type="line"/>
      <point x="53" y="520" type="line"/>
      <point x="226" y="23" type="line"/>
      <point x="369" y="483" type="line" smooth="yes"/>
      <point x="384" y="531"/>
      <point x="424" y="568"/>
      <point x="455" y="568" type="qcurve" smooth="yes"/>
      <point x="471" y="568"/>
      <point x="495" y="562"/>
      <point x="505" y="557" type="qcurve"/>
      <point x="496" y="533" type="line"/>
      <point x="487" y="537"/>
      <point x="467" y="541"/>
      <point x="456" y="541" type="qcurve" smooth="yes"/>
      <point x="434" y="541"/>
      <point x="409" y="515"/>
      <point x="398" y="481" type="qcurve" smooth="yes"/>
      <point x="245" y="-2" type="line" smooth="yes"/>
      <point x="227" y="-59"/>
      <point x="183" y="-134"/>
      <point x="114" y="-181"/>
    </contour>
    <contour>
      <point x="222" y="517" type="move" name="top"/>
    </contour>
    <contour>
      <point x="222" y="-188" type="move" name="bottom"/>
    </contour>
  </outline>
</glyph>
<glyph name="uni01B7" format="1">
  <advance width="475"/>
  <unicode hex="01B7"/>
  <outline>
    <contour>
      <point x="216" y="-10" type="qcurve" smooth="yes"/>
      <point x="150" y="-10"/>
      <point x="57" y="33"/>
      <point x="20" y="73" type="qcurve"/>
      <point x="40" y="91" type="line"/>
      <point x="77" y="52"/>
      <point x="160" y="19"/>
      <point x="215" y="19" type="qcurve" smooth="yes"/>
      <point x="305" y="19"/>
      <point x="393" y="112"/>
      <point x="393" y="182" type="qcurve" smooth="yes"/>
      <point x="393" y="271"/>
      <point x="293" y="348"/>
      <point x="209" y="348" type="qcurve" smooth="yes"/>
      <point x="128" y="348" type="line"/>
      <point x="128" y="377" type="line"/>
      <point x="360" y="654" type="line"/>
      <point x="37" y="654" type="line"/>
      <point x="37" y="682" type="line"/>
      <point x="400" y="682" type="line"/>
      <point x="400" y="656" type="line"/>
      <point x="163" y="377" type="line"/>
      <point x="207" y="377" type="line" smooth="yes"/>
      <point x="315" y="377"/>
      <point x="425" y="276"/>
      <point x="425" y="183" type="qcurve" smooth="yes"/>
      <point x="425" y="128"/>
      <point x="376" y="40"/>
      <point x="283" y="-10"/>
    </contour>
    <contour>
      <point x="211" y="680" type="move" name="top"/>
    </contour>
    <contour>
      <point x="232" y="0" type="move" name="bottom"/>
    </contour>
  </outline>
</glyph>
<glyph name="uni01B8" format="1">
  <advance width="475"/>
  <unicode hex="01B8"/>
  <outline>
    <contour>
      <point x="249" y="-10" type="qcurve" smooth="yes"/>
      <point x="189" y="-10"/>
      <point x="99" y="36"/>
      <point x="50" y="120"/>
      <point x="50" y="178" type="qcurve" smooth="yes"/>
      <point x="50" y="240"/>
      <point x="100" y="329"/>
      <point x="198" y="377"/>
      <point x="268" y="377" type="qcurve" smooth="yes"/>
      <point x="312" y="377" type="line"/>
      <point x="75" y="656" type="line"/>
      <point x="75" y="682" type="line"/>
      <point x="438" y="682" type="line"/>
      <point x="438" y="654" type="line"/>
      <point x="116" y="654" type="line"/>
      <point x="347" y="378" type="line"/>
      <point x="347" y="348" type="line"/>
      <point x="266" y="348" type="line" smooth="yes"/>
      <point x="181" y="348"/>
      <point x="81" y="266"/>
      <point x="81" y="177" type="qcurve" smooth="yes"/>
      <point x="81" y="104"/>
      <point x="170" y="19"/>
      <point x="250" y="19" type="qcurve" smooth="yes"/>
      <point x="312" y="19"/>
      <point x="396" y="52"/>
      <point x="435" y="91" type="qcurve"/>
      <point x="455" y="73" type="line"/>
      <point x="416" y="33"/>
      <point x="323" y="-10"/>
    </contour>
    <contour>
      <point x="232" y="680" type="move" name="top"/>
    </contour>
    <contour>
      <point x="232" y="0" type="move" name="bottom"/>
    </contour>
  </outline>
</glyph>
<glyph name="uni01B9" format="1">
  <advance width="445"/>
  <unicode hex="01B9"/>
  <outline>
    <contour>
      <point x="234" y="-199" type="qcurve" smooth="yes"/>
      <point x="172" y="-199"/>
      <point x="83" y="-148"/>
      <point x="35" y="-61"/>
      <point x="35" y="-5" type="qcurve" smooth="yes"/>
      <point x="35" y="53"/>
      <point x="83" y="143"/>
      <point x="187" y="195"/>
      <point x="269" y="195" type="qcurve" smooth="yes"/>
      <point x="287" y="195" type="line"/>
      <point x="317" y="167" type="line"/>
      <point x="266" y="167" type="line" smooth="yes"/>
      <point x="163" y="167"/>
      <point x="66" y="77"/>
      <point x="66" y="-6" type="qcurve" smooth="yes"/>
      <point x="66" y="-54"/>
      <point x="104" y="-128"/>
      <point x="179" y="-171"/>
      <point x="233" y="-171" type="qcurve" smooth="yes"/>
      <point x="286" y="-171"/>
      <point x="369" y="-138"/>
      <point x="405" y="-99" type="qcurve"/>
      <point x="425" y="-116" type="line"/>
      <point x="389" y="-156"/>
      <point x="297" y="-199"/>
    </contour>
    <contour>
      <point x="98" y="492" type="line"/>
      <point x="317" y="195" type="line"/>
      <point x="317" y="167" type="line"/>
      <point x="283" y="195" type="line"/>
      <point x="60" y="495" type="line"/>
      <point x="60" y="520" type="line"/>
      <point x="408" y="520" type="line"/>
      <point x="408" y="492" type="line"/>
    </contour>
    <contour>
      <point x="219" y="517" type="move" name="top"/>
    </contour>
    <contour>
      <point x="219" y="-188" type="move" name="bottom"/>
    </contour>
  </outline>
</glyph>
<glyph name="uni01BA" format="1">
  <advance width="443"/>
  <unicode hex="01BA"/>
  <outline>
    <contour>
      <point x="147" y="-176" type="qcurve"/>
      <point x="137" y="-199" type="line"/>
      <point x="91" y="-178"/>
      <point x="35" y="-127"/>
      <point x="35" y="-86" type="qcurve" smooth="yes"/>
      <point x="35" y="-40"/>
      <point x="122" y="12"/>
      <point x="210" y="22" type="qcurve" smooth="yes"/>
      <point x="299" y="33"/>
      <point x="377" y="82"/>
      <point x="377" y="146" type="qcurve" smooth="yes"/>
      <point x="377" y="196"/>
      <point x="315" y="241"/>
      <point x="261" y="241" type="qcurve" smooth="yes"/>
      <point x="116" y="241" type="line"/>
      <point x="116" y="269" type="line"/>
      <point x="335" y="492" type="line"/>
      <point x="35" y="492" type="line"/>
      <point x="35" y="520" type="line"/>
      <point x="378" y="520" type="line"/>
      <point x="378" y="495" type="line"/>
      <point x="152" y="269" type="line"/>
      <point x="263" y="269" type="line" smooth="yes"/>
      <point x="332" y="269"/>
      <point x="408" y="204"/>
      <point x="408" y="146" type="qcurve" smooth="yes"/>
      <point x="408" y="96"/>
      <point x="365" y="36"/>
      <point x="279" y="4"/>
      <point x="216" y="-5" type="qcurve" smooth="yes"/>
      <point x="167" y="-12"/>
      <point x="101" y="-30"/>
      <point x="67" y="-61"/>
      <point x="67" y="-86" type="qcurve" smooth="yes"/>
      <point x="67" y="-117"/>
      <point x="105" y="-155"/>
    </contour>
    <contour>
      <point x="207" y="517" type="move" name="top"/>
    </contour>
    <contour>
      <point x="221" y="-188" type="move" name="bottom"/>
    </contour>
  </outline>
</glyph>
<glyph name="uni01BD" format="1">
  <advance width="420"/>
  <unicode hex="01BD"/>
  <outline>
    <contour>
      <point x="85" y="520" type="line"/>
      <point x="349" y="520" type="line"/>
      <point x="343" y="492" type="line"/>
      <point x="115" y="492" type="line"/>
      <point x="115" y="301" type="line"/>
      <point x="132" y="312"/>
      <point x="180" y="328"/>
      <point x="214" y="328" type="qcurve" smooth="yes"/>
      <point x="262" y="328"/>
      <point x="329" y="289"/>
      <point x="365" y="217"/>
      <point x="365" y="167" type="qcurve" smooth="yes"/>
      <point x="365" y="115"/>
      <point x="324" y="36"/>
      <point x="249" y="-10"/>
      <point x="197" y="-10" type="qcurve" smooth="yes"/>
      <point x="164" y="-10"/>
      <point x="110" y="5"/>
      <point x="65" y="33"/>
      <point x="45" y="51" type="qcurve"/>
      <point x="64" y="70" type="line"/>
      <point x="93" y="45"/>
      <point x="154" y="18"/>
      <point x="198" y="18" type="qcurve" smooth="yes"/>
      <point x="260" y="18"/>
      <point x="334" y="99"/>
      <point x="334" y="167" type="qcurve" smooth="yes"/>
      <point x="334" y="235"/>
      <point x="267" y="300"/>
      <point x="214" y="300" type="qcurve" smooth="yes"/>
      <point x="180" y="300"/>
      <point x="134" y="286"/>
      <point x="108" y="272" type="qcurve"/>
      <point x="85" y="272" type="line"/>
    </contour>
    <contour>
      <point x="211" y="517" type="move" name="top"/>
    </contour>
    <contour>
      <point x="211" y="0" type="move" name="bottom"/>
    </contour>
  </outline>
</glyph>
<glyph name="uni01BE" format="1">
  <advance width="492"/>
  <unicode hex="01BE"/>
  <outline>
    <contour>
      <point x="220" y="-4" type="qcurve" smooth="yes"/>
      <point x="161" y="-4"/>
      <point x="75" y="37"/>
      <point x="35" y="74" type="qcurve"/>
      <point x="55" y="93" type="line"/>
      <point x="89" y="63"/>
      <point x="166" y="25"/>
      <point x="219" y="25" type="qcurve" smooth="yes"/>
      <point x="301" y="25"/>
      <point x="390" y="124"/>
      <point x="390" y="205" type="qcurve" smooth="yes"/>
      <point x="390" y="267"/>
      <point x="342" y="339"/>
      <point x="270" y="376"/>
      <point x="233" y="385" type="qcurve" smooth="yes"/>
      <point x="168" y="401" type="line"/>
      <point x="168" y="568" type="line"/>
      <point x="101" y="568" type="line"/>
      <point x="101" y="595" type="line"/>
      <point x="168" y="595" type="line"/>
      <point x="168" y="734" type="line"/>
      <point x="198" y="739" type="line"/>
      <point x="198" y="595" type="line"/>
      <point x="319" y="595" type="line"/>
      <point x="319" y="568" type="line"/>
      <point x="198" y="568" type="line"/>
      <point x="198" y="422" type="line"/>
      <point x="235" y="414" type="line" smooth="yes"/>
      <point x="268" y="407"/>
      <point x="335" y="380"/>
      <point x="389" y="333"/>
      <point x="422" y="259"/>
      <point x="422" y="205" type="qcurve" smooth="yes"/>
      <point x="422" y="144"/>
      <point x="374" y="50"/>
      <point x="283" y="-4"/>
    </contour>
    <contour>
      <point x="179" y="727" type="move" name="top"/>
    </contour>
    <contour>
      <point x="226" y="0" type="move" name="bottom"/>
    </contour>
  </outline>
</glyph>
<glyph name="uni01BF" format="1">
  <advance width="565"/>
  <unicode hex="01BF"/>
  <outline>
    <contour>
      <point x="115" y="520" type="line"/>
      <point x="141" y="520" type="line"/>
      <point x="144" y="421" type="line"/>
      <point x="145" y="412" type="line"/>
      <point x="145" y="-193" type="line"/>
      <point x="115" y="-199" type="line"/>
    </contour>
    <contour>
      <point x="140" y="401" type="qcurve"/>
      <point x="137" y="430" type="line"/>
      <point x="175" y="474"/>
      <point x="264" y="530"/>
      <point x="327" y="530" type="qcurve" smooth="yes"/>
      <point x="378" y="530"/>
      <point x="453" y="490"/>
      <point x="495" y="414"/>
      <point x="495" y="361" type="qcurve" smooth="yes"/>
      <point x="495" y="304"/>
      <point x="458" y="211"/>
      <point x="385" y="131"/>
      <point x="278" y="58"/>
      <point x="208" y="21" type="qcurve" smooth="yes"/>
      <point x="144" y="-12" type="line"/>
      <point x="144" y="17" type="line"/>
      <point x="198" y="46" type="line" smooth="yes"/>
      <point x="288" y="95"/>
      <point x="406" y="187"/>
      <point x="464" y="293"/>
      <point x="464" y="360" type="qcurve" smooth="yes"/>
      <point x="464" y="430"/>
      <point x="388" y="502"/>
      <point x="326" y="502" type="qcurve" smooth="yes"/>
      <point x="267" y="502"/>
      <point x="178" y="445"/>
    </contour>
    <contour>
      <point x="281" y="517" type="move" name="top"/>
    </contour>
    <contour>
      <point x="281" y="-188" type="move" name="bottom"/>
    </contour>
  </outline>
</glyph>
<glyph name="uni01C3" format="1">
  <advance width="300"/>
  <unicode hex="01C3"/>
  <outline>
    <contour>
      <point x="136" y="734" type="line"/>
      <point x="164" y="738" type="line"/>
      <point x="164" y="193" type="line"/>
      <point x="136" y="193" type="line"/>
    </contour>
    <contour>
      <point x="150" y="49" type="qcurve" smooth="yes"/>
      <point x="164" y="49"/>
      <point x="180" y="32"/>
      <point x="180" y="19" type="qcurve" smooth="yes"/>
      <point x="180" y="7"/>
      <point x="164" y="-10"/>
      <point x="150" y="-10" type="qcurve" smooth="yes"/>
      <point x="137" y="-10"/>
      <point x="120" y="7"/>
      <point x="120" y="19" type="qcurve" smooth="yes"/>
      <point x="120" y="32"/>
      <point x="137" y="49"/>
    </contour>
  </outline>
</glyph>
<glyph name="uni01E4" format="1">
  <advance width="623"/>
  <unicode hex="01E4"/>
  <outline>
    <contour>
      <point x="538" y="237" type="line"/>
      <point x="613" y="237" type="line"/>
      <point x="613" y="209" type="line"/>
      <point x="538" y="209" type="line"/>
      <point x="538" y="42" type="line"/>
      <point x="495" y="17"/>
      <point x="400" y="-10"/>
      <point x="353" y="-10" type="qcurve" smooth="yes"/>
      <point x="271" y="-10"/>
      <point x="146" y="69"/>
      <point x="75" y="227"/>
      <point x="75" y="345" type="qcurve" smooth="yes"/>
      <point x="75" y="434"/>
      <point x="122" y="565"/>
      <point x="201" y="650"/>
      <point x="298" y="692"/>
      <point x="348" y="692" type="qcurve" smooth="yes"/>
      <point x="404" y="692"/>
      <point x="483" y="662"/>
      <point x="523" y="631" type="qcurve"/>
      <point x="504" y="610" type="line"/>
      <point x="468" y="638"/>
      <point x="395" y="663"/>
      <point x="348" y="663" type="qcurve" smooth="yes"/>
      <point x="305" y="663"/>
      <point x="219" y="628"/>
      <point x="149" y="552"/>
      <point x="107" y="431"/>
      <point x="107" y="345" type="qcurve" smooth="yes"/>
      <point x="107" y="235"/>
      <point x="169" y="90"/>
      <point x="280" y="19"/>
      <point x="353" y="19" type="qcurve" smooth="yes"/>
      <point x="402" y="19"/>
      <point x="473" y="39"/>
      <point x="507" y="58" type="qcurve"/>
      <point x="507" y="209" type="line"/>
      <point x="364" y="209" type="line"/>
      <point x="364" y="237" type="line"/>
      <point x="507" y="237" type="line"/>
      <point x="507" y="330" type="line"/>
      <point x="364" y="330" type="line"/>
      <point x="360" y="359" type="line"/>
      <point x="538" y="359" type="line"/>
    </contour>
    <contour>
      <point x="306" y="680" type="move" name="top"/>
    </contour>
    <contour>
      <point x="306" y="0" type="move" name="bottom"/>
    </contour>
  </outline>
</glyph>
<glyph name="uni01F6" format="1">
  <advance width="960"/>
  <unicode hex="01F6"/>
  <outline>
    <contour>
      <point x="673" y="-10" type="qcurve" smooth="yes"/>
      <point x="628" y="-10"/>
      <point x="554" y="27"/>
      <point x="511" y="101"/>
      <point x="511" y="156" type="qcurve" smooth="yes"/>
      <point x="511" y="345" type="line"/>
      <point x="151" y="345" type="line"/>
      <point x="151" y="0" type="line"/>
      <point x="120" y="0" type="line"/>
      <point x="120" y="682" type="line"/>
      <point x="151" y="682" type="line"/>
      <point x="151" y="374" type="line"/>
      <point x="511" y="374" type="line"/>
      <point x="511" y="682" type="line"/>
      <point x="542" y="682" type="line"/>
      <point x="542" y="157" type="line" smooth="yes"/>
      <point x="542" y="83"/>
      <point x="618" y="18"/>
      <point x="673" y="18" type="qcurve" smooth="yes"/>
      <point x="714" y="18"/>
      <point x="790" y="63"/>
      <point x="839" y="171"/>
      <point x="839" y="265" type="qcurve" smooth="yes"/>
      <point x="839" y="333"/>
      <point x="823" y="463"/>
      <point x="813" y="520" type="qcurve"/>
      <point x="844" y="520" type="line"/>
      <point x="854" y="463"/>
      <point x="870" y="334"/>
      <point x="870" y="265" type="qcurve" smooth="yes"/>
      <point x="870" y="193"/>
      <point x="839" y="89"/>
      <point x="785" y="22"/>
      <point x="714" y="-10"/>
    </contour>
    <contour>
      <point x="478" y="680" type="move" name="top"/>
    </contour>
    <contour>
      <point x="478" y="0" type="move" name="bottom"/>
    </contour>
  </outline>
</glyph>
<glyph name="uni01F7" format="1">
  <advance width="561"/>
  <unicode hex="01F7"/>
  <outline>
    <contour>
      <point x="151" y="0" type="line"/>
      <point x="120" y="0" type="line"/>
      <point x="120" y="682" type="line"/>
      <point x="151" y="682" type="line"/>
      <point x="151" y="622" type="line"/>
      <point x="182" y="649"/>
      <point x="268" y="692"/>
      <point x="330" y="692" type="qcurve" smooth="yes"/>
      <point x="383" y="692"/>
      <point x="462" y="650"/>
      <point x="506" y="572"/>
      <point x="506" y="517" type="qcurve" smooth="yes"/>
      <point x="506" y="462"/>
      <point x="468" y="380"/>
      <point x="400" y="320"/>
      <point x="310" y="276"/>
      <point x="259" y="258" type="qcurve" smooth="yes"/>
      <point x="151" y="220" type="line"/>
    </contour>
    <contour>
      <point x="151" y="593" type="qcurve"/>
      <point x="151" y="249" type="line"/>
      <point x="262" y="288" type="line" smooth="yes"/>
      <point x="321" y="309"/>
      <point x="417" y="364"/>
      <point x="474" y="450"/>
      <point x="474" y="516" type="qcurve" smooth="yes"/>
      <point x="474" y="588"/>
      <point x="395" y="663"/>
      <point x="330" y="663" type="qcurve" smooth="yes"/>
      <point x="268" y="663"/>
      <point x="183" y="620"/>
    </contour>
    <contour>
      <point x="276" y="680" type="move" name="top"/>
    </contour>
    <contour>
      <point x="276" y="0" type="move" name="bottom"/>
    </contour>
  </outline>
</glyph>
<glyph name="uni021C" format="1">
  <advance width="498"/>
  <unicode hex="021C"/>
  <outline>
    <contour>
      <point x="229" y="692" type="qcurve" smooth="yes"/>
      <point x="288" y="692"/>
      <point x="372" y="649"/>
      <point x="417" y="571"/>
      <point x="417" y="518" type="qcurve" smooth="yes"/>
      <point x="417" y="472"/>
      <point x="383" y="407"/>
      <point x="325" y="369"/>
      <point x="287" y="360" type="qcurve"/>
      <point x="330" y="355"/>
      <point x="398" y="318"/>
      <point x="438" y="252"/>
      <point x="438" y="204" type="qcurve" smooth="yes"/>
      <point x="438" y="135"/>
      <point x="368" y="30"/>
      <point x="206" y="-50"/>
      <point x="67" y="-80" type="qcurve"/>
      <point x="64" y="-51" type="line"/>
      <point x="160" y="-31"/>
      <point x="291" y="19"/>
      <point x="371" y="82"/>
      <point x="406" y="157"/>
      <point x="406" y="203" type="qcurve" smooth="yes"/>
      <point x="406" y="269"/>
      <point x="312" y="347"/>
      <point x="220" y="345" type="qcurve" smooth="yes"/>
      <point x="160" y="344" type="line"/>
      <point x="164" y="373" type="line"/>
      <point x="215" y="373" type="line" smooth="yes"/>
      <point x="266" y="373"/>
      <point x="342" y="406"/>
      <point x="385" y="471"/>
      <point x="385" y="519" type="qcurve" smooth="yes"/>
      <point x="385" y="587"/>
      <point x="303" y="663"/>
      <point x="229" y="663" type="qcurve" smooth="yes"/>
      <point x="174" y="663"/>
      <point x="87" y="622"/>
      <point x="48" y="589" type="qcurve"/>
      <point x="30" y="609" type="line"/>
      <point x="74" y="649"/>
      <point x="169" y="692"/>
    </contour>
    <contour>
      <point x="241" y="680" type="move" name="top"/>
    </contour>
    <contour>
      <point x="241" y="-188" type="move" name="bottom"/>
    </contour>
  </outline>
</glyph>
